ply
format ascii 1.0
element vertex 448
property float32 x
property float32 y
property float32 z
element face 892
property list uint8 int32 vertex_indices
end_header
-0.062784 -0.415658 -0.743194
-0.220055 -0.505448 -0.695955
-0.064840 -0.593925 -0.675274
0.093340 -0.375874 -0.752743
0.090685 -0.535063 -0.699549
0.249179 -0.560561 -0.667565
-0.340475 -0.218643 -0.747851
-0.381144 -0.381141 -0.701068
-0.224072 -0.348778 -0.744941
-0.131729 -0.231222 -0.780349
0.019452 -0.229012 -0.786487
0.252608 -0.403325 -0.725077
0.204085 -0.236703 -0.771094
0.379594 -0.269803 -0.728605
-0.419996 -0.056355 -0.742165
-0.605391 -0.086023 -0.668533
-0.503011 -0.222415 -0.696496
-0.236237 -0.106061 -0.781636
-0.068352 -0.050854 -0.801821
0.107664 -0.082543 -0.798098
0.294367 -0.098963 -0.771521
0.532028 -0.200148 -0.688538
0.444457 -0.079377 -0.733374
0.636852 -0.069311 -0.653785
-0.402538 0.130338 -0.742364
-0.550958 0.055654 -0.694898
-0.254150 0.042045 -0.781873
-0.103661 0.124097 -0.795501
0.061657 0.093186 -0.800078
0.221938 0.055192 -0.786665
0.375968 0.087474 -0.753094
0.546355 0.048557 -0.697121
-0.541056 0.219958 -0.681511
-0.265344 0.218205 -0.764011
-0.404323 0.326388 -0.708851
-0.112186 0.294742 -0.770477
0.045700 0.260969 -0.780562
0.218575 0.224325 -0.770948
0.531691 0.194946 -0.689474
0.386172 0.254516 -0.729697
-0.246717 0.390502 -0.729897
-0.040874 0.438510 -0.736966
-0.186613 0.524424 -0.693668
0.141452 0.395947 -0.743170
0.309349 0.390400 -0.717060
0.232453 0.553512 -0.673904
-0.055648 0.625290 -0.660415
0.079684 0.554968 -0.691935
-0.403219 -0.682978 -0.557273
-0.557418 -0.699617 -0.468056
-0.421105 -0.815734 -0.443081
-0.235375 -0.656899 -0.621711
-0.257944 -0.795811 -0.522211
-0.081077 -0.746779 -0.587525
-0.113215 -0.880042 -0.475358
0.092975 -0.697868 -0.617937
0.057083 -0.846469 -0.511915
0.260202 -0.697452 -0.592107
0.221645 -0.824313 -0.507274
0.416348 -0.606371 -0.597996
0.400850 -0.759065 -0.502914
0.556716 -0.664424 -0.495132
-0.670808 -0.406588 -0.563828
-0.788927 -0.423144 -0.467328
-0.681125 -0.569869 -0.474577
-0.541032 -0.550486 -0.573018
-0.385403 -0.535544 -0.643500
0.407249 -0.448426 -0.671310
0.564842 -0.510374 -0.580536
0.703060 -0.546692 -0.472044
0.699969 -0.388429 -0.551590
0.829391 -0.406731 -0.436658
-0.666983 -0.245523 -0.613823
-0.811838 -0.259018 -0.508559
-0.530813 -0.388267 -0.644674
0.545932 -0.353774 -0.648525
0.685918 -0.229149 -0.606005
0.819766 -0.239174 -0.506957
-0.753885 -0.083861 -0.582443
-0.883805 -0.095235 -0.473731
0.779497 -0.066396 -0.565377
0.906110 -0.082369 -0.451998
-0.697331 0.093120 -0.618250
-0.838601 0.074528 -0.517607
0.704856 0.099446 -0.613142
0.854169 0.087085 -0.502738
-0.666257 0.271753 -0.608313
-0.795134 0.246594 -0.525682
-0.541494 0.402835 -0.635076
0.507352 0.377449 -0.658066
0.648510 0.263625 -0.620358
0.792270 0.247454 -0.527774
-0.701823 0.425555 -0.535449
-0.847388 0.388184 -0.427106
-0.528554 0.549237 -0.579843
-0.371404 0.509769 -0.658905
0.398091 0.514351 -0.648593
0.571188 0.520049 -0.572572
0.686375 0.402827 -0.555190
0.827692 0.402354 -0.440531
-0.658284 0.576083 -0.487616
-0.393381 0.670961 -0.568716
-0.540606 0.704068 -0.474979
-0.235481 0.659371 -0.620289
-0.071455 0.761476 -0.578033
0.111852 0.712172 -0.607453
0.286316 0.683494 -0.594360
0.446096 0.641438 -0.566125
0.716087 0.548993 -0.459996
0.583487 0.673656 -0.471419
-0.406329 0.813191 -0.452846
-0.247839 0.797264 -0.523641
-0.102192 0.888034 -0.468703
0.072227 0.854828 -0.503397
0.242541 0.821718 -0.504406
0.415625 0.776408 -0.481913
-0.280289 -0.919436 -0.391063
-0.419767 -0.928067 -0.303669
-0.258529 -1.025423 -0.221386
-0.142994 -0.987440 -0.338645
-0.058493 -1.057046 -0.218429
0.019098 -0.969657 -0.379495
0.117591 -1.040356 -0.246698
0.184187 -0.943740 -0.390622
0.297452 -0.996873 -0.261361
0.357199 -0.889074 -0.395061
-0.697593 -0.701661 -0.351440
-0.820871 -0.668544 -0.218415
-0.704102 -0.798820 -0.201758
-0.567917 -0.822904 -0.335299
0.527063 -0.806821 -0.387747
0.637397 -0.825349 -0.255944
0.680612 -0.695252 -0.375240
0.781304 -0.703983 -0.235776
-0.811961 -0.560520 -0.355600
0.819041 -0.563964 -0.343813
-0.942831 -0.235944 -0.376667
-0.997630 -0.339175 -0.230878
-0.898549 -0.391182 -0.365275
0.933246 -0.255433 -0.382586
0.932339 -0.419136 -0.297067
1.018035 -0.265243 -0.234957
-0.997824 -0.083853 -0.332915
-1.046175 -0.178857 -0.211334
1.005633 -0.094612 -0.318501
1.070573 -0.107501 -0.167273
-0.960951 0.056307 -0.389231
-1.062676 0.013436 -0.207517
0.973073 0.076851 -0.370819
1.057486 0.062327 -0.216715
-0.919214 0.218236 -0.411928
-1.025385 0.158456 -0.267134
0.917188 0.243126 -0.406859
1.014554 0.230036 -0.261357
-0.966590 0.336177 -0.294918
-0.788973 0.544730 -0.394272
0.837815 0.549023 -0.332368
0.940602 0.394328 -0.301267
-0.687360 0.699646 -0.364137
-0.814880 0.656240 -0.248305
0.707234 0.690886 -0.352550
0.810263 0.682417 -0.216646
-0.697925 0.795804 -0.218876
-0.557092 0.823253 -0.344425
-0.269951 0.921518 -0.392329
-0.411344 0.926739 -0.311886
-0.132817 0.992068 -0.333593
0.032006 0.974081 -0.372918
0.200365 0.943900 -0.386133
0.548610 0.808584 -0.369373
0.372959 0.896193 -0.378324
0.662928 0.814525 -0.239267
-0.252115 1.026190 -0.223432
-0.048511 1.059048 -0.214518
0.129867 1.040706 -0.242584
0.311243 0.997753 -0.250765
-0.568653 -0.907175 -0.184520
-0.515426 -0.971231 -0.023975
-0.416970 -0.994096 -0.160077
-0.327790 -1.048583 -0.040394
-0.153519 -1.084041 -0.077752
0.044476 -1.093469 -0.081320
0.223054 -1.066883 -0.108526
0.401969 -1.010797 -0.119546
0.472338 -0.925624 -0.263753
0.574249 -0.923519 -0.120969
-0.803332 -0.747894 -0.053411
-0.670328 -0.870588 -0.038433
0.724496 -0.815716 -0.102721
0.853035 -0.686209 -0.078322
-0.922223 -0.509521 -0.231106
-1.000503 -0.440728 -0.088888
-0.910303 -0.607193 -0.082367
0.906286 -0.565631 -0.191677
0.960096 -0.536337 -0.017658
1.000475 -0.419304 -0.133335
-1.061509 -0.274074 -0.065830
1.060813 -0.277355 -0.064472
-1.092930 -0.084600 -0.066896
1.093533 -0.117936 -0.012854
-1.090191 0.116307 -0.065280
1.097360 0.047637 -0.043603
-1.048803 0.260034 -0.150585
1.072892 0.207241 -0.092414
-0.904769 0.498891 -0.276017
-0.994117 0.431053 -0.138626
0.930249 0.531413 -0.182428
1.018332 0.369973 -0.138994
-0.912164 0.594087 -0.115699
-0.802862 0.742769 -0.085674
0.882248 0.651283 -0.063296
0.985748 0.487707 -0.015802
-0.667915 0.870676 -0.055863
-0.562380 0.907275 -0.194274
-0.510593 0.973292 -0.032909
0.493062 0.921766 -0.250359
0.752467 0.792721 -0.090764
0.597853 0.910542 -0.112106
-0.411132 0.993964 -0.168373
-0.323811 1.049483 -0.044824
-0.149345 1.084326 -0.079945
0.051424 1.093557 -0.078445
0.232335 1.065653 -0.104502
0.419505 1.004647 -0.114961
-0.595092 -0.910817 0.118578
-0.419845 -1.005955 0.107971
-0.231147 -1.067968 0.092597
-0.045653 -1.095320 0.066266
0.151298 -1.085836 0.065766
0.316610 -1.052162 0.038259
0.404393 -0.997533 0.165793
0.495911 -0.981341 0.023903
-0.871191 -0.659109 0.094266
-0.745348 -0.795228 0.108674
0.647249 -0.887374 0.044235
0.778570 -0.772132 0.064021
-1.027244 -0.376684 0.083046
-0.963076 -0.525300 0.059275
0.889520 -0.636763 0.084371
1.021698 -0.398291 0.063402
-1.076628 -0.194621 0.083419
1.066171 -0.223509 0.111724
-1.094633 -0.004302 0.079362
1.085651 -0.031779 0.127433
-1.075407 0.188139 0.098430
1.080520 0.157123 0.097575
-1.052981 0.318187 -0.002758
1.051518 0.317424 0.043698
-1.012494 0.378748 0.148816
0.994396 0.419812 0.155023
-0.980337 0.498099 0.021463
-0.879499 0.657131 0.050047
0.804050 0.744281 0.071544
0.915374 0.596160 0.094515
-0.750022 0.797283 0.079526
-0.594762 0.914666 0.102541
0.514382 0.971797 0.023690
0.670555 0.869635 0.046910
-0.415093 1.008889 0.103048
-0.227976 1.068912 0.090962
-0.046342 1.095445 0.064888
0.155738 1.085174 0.066066
0.329604 1.048572 0.031743
0.415346 0.994865 0.159780
-0.490992 -0.921896 0.252271
-0.370734 -0.898012 0.377186
-0.314592 -1.002531 0.238024
-0.124114 -1.049751 0.222536
0.063993 -1.062030 0.204221
0.250837 -1.025510 0.225851
0.410299 -0.927221 0.311855
0.554673 -0.913200 0.191254
-0.802735 -0.676950 0.239579
-0.655532 -0.811849 0.254533
-0.533036 -0.807030 0.383123
0.563172 -0.821068 0.341919
0.692201 -0.804565 0.211340
0.817259 -0.671015 0.221583
-0.929611 -0.506736 0.218187
-0.819576 -0.555847 0.350140
0.830257 -0.555681 0.336565
0.941893 -0.509576 0.183787
-1.008922 -0.314566 0.223139
-0.912834 -0.385235 0.349372
0.919766 -0.409026 0.324304
1.004783 -0.322321 0.227172
-1.047604 -0.124873 0.227653
1.030124 -0.138267 0.263354
-1.054313 0.065581 0.224337
1.044878 0.064505 0.246958
-1.012766 0.248419 0.256015
1.017693 0.256952 0.240595
-0.923029 0.543689 0.182700
-0.931580 0.409834 0.305167
-0.829404 0.562862 0.331270
0.905600 0.527687 0.244095
0.925791 0.387283 0.329366
0.806475 0.545619 0.374175
-0.805739 0.692569 0.208282
0.811865 0.670633 0.232531
-0.658580 0.822149 0.231624
-0.489144 0.928863 0.240243
-0.540985 0.818302 0.363903
-0.368940 0.904199 0.370160
0.566086 0.907916 0.186776
0.566831 0.819138 0.341160
0.421861 0.926766 0.304240
0.697973 0.798564 0.213351
-0.307754 1.004010 0.239463
-0.126566 1.046895 0.228897
0.055161 1.064323 0.199154
0.259833 1.029269 0.210777
-0.200787 -0.964407 0.357899
-0.016253 -0.992101 0.347183
0.141653 -0.981233 0.348447
0.274131 -0.913037 0.401274
-0.684564 -0.691640 0.374966
-0.546022 -0.672556 0.495627
-0.392904 -0.769335 0.497898
-0.231658 -0.846212 0.485126
-0.065243 -0.900194 0.459746
0.101854 -0.873044 0.483556
0.259975 -0.787471 0.528394
0.422136 -0.809502 0.448631
0.568111 -0.690647 0.468304
0.700691 -0.696145 0.354000
-0.800735 -0.421564 0.457247
-0.685711 -0.555367 0.480202
0.706665 -0.555716 0.463455
0.820173 -0.402958 0.447696
-0.957237 -0.218577 0.362583
-0.828570 -0.259432 0.493808
0.802392 -0.252622 0.518204
0.934428 -0.240260 0.386276
-0.984528 -0.032978 0.357907
-0.891719 -0.093772 0.465896
0.968638 -0.039854 0.380024
0.872211 -0.100547 0.484507
-0.969362 0.125941 0.368837
-0.865593 0.083513 0.492513
0.966702 0.131761 0.371471
0.854356 0.076744 0.503467
-0.904813 0.267564 0.413419
-0.785288 0.249470 0.532819
0.901788 0.255558 0.420942
0.778247 0.241881 0.540161
-0.816881 0.417068 0.443991
0.800655 0.404255 0.465598
-0.700719 0.701726 0.348030
-0.708784 0.559719 0.459132
-0.575330 0.686901 0.466536
0.694972 0.691665 0.364562
0.675689 0.556484 0.487056
0.553886 0.695562 0.473496
-0.403603 0.784532 0.480339
-0.197472 0.952522 0.375463
-0.239433 0.829101 0.498710
-0.025549 0.986360 0.355527
-0.065074 0.874641 0.485406
0.141830 0.999519 0.319420
0.111341 0.901361 0.453752
0.281976 0.928142 0.379243
0.258561 0.810317 0.509982
0.419918 0.813196 0.446165
-0.396374 -0.624581 0.595226
-0.234659 -0.712936 0.587940
-0.063926 -0.783386 0.562649
0.098370 -0.730938 0.596691
0.253754 -0.638554 0.628030
0.413926 -0.675471 0.557967
-0.682992 -0.389223 0.562558
-0.546988 -0.519264 0.585440
-0.393650 -0.465235 0.669530
-0.237422 -0.562478 0.668992
-0.071001 -0.644120 0.649870
0.088888 -0.574731 0.682649
0.241943 -0.478549 0.702208
0.405418 -0.523939 0.642031
0.560147 -0.545344 0.565783
0.685868 -0.403316 0.555335
-0.688183 -0.227369 0.604988
-0.541015 -0.356046 0.650061
-0.384873 -0.296647 0.721513
-0.233381 -0.399294 0.729699
0.386731 -0.363727 0.704369
0.367318 -0.197332 0.744220
0.541258 -0.381983 0.642033
0.663953 -0.235230 0.617722
-0.778713 -0.077676 0.565186
-0.641249 -0.053794 0.652267
-0.532952 -0.194230 0.689062
0.513041 -0.210430 0.694574
0.595712 -0.065649 0.674390
0.748195 -0.076549 0.586887
-0.725065 0.096526 0.600669
-0.488637 -0.026334 0.720278
0.707162 0.085968 0.612812
0.546045 0.089751 0.695063
-0.630663 0.254479 0.632122
-0.518349 0.386497 0.650636
-0.562941 0.113303 0.685960
-0.448897 0.236691 0.713539
0.507305 0.409716 0.647689
0.488169 0.251384 0.696876
0.352051 0.347072 0.718442
0.634633 0.249278 0.631106
-0.684862 0.401095 0.556856
-0.572272 0.533776 0.565194
-0.406851 0.527322 0.640064
-0.341191 0.383303 0.711364
-0.247636 0.522142 0.684316
0.353934 0.522263 0.658814
0.199014 0.404227 0.733679
0.180994 0.546484 0.685312
0.524596 0.555008 0.578826
0.662613 0.405534 0.569385
-0.436308 0.656559 0.560913
-0.271107 0.680019 0.600272
-0.102666 0.740677 0.589845
-0.111071 0.585917 0.675795
0.079713 0.780470 0.563737
0.046757 0.645522 0.650301
0.232048 0.678003 0.610161
0.394852 0.677505 0.564005
-0.075765 -0.487581 0.718785
0.080546 -0.406415 0.745010
-0.224105 -0.229235 0.769327
-0.071420 -0.316340 0.768492
0.080899 -0.222420 0.785402
0.225993 -0.307020 0.754396
-0.369248 -0.123322 0.752189
-0.228908 -0.049467 0.785800
-0.073017 -0.135432 0.796332
0.085924 -0.042456 0.801180
0.236992 -0.119964 0.780438
0.417735 -0.033370 0.743588
-0.372657 0.083120 0.754236
-0.211833 0.111184 0.784988
-0.062187 0.042516 0.802350
0.082317 0.139855 0.795438
0.245135 0.047603 0.783241
0.375009 0.146838 0.748399
-0.267716 0.255620 0.757337
-0.083669 0.228643 0.784291
0.050768 0.319078 0.768764
0.221842 0.232322 0.769182
-0.140110 0.393829 0.743906
0.016396 0.477205 0.724519
3 2 1 0
3 4 2 0
3 4 0 3
3 5 4 11
3 8 7 6
3 0 8 9
3 1 8 0
3 8 6 9
3 10 3 0
3 10 0 9
3 11 4 3
3 11 3 12
3 12 3 10
3 13 11 12
3 16 15 14
3 7 16 6
3 16 14 6
3 6 14 17
3 18 9 17
3 9 6 17
3 18 10 9
3 19 10 18
3 19 12 10
3 20 12 19
3 22 13 20
3 21 13 22
3 13 12 20
3 23 21 22
3 25 24 14
3 25 14 15
3 26 17 14
3 26 14 24
3 26 18 17
3 27 18 26
3 28 19 18
3 28 18 27
3 29 20 19
3 29 19 28
3 30 22 20
3 30 20 29
3 31 23 22
3 31 22 30
3 25 32 24
3 33 26 24
3 33 24 34
3 34 24 32
3 33 27 26
3 35 27 33
3 36 28 27
3 36 27 35
3 37 29 28
3 37 28 36
3 38 30 39
3 30 37 39
3 30 29 37
3 38 31 30
3 34 40 33
3 41 35 40
3 41 40 42
3 35 33 40
3 41 36 35
3 43 36 41
3 44 37 43
3 44 43 45
3 37 36 43
3 44 39 37
3 42 46 41
3 47 43 41
3 47 41 46
3 47 45 43
3 50 49 48
3 52 50 48
3 52 48 51
3 53 52 51
3 54 52 53
3 56 54 53
3 56 53 55
3 58 56 55
3 58 55 57
3 60 57 59
3 58 57 60
3 61 60 59
3 64 63 62
3 65 64 62
3 49 64 65
3 48 49 65
3 66 51 48
3 66 48 65
3 51 66 1
3 51 2 53
3 51 1 2
3 55 53 2
3 55 2 4
3 57 55 5
3 55 4 5
3 59 57 5
3 68 59 67
3 59 5 67
3 68 61 59
3 69 61 68
3 70 69 68
3 71 69 70
3 73 72 62
3 73 62 63
3 74 65 62
3 74 62 72
3 65 74 66
3 74 7 66
3 66 7 1
3 1 7 8
3 11 67 5
3 68 67 75
3 67 11 13
3 75 67 13
3 76 70 75
3 70 68 75
3 77 71 70
3 77 70 76
3 79 78 73
3 78 72 73
3 72 78 15
3 72 15 16
3 74 72 16
3 7 74 16
3 21 75 13
3 76 75 21
3 76 23 80
3 76 21 23
3 81 77 80
3 77 76 80
3 83 82 78
3 83 78 79
3 78 82 15
3 82 25 15
3 80 23 84
3 23 31 84
3 85 81 80
3 85 80 84
3 87 86 82
3 87 82 83
3 86 32 82
3 88 32 86
3 32 25 82
3 88 34 32
3 89 38 39
3 84 38 90
3 31 38 84
3 90 38 89
3 91 85 84
3 91 84 90
3 93 92 87
3 92 86 87
3 94 88 92
3 88 86 92
3 95 34 88
3 95 88 94
3 40 34 95
3 95 42 40
3 96 44 45
3 89 39 44
3 89 96 97
3 89 44 96
3 98 90 89
3 98 89 97
3 99 91 98
3 91 90 98
3 155 100 92
3 100 94 92
3 101 94 102
3 102 94 100
3 103 95 101
3 95 94 101
3 104 46 103
3 46 42 103
3 103 42 95
3 105 47 46
3 105 46 104
3 106 45 105
3 96 45 106
3 45 47 105
3 107 97 96
3 107 96 106
3 108 98 97
3 108 97 109
3 109 97 107
3 108 99 98
3 102 110 101
3 111 103 101
3 111 101 110
3 111 104 103
3 112 104 111
3 113 105 104
3 113 104 112
3 114 106 105
3 114 105 113
3 115 106 114
3 107 106 115
3 115 109 107
3 118 117 116
3 120 118 119
3 118 116 119
3 121 120 119
3 122 120 121
3 123 122 121
3 124 122 123
3 125 124 123
3 128 127 126
3 128 126 129
3 126 49 129
3 129 49 50
3 117 129 50
3 117 50 116
3 116 50 52
3 119 116 54
3 116 52 54
3 121 119 54
3 121 54 56
3 123 121 56
3 123 56 58
3 125 123 58
3 125 58 60
3 130 125 60
3 61 130 60
3 131 130 132
3 132 130 61
3 133 131 132
3 64 134 63
3 127 134 126
3 126 134 64
3 49 126 64
3 69 132 61
3 133 132 135
3 132 69 135
3 135 69 71
3 138 137 136
3 138 136 73
3 138 73 63
3 134 138 63
3 139 71 77
3 135 71 140
3 140 71 139
3 141 140 139
3 143 142 136
3 143 136 137
3 136 142 79
3 136 79 73
3 139 77 81
3 139 81 144
3 141 139 144
3 141 144 145
3 147 146 142
3 147 142 143
3 142 146 79
3 146 83 79
3 144 81 148
3 81 85 148
3 149 145 144
3 149 144 148
3 151 150 146
3 151 146 147
3 146 150 83
3 150 87 83
3 148 85 152
3 85 91 152
3 153 149 148
3 153 148 152
3 151 154 150
3 204 155 93
3 154 93 150
3 150 93 87
3 152 91 99
3 152 99 157
3 157 99 156
3 157 153 152
3 155 92 93
3 158 100 155
3 159 158 155
3 158 102 100
3 160 108 109
3 156 99 108
3 156 108 160
3 161 156 160
3 159 162 158
3 163 110 102
3 163 102 158
3 162 163 158
3 164 111 110
3 164 110 165
3 165 110 163
3 166 112 164
3 112 111 164
3 167 113 112
3 167 112 166
3 168 114 113
3 168 113 167
3 170 115 114
3 169 115 170
3 170 114 168
3 169 109 115
3 160 109 169
3 171 160 169
3 171 161 160
3 165 172 164
3 173 166 172
3 166 164 172
3 173 167 166
3 174 167 173
3 174 168 167
3 175 168 174
3 175 170 168
3 178 177 176
3 178 176 117
3 178 117 118
3 179 178 118
3 180 179 118
3 180 118 120
3 181 180 120
3 181 120 122
3 182 122 124
3 181 122 182
3 183 182 124
3 183 124 184
3 184 124 125
3 185 183 184
3 128 186 127
3 187 186 128
3 177 187 176
3 187 128 176
3 176 128 129
3 117 176 129
3 130 184 125
3 131 184 130
3 185 184 131
3 188 185 131
3 133 188 131
3 189 188 133
3 192 191 190
3 127 190 134
3 192 190 127
3 186 192 127
3 193 133 135
3 189 193 194
3 189 133 193
3 195 194 193
3 191 196 137
3 191 137 190
3 190 137 138
3 134 190 138
3 140 193 135
3 195 193 140
3 195 140 141
3 197 195 141
3 196 143 137
3 198 143 196
3 197 145 199
3 141 145 197
3 198 200 147
3 198 147 143
3 199 145 201
3 145 149 201
3 200 202 151
3 200 151 147
3 201 149 203
3 149 153 203
3 204 154 205
3 154 202 205
3 154 151 202
3 204 93 154
3 206 157 156
3 207 153 157
3 203 153 207
3 207 157 206
3 205 208 204
3 208 209 159
3 208 159 204
3 204 159 155
3 206 156 161
3 206 210 211
3 206 161 210
3 211 207 206
3 209 162 159
3 212 162 209
3 213 163 162
3 213 212 214
3 213 162 212
3 213 165 163
3 215 169 170
3 215 171 169
3 216 171 217
3 217 171 215
3 216 161 171
3 210 161 216
3 214 218 213
3 218 172 165
3 219 172 218
3 218 165 213
3 220 173 172
3 220 172 219
3 221 174 173
3 221 173 220
3 222 174 221
3 175 174 222
3 215 175 223
3 170 175 215
3 223 175 222
3 223 217 215
3 225 224 177
3 225 177 179
3 179 177 178
3 226 225 179
3 180 226 179
3 227 226 180
3 181 227 180
3 228 227 181
3 182 228 181
3 229 228 182
3 183 229 182
3 230 229 231
3 231 229 183
3 231 183 185
3 233 232 186
3 233 186 187
3 224 233 187
3 224 187 177
3 234 231 185
3 234 185 188
3 235 234 188
3 235 188 189
3 237 236 191
3 237 191 192
3 232 237 192
3 232 192 186
3 238 235 189
3 238 189 194
3 281 238 194
3 239 194 195
3 236 240 196
3 236 196 191
3 239 195 197
3 239 197 241
3 240 242 198
3 240 198 196
3 241 197 199
3 241 199 243
3 242 244 200
3 242 200 198
3 243 199 201
3 243 201 245
3 200 246 202
3 244 246 200
3 245 201 203
3 245 203 247
3 246 250 205
3 246 205 202
3 247 203 207
3 247 211 249
3 250 208 205
3 250 246 248
3 251 209 208
3 251 208 250
3 253 211 210
3 253 210 252
3 247 207 211
3 249 211 253
3 254 212 209
3 254 209 251
3 255 214 212
3 255 212 254
3 257 216 217
3 257 217 256
3 252 210 216
3 252 216 257
3 219 218 214
3 258 214 255
3 258 219 214
3 259 219 258
3 259 220 219
3 260 220 259
3 260 221 220
3 261 221 260
3 261 222 221
3 262 222 261
3 262 223 222
3 256 223 262
3 256 217 223
3 256 262 263
3 225 264 224
3 265 264 266
3 264 225 266
3 266 225 226
3 267 226 227
3 266 226 267
3 268 267 227
3 268 227 228
3 269 228 229
3 268 228 269
3 230 269 229
3 270 230 271
3 270 269 230
3 231 271 230
3 233 272 232
3 273 272 233
3 224 273 233
3 274 273 264
3 264 273 224
3 265 274 264
3 275 270 271
3 276 271 234
3 275 271 276
3 271 231 234
3 277 276 235
3 276 234 235
3 237 278 236
3 272 278 232
3 279 278 272
3 278 237 232
3 238 277 235
3 280 277 281
3 281 277 238
3 239 281 194
3 236 282 240
3 283 282 278
3 278 282 236
3 279 283 278
3 284 280 281
3 285 239 241
3 281 285 284
3 281 239 285
3 282 286 240
3 286 242 240
3 285 241 287
3 241 243 287
3 242 288 244
3 286 288 242
3 289 243 245
3 287 243 289
3 288 290 244
3 248 246 244
3 289 245 291
3 245 247 291
3 293 292 248
3 293 248 290
3 290 248 244
3 293 294 292
3 297 296 295
3 291 247 249
3 291 249 296
3 296 249 295
3 292 250 248
3 298 251 292
3 251 250 292
3 294 298 292
3 299 253 252
3 295 253 299
3 297 295 299
3 295 249 253
3 300 254 298
3 254 251 298
3 300 255 254
3 301 255 300
3 302 301 300
3 302 303 301
3 306 305 304
3 307 257 304
3 257 256 304
3 305 307 304
3 307 252 257
3 299 252 307
3 301 258 255
3 308 259 258
3 308 301 303
3 308 258 301
3 309 259 308
3 260 259 309
3 310 261 260
3 310 260 309
3 311 262 261
3 311 261 310
3 311 263 262
3 304 263 306
3 306 263 311
3 304 256 263
3 266 312 265
3 267 312 266
3 313 312 267
3 268 313 267
3 314 313 268
3 315 314 269
3 314 268 269
3 270 315 269
3 273 316 272
3 274 316 273
3 317 316 274
3 318 317 274
3 265 318 274
3 319 265 312
3 319 318 265
3 320 319 312
3 320 312 313
3 321 320 313
3 321 313 314
3 322 321 315
3 321 314 315
3 322 315 323
3 315 270 323
3 323 270 275
3 324 323 275
3 324 275 325
3 325 275 276
3 277 325 276
3 327 326 279
3 327 279 316
3 316 279 272
3 317 327 316
3 328 324 325
3 325 277 280
3 325 280 328
3 328 280 329
3 283 330 282
3 331 283 326
3 330 283 331
3 326 283 279
3 284 329 280
3 332 329 333
3 333 329 284
3 285 333 284
3 330 334 286
3 330 286 282
3 335 334 330
3 335 330 331
3 337 332 333
3 337 333 336
3 333 287 336
3 285 287 333
3 334 338 288
3 334 288 286
3 339 338 334
3 339 334 335
3 341 337 336
3 341 336 340
3 336 287 289
3 336 289 340
3 338 342 290
3 338 290 288
3 343 342 339
3 342 338 339
3 345 341 344
3 341 340 344
3 340 289 291
3 340 291 344
3 342 293 290
3 346 294 293
3 346 293 342
3 343 346 342
3 347 296 297
3 344 296 347
3 345 344 347
3 344 291 296
3 294 348 298
3 349 348 294
3 346 349 294
3 349 350 348
3 353 352 351
3 351 297 299
3 347 297 352
3 352 297 351
3 348 300 298
3 348 302 300
3 354 302 350
3 350 302 348
3 354 303 302
3 355 303 356
3 356 303 354
3 358 357 355
3 358 355 356
3 360 359 357
3 360 357 358
3 362 361 360
3 361 359 360
3 363 305 306
3 363 306 361
3 362 363 361
3 351 307 305
3 351 305 353
3 353 305 363
3 351 299 307
3 355 308 303
3 357 309 355
3 309 308 355
3 357 310 309
3 359 310 357
3 361 311 359
3 311 310 359
3 361 306 311
3 318 364 317
3 365 318 319
3 364 318 365
3 366 365 319
3 366 319 320
3 367 366 321
3 366 320 321
3 322 367 321
3 368 367 322
3 369 368 322
3 369 322 323
3 324 369 323
3 327 370 326
3 371 370 327
3 371 327 317
3 364 371 317
3 372 371 364
3 372 364 373
3 373 364 365
3 365 366 374
3 373 365 374
3 375 374 367
3 374 366 367
3 376 375 368
3 375 367 368
3 377 376 368
3 378 377 369
3 377 368 369
3 378 369 324
3 378 324 328
3 379 378 328
3 329 379 328
3 370 380 331
3 370 331 326
3 381 380 370
3 381 370 371
3 382 381 372
3 382 372 383
3 381 371 372
3 373 383 372
3 384 376 377
3 385 384 391
3 384 377 386
3 386 377 378
3 387 386 379
3 386 378 379
3 379 329 332
3 379 332 387
3 380 388 331
3 388 335 331
3 389 388 380
3 389 380 390
3 390 380 381
3 382 390 381
3 391 384 386
3 387 391 386
3 392 387 393
3 392 391 387
3 387 332 393
3 332 337 393
3 388 394 339
3 388 339 335
3 400 394 389
3 394 388 389
3 397 392 396
3 392 393 396
3 393 337 341
3 393 341 396
3 394 398 343
3 394 343 339
3 400 389 395
3 399 398 401
3 398 394 400
3 400 401 398
3 404 403 402
3 403 405 402
3 405 403 397
3 396 405 397
3 396 341 345
3 396 345 405
3 398 406 343
3 406 346 343
3 407 406 399
3 406 398 399
3 408 407 399
3 408 399 409
3 409 399 401
3 409 410 408
3 413 412 411
3 402 414 411
3 402 411 404
3 404 411 412
3 415 414 402
3 415 402 405
3 405 345 415
3 345 347 415
3 406 349 346
3 407 350 349
3 416 350 407
3 407 349 406
3 417 416 408
3 416 407 408
3 410 417 408
3 418 417 419
3 419 417 410
3 421 420 418
3 421 418 419
3 413 422 421
3 411 422 413
3 422 420 421
3 423 422 411
3 423 411 414
3 414 352 353
3 415 352 414
3 414 353 423
3 415 347 352
3 416 354 350
3 417 354 416
3 356 354 417
3 418 358 356
3 418 356 417
3 420 360 358
3 420 358 418
3 420 362 360
3 422 362 420
3 423 363 362
3 423 362 422
3 423 353 363
3 374 424 373
3 425 424 375
3 424 374 375
3 376 425 375
3 383 426 382
3 427 383 424
3 426 383 427
3 424 383 373
3 425 427 424
3 428 427 425
3 428 425 429
3 425 376 429
3 429 376 384
3 385 429 384
3 390 395 389
3 431 430 426
3 430 390 382
3 426 430 382
3 432 431 426
3 432 426 427
3 433 432 428
3 432 427 428
3 434 433 428
3 434 428 429
3 434 385 435
3 429 385 434
3 435 385 391
3 392 435 391
3 430 436 395
3 430 395 390
3 437 436 431
3 436 430 431
3 438 437 431
3 438 431 432
3 433 438 432
3 439 438 433
3 440 439 433
3 440 433 434
3 435 440 434
3 441 440 435
3 435 392 397
3 435 397 441
3 436 400 395
3 442 436 437
3 401 436 442
3 401 400 436
3 443 442 437
3 443 437 438
3 439 443 438
3 444 443 439
3 445 444 439
3 445 439 440
3 441 403 404
3 441 445 440
3 441 404 445
3 441 397 403
3 442 409 401
3 446 410 409
3 446 442 443
3 446 409 442
3 447 446 444
3 446 443 444
3 445 412 444
3 412 447 444
3 412 413 447
3 445 404 412
3 446 419 410
3 447 421 419
3 447 419 446
3 447 413 421
