ply
format ascii 1.0
element vertex 440
property float32 x
property float32 y
property float32 z
element face 876
property list uint8 int32 vertex_indices
end_header
-0.111131 -0.095436 -1.989877
-0.277086 -0.139954 -1.755859
-0.155739 -0.204860 -1.853553
0.030823 -0.042381 -2.043971
0.003668 -0.206953 -1.925978
0.142466 -0.124006 -1.947636
-0.117876 0.076427 -1.994930
-0.231824 -0.026775 -1.890301
0.049475 0.111874 -2.008863
0.189693 0.031233 -1.943775
-0.036909 0.219513 -1.905459
0.151058 0.187353 -1.879585
-0.177397 -0.289001 -1.692685
-0.197810 -0.352148 -1.517276
-0.038044 -0.372048 -1.604446
-0.016044 -0.302335 -1.771448
0.133333 -0.327236 -1.658229
0.147784 -0.239873 -1.811566
-0.304477 0.055638 -1.757724
-0.358250 -0.059832 -1.633154
-0.305042 -0.226296 -1.588365
0.261471 -0.093524 -1.818872
0.273739 -0.205906 -1.684582
0.368482 -0.143376 -1.543262
-0.198710 0.159540 -1.857588
-0.349665 0.132059 -1.605056
0.281047 0.077903 -1.793152
0.348196 -0.030041 -1.667797
-0.247701 0.229996 -1.695240
-0.104663 0.292984 -1.754444
-0.154730 0.349732 -1.581013
0.067928 0.292469 -1.776451
0.238679 0.222207 -1.722326
0.343155 0.139638 -1.613954
0.003975 0.368299 -1.619735
0.163918 0.325665 -1.629571
-0.330764 -0.284654 -1.408174
-0.397301 -0.139653 -1.461499
-0.218546 -0.398993 -1.337797
-0.059141 -0.426594 -1.428581
0.108774 -0.395818 -1.496448
0.243377 -0.372325 -1.376989
0.266946 -0.296969 -1.531412
0.375583 -0.232352 -1.388863
-0.410189 0.021838 -1.495588
0.435657 -0.072168 -1.389059
-0.397221 0.170816 -1.422520
0.408635 0.039707 -1.496239
-0.293636 0.278005 -1.515856
-0.335179 0.307851 -1.337094
0.290592 0.275729 -1.527526
0.390927 0.188793 -1.416294
-0.191892 0.391919 -1.408206
-0.022237 0.423202 -1.452467
0.143960 0.390441 -1.478115
0.278909 0.350338 -1.365606
-0.436054 -0.165696 -1.290445
-0.358596 -0.317868 -1.234725
-0.080034 -0.469034 -1.249946
0.087705 -0.450198 -1.322797
0.228800 -0.428444 -1.204613
0.358660 -0.311577 -1.253098
-0.455114 0.001868 -1.337029
0.462901 -0.120914 -1.238143
-0.445789 0.159946 -1.259649
0.460484 0.070893 -1.292805
-0.374224 0.318995 -1.175693
0.386947 0.271228 -1.264366
-0.226808 0.422136 -1.234684
-0.060434 0.462738 -1.289629
0.125779 0.442975 -1.315347
0.265303 0.410544 -1.189840
-0.099995 -0.501713 -1.072096
-0.257702 -0.459635 -0.981216
-0.119868 -0.526747 -0.892900
0.068332 -0.492705 -1.147372
0.048329 -0.526629 -0.969230
0.205604 -0.477204 -1.025953
-0.376480 -0.349798 -1.059031
-0.241056 -0.432092 -1.160626
0.336992 -0.386688 -1.064594
0.425616 -0.263438 -1.131384
-0.492072 -0.014557 -1.172932
-0.515670 -0.097568 -0.994489
-0.460747 -0.199217 -1.123941
0.506542 0.022953 -1.096917
0.492511 -0.142762 -1.065371
0.526515 -0.090954 -0.933466
-0.469530 0.187781 -1.104299
-0.516080 0.061573 -1.025210
0.464435 0.171459 -1.159197
0.536142 0.064876 -0.894044
-0.496302 0.204095 -0.917831
-0.408759 0.328416 -0.997377
0.393434 0.322424 -1.088158
0.489149 0.191917 -0.990544
-0.279130 0.429502 -1.068438
-0.102247 0.493465 -1.113568
-0.173403 0.501789 -0.955942
0.068906 0.489099 -1.164865
0.312785 0.423514 -0.984070
0.180560 0.481838 -1.055322
-0.073551 0.542660 -0.838481
0.024296 0.526988 -0.977428
-0.262529 -0.487227 -0.792429
-0.121547 -0.550116 -0.705882
0.029089 -0.551873 -0.799053
0.203386 -0.506122 -0.854774
-0.469166 -0.253705 -0.939788
-0.381312 -0.386841 -0.871603
0.339109 -0.422202 -0.883552
0.445984 -0.289099 -0.952129
-0.534920 -0.129794 -0.816595
-0.480094 -0.284118 -0.755396
0.505647 -0.214944 -0.824489
0.554156 -0.064164 -0.755462
-0.543640 0.040202 -0.857282
0.558741 0.083432 -0.691236
-0.527282 0.186441 -0.743107
-0.440677 0.331769 -0.807373
0.428520 0.328503 -0.894777
0.510985 0.211530 -0.795817
-0.323318 0.434611 -0.882419
-0.225113 0.509346 -0.763906
0.184914 0.509654 -0.878955
0.329272 0.444349 -0.795698
-0.087561 0.561347 -0.659848
0.066796 0.552042 -0.770746
-0.261769 -0.510137 -0.604496
-0.114123 -0.569145 -0.519313
0.031085 -0.571702 -0.613661
0.174324 -0.536278 -0.701046
-0.485989 -0.309909 -0.569987
-0.386506 -0.413078 -0.683849
0.322755 -0.464491 -0.684671
0.431695 -0.352518 -0.759910
-0.580279 -0.022239 -0.516269
-0.547701 -0.159376 -0.636400
0.522802 -0.223723 -0.654533
0.571280 -0.071498 -0.577678
-0.564889 0.008669 -0.691029
0.575755 0.083670 -0.501617
-0.555909 0.149269 -0.579264
-0.473012 0.320590 -0.625804
0.443758 0.347790 -0.701910
0.526368 0.228203 -0.600833
-0.359814 0.436218 -0.686140
-0.242970 0.521940 -0.577851
0.213621 0.523606 -0.685751
0.346833 0.457076 -0.600136
-0.089970 0.576113 -0.483737
0.068567 0.571098 -0.583921
-0.386092 -0.435646 -0.497409
-0.380390 -0.454879 -0.313432
-0.254409 -0.529391 -0.419287
-0.095276 -0.583927 -0.341348
0.056381 -0.583312 -0.440318
0.219188 -0.548267 -0.364657
0.204991 -0.541325 -0.540216
0.345435 -0.469573 -0.485884
-0.555013 -0.185489 -0.453238
-0.557457 -0.207548 -0.268788
-0.486723 -0.332368 -0.384539
0.445232 -0.364875 -0.578755
0.462641 -0.364435 -0.392319
0.536288 -0.229402 -0.480940
-0.589981 -0.048125 -0.335394
0.583858 -0.074417 -0.398544
-0.576461 0.117490 -0.403188
0.586958 0.083484 -0.315695
-0.513235 0.278473 -0.472015
-0.542191 0.242832 -0.287666
0.457027 0.359438 -0.506548
0.540087 0.232104 -0.411001
-0.454948 0.376634 -0.361638
-0.382870 0.438310 -0.499103
-0.354143 0.476678 -0.293696
0.218332 0.539594 -0.497686
0.352722 0.470410 -0.409137
0.465312 0.367251 -0.317571
-0.244160 0.535405 -0.400791
-0.089714 0.586551 -0.304342
0.068289 0.584544 -0.399629
0.219445 0.550981 -0.311092
-0.370345 -0.470461 -0.133461
-0.240506 -0.545209 -0.239768
-0.080770 -0.592651 -0.162349
0.071453 -0.590773 -0.262524
0.230482 -0.551343 -0.184508
0.359549 -0.472557 -0.294706
-0.555231 -0.226120 -0.083910
-0.482954 -0.351206 -0.200073
0.473845 -0.363090 -0.206590
0.548107 -0.227676 -0.301126
-0.594239 -0.070358 -0.150775
0.592117 -0.073470 -0.216587
-0.589789 0.089957 -0.218186
0.592625 0.085599 -0.131606
-0.552398 0.232158 -0.106698
0.547832 0.235706 -0.225159
-0.468311 0.371194 -0.184589
-0.361165 0.478158 -0.104745
0.355875 0.478700 -0.221921
0.468931 0.372331 -0.131834
-0.227684 0.551899 -0.204664
-0.081732 0.593476 -0.114425
0.068322 0.592789 -0.214809
0.219993 0.557024 -0.125170
-0.358947 -0.480625 0.044478
-0.227323 -0.554995 -0.060990
-0.067715 -0.596155 0.017863
0.083687 -0.593658 -0.082358
0.238052 -0.550767 -0.001330
0.368425 -0.472545 -0.106941
-0.549113 -0.240084 0.099556
-0.475167 -0.366340 -0.016948
0.479050 -0.361230 -0.020929
0.554783 -0.225881 -0.118776
-0.593907 -0.084844 0.032302
0.595619 -0.071776 -0.034089
-0.595035 0.076416 -0.035477
0.593401 0.087553 0.050950
-0.557366 0.221105 0.074054
0.550275 0.238884 -0.041165
-0.476713 0.364353 -0.007308
-0.368816 0.472708 0.079110
0.356304 0.482648 -0.036106
0.468298 0.374795 0.052819
-0.230896 0.553785 -0.016186
-0.084022 0.593717 0.072870
0.071357 0.595704 -0.026145
0.220089 0.557891 0.062273
-0.345728 -0.486155 0.219991
-0.213752 -0.559588 0.117725
-0.057422 -0.594355 0.201135
0.092199 -0.592149 0.100994
0.239272 -0.547568 0.185154
0.371481 -0.470599 0.080369
-0.536430 -0.255650 0.284049
-0.464275 -0.376969 0.166027
0.479023 -0.358093 0.164695
0.556456 -0.223635 0.064552
-0.588178 -0.100535 0.214998
0.594319 -0.070075 0.148537
-0.595198 0.062481 0.147012
0.589534 0.088601 0.232234
-0.558855 0.205116 0.256373
0.548145 0.240479 0.141825
-0.482515 0.353104 0.171307
-0.374006 0.462951 0.260611
0.354017 0.482446 0.150248
0.463806 0.374258 0.237587
-0.236394 0.549271 0.168633
-0.088149 0.588660 0.258667
0.068714 0.594195 0.161268
0.216187 0.554933 0.249558
-0.330986 -0.486961 0.394852
-0.201278 -0.558464 0.298513
-0.062181 -0.585687 0.391638
0.091682 -0.586893 0.289429
0.236865 -0.540432 0.372107
0.369904 -0.465908 0.267387
-0.507159 -0.289504 0.471184
-0.446191 -0.387710 0.352232
0.474212 -0.352986 0.351018
0.553124 -0.220864 0.248625
-0.574919 -0.126324 0.397620
0.588126 -0.068733 0.331473
-0.590673 0.042260 0.330328
0.581109 0.088334 0.412075
-0.555414 0.187126 0.439400
0.541598 0.240171 0.324451
-0.484661 0.338626 0.349529
-0.375653 0.449779 0.440520
0.348023 0.478725 0.337051
0.455187 0.370836 0.422950
-0.239908 0.540242 0.351988
-0.090132 0.578788 0.444448
0.064854 0.587722 0.348547
0.211196 0.546810 0.438030
-0.217118 -0.540752 0.489101
-0.239347 -0.516075 0.652314
-0.071636 -0.571493 0.575020
0.087994 -0.576919 0.476710
0.232065 -0.528597 0.559214
0.364911 -0.457315 0.455153
-0.384928 -0.431783 0.544988
-0.479158 -0.309097 0.638614
-0.361240 -0.429105 0.728508
0.359484 -0.441935 0.644084
0.465986 -0.343495 0.539402
0.458913 -0.321896 0.731761
-0.580621 0.023969 0.510831
-0.557928 -0.144792 0.569753
0.532365 -0.208369 0.622923
0.544862 -0.216860 0.434039
-0.564933 0.008332 0.690647
0.576821 -0.067519 0.515576
-0.482690 0.321430 0.526476
-0.546244 0.167622 0.626185
-0.476219 0.302163 0.700151
0.530688 0.237484 0.507025
0.568155 0.086321 0.589927
0.444357 0.361518 0.610419
-0.240056 0.527214 0.534482
-0.372901 0.433813 0.618951
-0.234182 0.511151 0.716445
0.340082 0.469773 0.526107
0.336244 0.450247 0.719164
0.207927 0.531825 0.629982
-0.088744 0.564051 0.630383
0.063584 0.575572 0.537275
-0.226643 -0.498318 0.839874
-0.086277 -0.551498 0.752438
0.077658 -0.562627 0.661600
0.220535 -0.514046 0.742390
-0.452440 -0.314286 0.813076
-0.343779 -0.411434 0.921059
0.346032 -0.426214 0.827901
0.440304 -0.307151 0.916317
-0.536145 -0.163070 0.733144
-0.510945 -0.173770 0.896635
0.520898 -0.176432 0.820319
0.559966 -0.064088 0.703677
-0.544075 -0.014625 0.863608
0.550759 0.080101 0.766642
-0.529045 0.149678 0.821546
-0.458464 0.293212 0.864066
0.440298 0.333193 0.802919
0.516578 0.228650 0.691401
-0.361087 0.419030 0.794954
-0.236248 0.484087 0.903817
0.203510 0.510737 0.821709
0.331344 0.423750 0.908978
-0.090502 0.542513 0.819986
0.060744 0.557667 0.728050
-0.211744 -0.472686 1.035750
-0.082550 -0.526254 0.944280
0.064318 -0.542893 0.845550
0.207629 -0.493909 0.923633
-0.440862 -0.284041 0.996805
-0.341240 -0.373055 1.104870
0.194482 -0.466841 1.104095
0.331411 -0.402857 1.013750
-0.507781 -0.096979 1.041501
-0.448144 -0.214725 1.149840
0.495186 -0.170258 1.001736
0.538260 -0.013247 0.905423
-0.516762 0.074329 1.011196
0.500694 0.126731 1.044262
-0.470233 0.227044 1.010607
-0.382627 0.319000 1.143609
0.434169 0.297389 0.985576
0.509774 0.182929 0.882999
-0.363510 0.381911 0.979313
-0.246310 0.444961 1.088638
0.201463 0.481430 1.012377
0.332315 0.383343 1.095458
-0.097447 0.513281 1.008960
0.056998 0.533329 0.919618
-0.060851 -0.493876 1.146394
0.060052 -0.513951 1.038674
-0.354014 -0.312173 1.266754
-0.214434 -0.432735 1.217515
-0.063884 -0.453852 1.324145
0.103797 -0.465304 1.245773
0.292624 -0.388082 1.203041
0.415240 -0.286734 1.110012
-0.489215 -0.012716 1.187111
-0.445353 -0.137527 1.291986
0.467229 -0.139925 1.195024
0.509232 -0.025387 1.081639
-0.465291 0.157005 1.178947
-0.447145 0.070651 1.346600
0.436748 0.235011 1.154710
0.476647 0.052407 1.233254
-0.387483 0.250771 1.310974
0.327565 0.339011 1.269323
-0.266134 0.392432 1.257247
-0.106806 0.476238 1.193413
-0.120327 0.431635 1.364492
0.050444 0.502569 1.107485
0.048649 0.463835 1.290851
0.197493 0.445760 1.195894
-0.354283 -0.248485 1.421282
-0.226820 -0.380171 1.384950
-0.090519 -0.399693 1.498618
0.081292 -0.422915 1.428639
0.240806 -0.379184 1.360261
0.382955 -0.265463 1.292592
-0.422064 -0.081682 1.431333
0.439949 -0.094729 1.356992
-0.396157 0.027959 1.538013
0.427084 0.074359 1.418503
-0.372435 0.188231 1.474267
0.416615 0.196520 1.314755
-0.269327 0.338380 1.422183
-0.120947 0.379168 1.535438
0.037639 0.419520 1.461229
0.204617 0.395443 1.375336
-0.245968 -0.306304 1.550874
-0.131002 -0.233251 1.836621
-0.119776 -0.328277 1.667909
0.050275 -0.370712 1.604130
0.216709 -0.336386 1.528854
0.349119 -0.239759 1.453360
-0.350750 -0.156209 1.576659
-0.253561 -0.211359 1.713378
0.309925 -0.195734 1.624377
0.394177 -0.073908 1.526113
-0.331469 -0.040684 1.704618
0.371030 0.107671 1.569862
-0.258640 0.280074 1.584393
-0.331821 0.127051 1.653371
-0.230043 0.215581 1.745772
0.334503 0.263040 1.446428
0.284350 0.240469 1.608794
0.184812 0.351363 1.538434
-0.109473 0.315004 1.705716
0.036308 0.359839 1.637166
0.012204 -0.300808 1.774871
0.180221 -0.286499 1.694176
-0.241481 -0.089776 1.853083
-0.130127 -0.101367 1.972914
0.002601 -0.188044 1.948557
0.134544 -0.222140 1.849711
0.339364 -0.020561 1.690616
0.258846 -0.136872 1.790937
-0.260610 0.073415 1.831082
-0.153171 0.059774 1.973387
0.283374 0.138324 1.745612
0.251292 0.018587 1.862155
0.018159 0.275666 1.821417
-0.129054 0.206445 1.875372
0.163296 0.282252 1.722357
0.159944 0.184833 1.873881
-0.001537 -0.019636 2.050637
0.150180 -0.094497 1.960187
-0.001603 0.159166 1.978425
0.130898 0.064494 1.990388
3 2 7 0
3 4 2 0
3 4 0 3
3 5 4 3
3 7 6 0
3 7 2 1
3 6 3 0
3 8 3 6
3 9 5 3
3 9 3 8
3 24 10 6
3 10 8 6
3 11 8 10
3 11 9 8
3 14 13 12
3 15 14 12
3 16 14 15
3 17 16 15
3 20 19 1
3 19 18 1
3 20 1 12
3 12 1 2
3 13 20 12
3 15 12 2
3 15 2 4
3 17 15 4
3 17 21 22
3 17 4 5
3 17 5 21
3 23 22 27
3 28 24 18
3 25 18 19
3 18 24 7
3 18 7 1
3 21 5 9
3 21 9 26
3 27 22 21
3 27 21 26
3 25 28 18
3 24 6 7
3 29 10 24
3 28 29 24
3 30 29 28
3 31 11 10
3 31 10 29
3 26 9 11
3 26 11 32
3 32 11 31
3 33 26 32
3 33 27 26
3 30 34 29
3 34 31 29
3 35 31 34
3 35 32 31
3 56 37 36
3 38 36 13
3 38 13 39
3 39 13 14
3 40 39 14
3 40 14 16
3 42 40 16
3 41 40 42
3 42 16 22
3 43 41 42
3 37 44 19
3 37 20 36
3 37 19 20
3 13 36 20
3 22 16 17
3 43 42 23
3 43 23 45
3 42 22 23
3 44 46 25
3 44 25 19
3 45 23 47
3 23 27 47
3 48 25 46
3 28 25 48
3 49 48 46
3 48 30 28
3 50 33 32
3 47 27 33
3 47 33 51
3 51 33 50
3 49 52 48
3 53 30 52
3 34 30 53
3 52 30 48
3 54 35 34
3 54 34 53
3 50 32 35
3 50 35 54
3 55 50 54
3 55 51 50
3 57 56 36
3 57 36 38
3 79 57 38
3 58 38 39
3 59 58 39
3 59 39 40
3 60 59 41
3 59 40 41
3 61 60 41
3 61 41 43
3 56 62 37
3 62 44 37
3 61 43 63
3 43 45 63
3 62 64 46
3 62 46 44
3 65 45 47
3 63 45 65
3 64 66 49
3 64 49 46
3 65 47 51
3 65 51 67
3 68 52 49
3 68 49 66
3 69 53 52
3 69 52 68
3 70 54 53
3 70 53 69
3 71 55 70
3 55 54 70
3 67 51 55
3 67 55 71
3 74 73 72
3 76 72 75
3 74 72 76
3 77 76 75
3 79 78 57
3 84 56 57
3 73 79 72
3 79 58 72
3 79 38 58
3 75 72 58
3 75 58 59
3 60 75 59
3 77 60 80
3 77 75 60
3 81 80 61
3 80 60 61
3 84 83 82
3 56 82 62
3 84 57 78
3 84 82 56
3 81 61 63
3 81 63 86
3 86 63 85
3 87 86 85
3 89 88 82
3 89 82 83
3 82 88 64
3 82 64 62
3 85 63 65
3 85 65 90
3 91 85 95
3 87 85 91
3 89 92 88
3 92 93 88
3 93 66 88
3 88 66 64
3 90 65 67
3 90 94 95
3 90 67 94
3 95 85 90
3 96 66 93
3 68 66 96
3 97 69 68
3 97 96 98
3 97 68 96
3 99 70 69
3 99 69 97
3 99 71 70
3 100 71 101
3 101 71 99
3 94 67 71
3 94 71 100
3 98 103 97
3 103 98 102
3 99 97 103
3 103 101 99
3 105 104 74
3 109 73 104
3 106 105 74
3 106 74 76
3 107 106 76
3 107 76 77
3 109 108 78
3 109 78 73
3 104 73 74
3 78 79 73
3 110 107 77
3 110 77 80
3 111 110 80
3 111 80 81
3 113 112 108
3 112 83 108
3 108 83 84
3 108 84 78
3 114 111 87
3 111 81 86
3 115 114 87
3 111 86 87
3 116 89 83
3 116 83 112
3 115 87 91
3 115 91 117
3 118 92 116
3 92 89 116
3 119 93 92
3 119 92 118
3 121 95 120
3 95 94 120
3 117 91 121
3 91 95 121
3 122 96 93
3 122 93 119
3 123 98 122
3 98 96 122
3 125 100 124
3 100 101 124
3 120 94 100
3 120 100 125
3 126 102 123
3 102 98 123
3 127 103 102
3 127 102 126
3 124 101 103
3 124 103 127
3 129 128 105
3 128 104 105
3 130 129 105
3 130 105 106
3 131 130 106
3 131 106 107
3 133 113 109
3 113 108 109
3 128 133 104
3 133 109 104
3 134 131 107
3 134 107 110
3 135 134 110
3 135 110 111
3 137 140 112
3 137 112 113
3 132 137 113
3 132 113 133
3 138 135 114
3 135 111 114
3 139 138 115
3 138 114 115
3 112 140 116
3 136 140 137
3 139 115 117
3 139 117 141
3 142 118 140
3 118 116 140
3 143 119 118
3 143 118 142
3 145 121 144
3 121 120 144
3 141 117 145
3 117 121 145
3 146 122 119
3 146 119 143
3 147 123 146
3 123 122 146
3 149 125 148
3 125 124 148
3 144 120 125
3 144 125 149
3 150 126 147
3 126 123 147
3 151 127 126
3 151 126 150
3 148 124 127
3 148 127 151
3 154 153 152
3 154 152 128
3 154 129 155
3 154 128 129
3 156 155 129
3 156 129 130
3 158 130 131
3 157 156 158
3 156 130 158
3 159 157 158
3 162 161 160
3 162 160 132
3 162 132 152
3 152 132 133
3 153 162 152
3 128 152 133
3 134 158 131
3 159 158 134
3 159 134 163
3 163 134 135
3 164 159 163
3 165 164 163
3 166 136 160
3 136 137 160
3 166 160 161
3 132 160 137
3 138 163 135
3 165 163 138
3 165 139 167
3 165 138 139
3 136 142 140
3 166 168 136
3 167 139 141
3 167 141 169
3 170 168 171
3 142 136 168
3 170 142 168
3 170 143 142
3 172 145 144
3 169 141 173
3 141 145 173
3 173 145 172
3 171 174 170
3 175 146 143
3 175 143 170
3 174 175 170
3 176 175 174
3 175 147 146
3 177 149 148
3 172 144 149
3 172 149 178
3 178 149 177
3 179 172 178
3 179 173 172
3 176 180 175
3 181 150 180
3 150 147 180
3 180 147 175
3 182 151 150
3 182 150 181
3 177 151 182
3 148 151 177
3 183 177 182
3 183 178 177
3 185 184 153
3 185 153 154
3 186 185 155
3 185 154 155
3 187 186 155
3 187 155 156
3 157 187 156
3 188 187 157
3 189 188 157
3 189 157 159
3 191 190 161
3 191 161 162
3 153 191 162
3 184 191 153
3 164 189 159
3 192 189 164
3 193 192 164
3 193 164 165
3 161 194 166
3 190 194 161
3 193 165 167
3 193 167 195
3 166 196 168
3 194 196 166
3 195 167 169
3 195 169 197
3 196 198 171
3 196 171 168
3 197 169 199
3 169 173 199
3 200 174 171
3 200 171 198
3 200 176 174
3 201 176 200
3 202 179 178
3 203 179 202
3 199 173 179
3 199 179 203
3 204 180 176
3 204 176 201
3 205 181 204
3 181 180 204
3 206 182 181
3 206 181 205
3 206 183 182
3 207 183 206
3 202 178 183
3 202 183 207
3 209 208 184
3 209 184 185
3 186 209 185
3 210 209 186
3 211 210 186
3 211 186 187
3 188 211 187
3 212 211 188
3 213 212 188
3 213 188 189
3 215 214 190
3 215 190 191
3 184 215 191
3 208 215 184
3 192 213 189
3 216 213 192
3 217 216 192
3 217 192 193
3 190 218 194
3 214 218 190
3 217 193 195
3 217 195 219
3 194 220 196
3 218 220 194
3 219 195 197
3 219 197 221
3 220 222 198
3 220 198 196
3 223 197 199
3 221 197 223
3 224 200 198
3 224 198 222
3 224 201 200
3 225 201 224
3 226 203 202
3 227 203 226
3 223 199 203
3 223 203 227
3 228 204 201
3 228 201 225
3 228 205 204
3 229 205 228
3 230 206 205
3 230 205 229
3 230 207 206
3 231 207 230
3 226 202 207
3 226 207 231
3 233 232 208
3 233 208 209
3 210 233 209
3 234 233 210
3 235 234 210
3 235 210 211
3 212 235 211
3 236 235 212
3 237 236 212
3 237 212 213
3 239 238 214
3 239 214 215
3 208 239 215
3 232 239 208
3 216 237 213
3 240 237 216
3 241 240 216
3 241 216 217
3 214 242 218
3 238 242 214
3 241 217 219
3 241 219 243
3 218 244 220
3 242 244 218
3 243 219 221
3 243 221 245
3 244 246 222
3 244 222 220
3 247 221 223
3 245 221 247
3 248 224 222
3 248 222 246
3 248 225 224
3 249 225 248
3 250 227 226
3 251 227 250
3 247 223 227
3 247 227 251
3 252 228 225
3 252 225 249
3 252 229 228
3 253 229 252
3 254 230 229
3 254 229 253
3 254 231 230
3 255 231 254
3 250 226 231
3 250 231 255
3 257 256 232
3 257 232 233
3 234 257 233
3 258 257 234
3 259 258 234
3 259 234 235
3 260 259 236
3 259 235 236
3 261 260 236
3 261 236 237
3 263 262 238
3 263 238 239
3 232 263 239
3 256 263 232
3 240 261 237
3 264 261 240
3 265 264 240
3 265 240 241
3 262 266 238
3 266 242 238
3 265 241 243
3 265 243 267
3 242 268 244
3 266 268 242
3 267 243 245
3 267 245 269
3 268 270 246
3 268 246 244
3 271 245 247
3 269 245 271
3 272 248 246
3 272 246 270
3 272 249 248
3 273 249 272
3 274 251 250
3 275 251 274
3 271 247 251
3 271 251 275
3 276 252 249
3 276 249 273
3 276 253 252
3 277 253 276
3 278 254 253
3 278 253 277
3 279 255 278
3 255 254 278
3 274 250 255
3 274 255 279
3 257 280 256
3 258 280 257
3 280 258 282
3 281 280 282
3 283 282 258
3 283 258 259
3 284 260 285
3 283 260 284
3 283 259 260
3 261 285 260
3 263 286 262
3 256 286 263
3 287 286 288
3 280 286 256
3 288 286 281
3 281 286 280
3 289 284 285
3 264 285 261
3 289 290 291
3 290 285 264
3 289 285 290
3 295 290 264
3 293 262 287
3 266 262 293
3 292 266 293
3 287 262 286
3 294 291 290
3 290 295 294
3 265 295 264
3 265 267 295
3 292 270 268
3 292 268 266
3 295 267 297
3 267 269 297
3 299 298 270
3 270 292 299
3 299 292 296
3 299 300 298
3 329 302 301
3 302 269 301
3 297 269 302
3 269 271 301
3 298 272 270
3 298 273 272
3 304 273 305
3 305 273 298
3 305 298 300
3 305 306 304
3 309 308 307
3 307 275 274
3 301 275 303
3 303 275 307
3 303 307 308
3 301 271 275
3 304 276 273
3 304 277 276
3 310 304 306
3 310 277 304
3 311 278 277
3 311 277 310
3 307 279 309
3 279 311 309
3 279 278 311
3 307 274 279
3 313 312 281
3 313 281 282
3 314 313 282
3 314 282 283
3 315 314 284
3 314 283 284
3 288 316 287
3 317 316 288
3 312 317 288
3 312 288 281
3 318 315 289
3 315 284 289
3 319 318 291
3 318 289 291
3 321 320 316
3 296 292 293
3 316 320 287
3 320 293 287
3 322 319 291
3 322 291 294
3 323 322 294
3 323 294 297
3 320 324 296
3 320 296 293
3 294 295 297
3 323 302 325
3 326 296 324
3 299 296 326
3 327 300 326
3 300 299 326
3 329 301 303
3 329 303 328
3 323 297 302
3 325 302 329
3 330 305 300
3 330 300 327
3 331 306 330
3 306 305 330
3 333 308 332
3 308 309 332
3 328 303 308
3 328 308 333
3 334 310 306
3 334 306 331
3 335 311 310
3 335 310 334
3 332 309 335
3 309 311 335
3 337 336 312
3 337 312 313
3 338 337 313
3 338 313 314
3 339 338 315
3 338 314 315
3 317 340 316
3 341 340 317
3 336 341 317
3 336 317 312
3 342 339 343
3 339 315 318
3 343 339 318
3 343 318 319
3 345 344 340
3 324 320 321
3 340 321 316
3 344 321 340
3 367 343 319
3 346 319 322
3 347 346 322
3 347 322 323
3 344 348 324
3 344 324 321
3 347 323 325
3 347 353 349
3 350 326 348
3 326 324 348
3 354 327 350
3 327 326 350
3 353 329 328
3 353 328 352
3 347 325 353
3 325 329 353
3 354 330 327
3 354 350 351
3 355 331 354
3 331 330 354
3 357 333 356
3 333 332 356
3 352 328 333
3 352 333 357
3 358 334 331
3 358 331 355
3 359 335 334
3 359 334 358
3 356 332 359
3 332 335 359
3 337 360 336
3 361 337 338
3 360 337 361
3 339 361 338
3 363 362 341
3 345 340 341
3 360 363 336
3 364 363 360
3 363 341 336
3 365 364 360
3 365 360 361
3 365 361 342
3 365 342 366
3 361 339 342
3 367 366 343
3 366 342 343
3 345 368 344
3 369 368 345
3 369 345 362
3 362 345 341
3 370 367 346
3 370 346 371
3 367 319 346
3 347 371 346
3 368 372 348
3 368 348 344
3 373 372 368
3 373 368 369
3 375 370 371
3 375 349 374
3 371 347 349
3 371 349 375
3 372 350 348
3 376 351 372
3 351 350 372
3 373 376 372
3 374 357 377
3 353 352 349
3 375 374 395
3 374 349 352
3 355 354 351
3 378 351 376
3 379 355 378
3 355 351 378
3 380 379 378
3 382 381 379
3 382 379 380
3 383 357 356
3 383 356 381
3 382 383 381
3 377 357 383
3 352 357 374
3 379 358 355
3 381 358 379
3 359 358 381
3 381 356 359
3 385 384 362
3 385 362 363
3 386 385 364
3 385 363 364
3 387 386 364
3 387 364 365
3 388 387 365
3 388 365 366
3 389 388 366
3 389 366 367
3 384 390 369
3 384 369 362
3 389 367 370
3 389 370 391
3 390 392 373
3 390 373 369
3 391 370 375
3 391 375 393
3 392 394 373
3 394 376 373
3 393 375 395
3 374 377 395
3 396 378 376
3 396 376 394
3 397 380 396
3 380 378 396
3 398 382 380
3 398 380 397
3 399 383 382
3 399 382 398
3 395 377 415
3 377 383 399
3 385 400 384
3 386 400 385
3 407 400 402
3 402 400 386
3 403 402 386
3 403 386 387
3 404 403 387
3 404 388 405
3 404 387 388
3 389 405 388
3 407 406 400
3 406 384 400
3 406 390 384
3 401 407 402
3 408 404 405
3 405 389 391
3 405 409 408
3 405 391 409
3 406 392 390
3 410 392 406
3 409 391 393
3 409 393 411
3 413 412 394
3 413 394 392
3 410 413 392
3 413 414 412
3 417 416 415
3 415 393 395
3 411 415 416
3 411 393 415
3 412 396 394
3 412 397 396
3 418 412 414
3 418 397 412
3 419 398 397
3 419 397 418
3 415 399 417
3 398 419 417
3 399 398 417
3 415 377 399
3 402 420 401
3 403 420 402
3 421 420 403
3 404 421 403
3 407 410 406
3 423 422 401
3 423 401 424
3 422 407 401
3 424 401 420
3 425 424 420
3 425 420 421
3 408 421 404
3 425 421 427
3 427 421 408
3 427 408 426
3 409 426 408
3 422 428 410
3 422 410 407
3 429 428 422
3 429 422 423
3 431 427 426
3 431 426 430
3 426 409 411
3 411 416 430
3 428 413 410
3 428 414 413
3 418 414 433
3 433 414 428
3 433 428 429
3 435 434 432
3 435 432 438
3 434 416 417
3 430 416 434
3 435 430 434
3 431 430 435
3 426 411 430
3 432 418 433
3 432 419 418
3 434 419 432
3 434 417 419
3 424 436 423
3 437 436 424
3 437 424 425
3 427 437 425
3 436 438 429
3 436 429 423
3 439 438 436
3 439 436 437
3 437 427 431
3 437 431 439
3 438 433 429
3 438 432 433
3 439 435 438
3 439 431 435
