ply
format ascii 1.0
element vertex 480
property float32 x
property float32 y
property float32 z
element face 956
property list uint8 int32 vertex_indices
end_header
-0.234237 -0.184379 -0.954535
-0.367754 -0.285950 -0.884867
-0.206845 -0.352654 -0.912606
-0.079022 -0.235169 -0.968737
-0.042877 -0.401383 -0.914906
0.075516 -0.279592 -0.957145
0.124861 -0.439239 -0.889651
0.233337 -0.169094 -0.957581
0.226529 -0.319901 -0.919972
0.377045 -0.262427 -0.888239
-0.233398 -0.014467 -0.972274
-0.379378 -0.105316 -0.919228
-0.080528 -0.069504 -0.994326
0.076582 -0.118842 -0.989955
0.236824 -0.011583 -0.971483
0.387772 -0.097930 -0.916539
-0.229253 0.149966 -0.961745
-0.380500 0.069766 -0.922146
-0.076310 0.098739 -0.992183
0.079403 0.045168 -0.995819
0.233126 0.152278 -0.960450
0.386462 0.070444 -0.919611
-0.224360 0.307612 -0.924683
-0.372704 0.237955 -0.896922
-0.077182 0.266961 -0.960612
0.076442 0.212565 -0.974152
0.210254 0.319928 -0.923818
0.370243 0.241764 -0.896923
-0.321907 0.407466 -0.854604
-0.129807 0.433790 -0.891614
0.043547 0.381518 -0.923335
0.346071 0.406729 -0.845463
-0.075320 -0.658109 -0.749146
-0.242369 -0.619255 -0.746847
-0.168174 -0.750973 -0.638559
0.104070 -0.665339 -0.739252
0.005473 -0.770176 -0.637808
0.180249 -0.758459 -0.626299
-0.511635 -0.287078 -0.809825
-0.553863 -0.507844 -0.659795
-0.456168 -0.427167 -0.780666
-0.308030 -0.461850 -0.831753
-0.397824 -0.573532 -0.716099
-0.147223 -0.516031 -0.843823
0.022297 -0.550810 -0.834333
0.289925 -0.650832 -0.701684
0.210345 -0.553395 -0.805921
0.312893 -0.428499 -0.847636
0.394122 -0.526573 -0.753252
0.552288 -0.469849 -0.688636
-0.513788 -0.142605 -0.845982
-0.614709 -0.359842 -0.701888
0.518564 -0.198318 -0.831722
0.472199 -0.370848 -0.799688
-0.648990 -0.037576 -0.759868
-0.761302 -0.089812 -0.642147
-0.645595 -0.195594 -0.738207
-0.518553 0.017168 -0.854873
0.526948 -0.026296 -0.849491
0.614241 -0.304864 -0.727850
0.647031 -0.129678 -0.751355
0.758560 -0.059338 -0.648895
-0.643199 0.120437 -0.756168
-0.763087 0.068516 -0.642654
-0.513358 0.181831 -0.838690
0.517590 0.148078 -0.842718
0.648634 0.045382 -0.759747
0.751661 0.115084 -0.649431
-0.739680 0.219164 -0.636270
-0.476936 0.347754 -0.807217
-0.619786 0.285418 -0.731028
0.496102 0.320317 -0.807019
0.726404 0.288784 -0.623652
0.632196 0.220659 -0.742723
-0.434935 0.500684 -0.748430
-0.582236 0.433632 -0.687724
-0.270003 0.539466 -0.797543
-0.116101 0.570270 -0.813211
0.031266 0.528358 -0.848446
0.188926 0.476603 -0.858578
0.459118 0.486426 -0.743371
0.601431 0.393157 -0.695491
-0.516113 0.588643 -0.622195
-0.359391 0.638392 -0.680657
-0.014472 0.674069 -0.738526
-0.193416 0.675602 -0.711443
0.144967 0.627581 -0.764936
0.305180 0.565548 -0.766173
0.248067 0.708673 -0.660489
0.555421 0.553579 -0.620531
-0.095010 0.777424 -0.621759
0.085966 0.760660 -0.643433
-0.487272 -0.647697 -0.585709
-0.567479 -0.695724 -0.440381
-0.418648 -0.771300 -0.479407
-0.331129 -0.710145 -0.621327
-0.256708 -0.824248 -0.504695
-0.086040 -0.853273 -0.514318
0.086018 -0.857772 -0.506782
0.244917 -0.833256 -0.495682
0.357572 -0.734328 -0.576979
0.464546 -0.615462 -0.636713
0.383512 -0.819291 -0.426241
0.508779 -0.702826 -0.497172
-0.699518 -0.422775 -0.576138
-0.765396 -0.478713 -0.430121
-0.636122 -0.567969 -0.522264
0.687795 -0.405022 -0.602408
0.611030 -0.563248 -0.556232
0.738054 -0.493645 -0.459990
-0.742349 -0.258460 -0.618155
-0.814346 -0.318936 -0.484892
0.737392 -0.234698 -0.633379
0.802857 -0.330117 -0.496430
-0.844559 -0.142595 -0.516127
0.840417 -0.159848 -0.517830
-0.855089 0.031646 -0.517515
0.849788 0.013557 -0.526949
-0.723039 0.363079 -0.587697
-0.836483 0.206129 -0.507747
0.798674 0.353262 -0.487161
0.833289 0.183744 -0.521408
-0.648225 0.514259 -0.561553
-0.818576 0.358867 -0.448495
0.688324 0.456342 -0.563881
0.845282 0.414936 -0.336641
-0.745329 0.493216 -0.448578
-0.446001 0.711446 -0.543072
-0.605230 0.643869 -0.468114
-0.274281 0.757991 -0.591793
0.406913 0.639032 -0.652733
0.497524 0.694152 -0.520215
0.638668 0.603471 -0.477417
0.754174 0.513675 -0.409096
-0.509451 0.763805 -0.396309
-0.344264 0.819285 -0.458536
0.005888 0.856166 -0.516668
0.184906 0.829352 -0.527243
0.342299 0.770433 -0.537833
0.430163 0.808602 -0.401401
-0.343013 -0.868931 -0.356791
-0.441726 -0.875658 -0.195192
-0.268389 -0.935773 -0.228682
-0.168836 -0.910726 -0.376926
-0.087835 -0.966489 -0.241212
0.016103 -0.925459 -0.378504
0.088178 -0.968347 -0.233513
0.206637 -0.908607 -0.362952
0.253053 -0.945108 -0.206724
0.383112 -0.878162 -0.286454
-0.630583 -0.722984 -0.282238
-0.498914 -0.804878 -0.321335
0.530040 -0.773313 -0.347914
0.646762 -0.643529 -0.409352
-0.814563 -0.524496 -0.247775
-0.706335 -0.606685 -0.364723
0.764785 -0.567206 -0.305582
0.858506 -0.477582 -0.186769
-0.899252 -0.216652 -0.380009
-0.926623 -0.293354 -0.235189
-0.858275 -0.390541 -0.332929
0.895401 -0.248464 -0.369489
0.843367 -0.411534 -0.345503
0.923426 -0.321768 -0.209165
-0.922907 -0.046157 -0.382247
-0.962522 -0.135284 -0.235053
0.919411 -0.078691 -0.385346
0.960500 -0.153810 -0.231910
-0.917874 0.126374 -0.376214
-0.972715 0.028060 -0.230302
0.917986 0.088415 -0.386633
0.971855 0.012190 -0.235263
-0.895338 0.292586 -0.335803
-0.958021 0.190564 -0.214198
0.890809 0.250863 -0.378849
0.956665 0.174951 -0.232773
-0.915200 0.362009 -0.177084
-0.835426 0.466642 -0.290360
0.822410 0.524101 -0.221268
0.913823 0.335279 -0.229162
-0.721524 0.597279 -0.350230
-0.631859 0.717142 -0.294043
0.587092 0.719083 -0.371809
0.715321 0.630342 -0.301638
-0.522675 0.824174 -0.218054
-0.174007 0.855552 -0.487598
-0.403441 0.860043 -0.312348
-0.074766 0.924798 -0.373040
0.103017 0.913013 -0.394709
0.281628 0.876280 -0.390920
0.509946 0.818340 -0.265095
0.374526 0.896769 -0.235658
-0.251197 0.908008 -0.335294
-0.165748 0.961074 -0.221055
0.018332 0.969498 -0.244411
0.194285 0.945484 -0.261370
-0.349537 -0.934034 -0.073518
-0.176259 -0.979887 -0.093560
-0.011605 -0.996402 -0.083952
0.142683 -0.987640 -0.064870
0.290857 -0.955735 -0.044417
0.414207 -0.902154 -0.120628
-0.740027 -0.645259 -0.189738
-0.720854 -0.690800 -0.056248
-0.599473 -0.786888 -0.146422
-0.511792 -0.858523 -0.031724
0.535142 -0.822259 -0.193686
0.648792 -0.756019 -0.086623
0.661313 -0.706402 -0.252312
0.766333 -0.626293 -0.143144
-0.833102 -0.550702 -0.051658
0.848669 -0.528241 -0.026862
-0.961427 -0.260405 -0.088585
-0.893119 -0.425779 -0.145088
0.923230 -0.382030 -0.041213
0.973874 -0.214544 -0.074438
-0.992509 -0.092196 -0.080162
0.995832 -0.048924 -0.076975
-0.994862 0.075213 -0.067774
0.990751 0.113256 -0.074741
-0.968722 0.241243 -0.058142
0.959260 0.271960 -0.076540
-0.915292 0.402773 -0.003734
-0.851645 0.512461 -0.109934
0.841140 0.540319 -0.023242
0.895882 0.429888 -0.112211
-0.761380 0.617028 -0.198939
-0.765749 0.642594 -0.026477
0.641622 0.741190 -0.197377
0.756105 0.643250 -0.120562
-0.658130 0.741853 -0.128528
-0.524533 0.848736 -0.067180
-0.359397 0.917492 -0.170420
0.398536 0.916131 -0.043278
0.522455 0.845407 -0.111029
0.657708 0.752791 -0.026930
-0.230551 0.970056 -0.076402
-0.056011 0.994406 -0.089553
0.113661 0.988363 -0.101090
0.271005 0.955074 -0.119960
-0.413713 -0.906482 0.084446
-0.243101 -0.968472 0.054434
-0.080626 -0.994295 0.069833
0.078323 -0.992752 0.091149
0.233897 -0.966228 0.108145
0.397429 -0.914884 0.070971
-0.765403 -0.636713 0.093572
-0.637975 -0.768875 0.042656
-0.541855 -0.825838 0.156157
0.527982 -0.849202 -0.009516
0.624667 -0.774588 0.099023
0.739502 -0.672863 0.019815
-0.857675 -0.498247 0.127057
0.811386 -0.571748 0.121477
-0.974122 -0.217494 0.061498
-0.919265 -0.393329 0.015605
0.891496 -0.433110 0.132856
0.960524 -0.266394 0.080174
-0.995936 -0.044094 0.078536
0.991811 -0.099356 0.080241
-0.987657 0.124934 0.094474
0.994148 0.066879 0.084838
-0.955011 0.279123 0.100217
0.969816 0.229317 0.082894
-0.898877 0.397309 0.184840
-0.844840 0.528737 0.081747
0.847656 0.509043 0.149513
0.919003 0.390844 0.051714
-0.744916 0.651250 0.144821
0.759580 0.646982 0.066726
-0.648401 0.760331 0.038377
-0.518201 0.848331 0.108641
-0.396788 0.917903 -0.003553
0.403880 0.907176 0.117950
0.541546 0.838726 0.057155
0.654064 0.740613 0.153922
-0.263454 0.961580 0.077168
-0.107382 0.991917 0.067603
0.059468 0.996636 0.056394
0.234953 0.971113 0.041677
-0.303091 -0.932441 0.196696
-0.149150 -0.964145 0.219496
0.008846 -0.970389 0.241384
0.170367 -0.950210 0.260916
0.335681 -0.910920 0.239879
0.430903 -0.832657 0.347857
-0.666809 -0.714754 0.210931
-0.548074 -0.769445 0.327977
-0.425719 -0.864059 0.268637
0.494024 -0.850714 0.179517
0.583070 -0.761868 0.282111
0.707589 -0.677032 0.202348
-0.769810 -0.582572 0.260771
-0.655903 -0.652859 0.378902
0.679531 -0.636587 0.364683
0.797554 -0.538238 0.272409
-0.926163 -0.332917 0.177169
-0.850686 -0.435536 0.294351
0.855467 -0.403934 0.324059
0.925217 -0.304104 0.226924
-0.964873 -0.151599 0.214566
0.961240 -0.146315 0.233686
-0.971568 0.032499 0.234519
0.970876 0.017841 0.238916
-0.942665 0.218944 0.251884
0.952569 0.185577 0.241192
-0.859877 0.379152 0.341840
-0.809783 0.523849 0.264260
0.828568 0.462870 0.315002
0.911786 0.349333 0.215899
-0.621450 0.754154 0.212255
-0.707966 0.633967 0.311240
-0.566817 0.734001 0.374114
0.751392 0.614437 0.240578
0.708815 0.581344 0.399525
0.624640 0.711699 0.321417
-0.475256 0.832957 0.283398
-0.376227 0.908651 0.181128
0.380926 0.875394 0.297626
0.521927 0.821954 0.227999
-0.207331 0.951563 0.227027
-0.045066 0.974486 0.219878
0.118435 0.972033 0.202794
0.271788 0.942700 0.193516
-0.262291 -0.899676 0.348979
-0.095243 -0.920520 0.378908
0.076531 -0.913715 0.399083
0.256310 -0.879730 0.400474
-0.513097 -0.708316 0.484789
-0.395454 -0.814974 0.423597
-0.227035 -0.840818 0.491407
-0.059910 -0.850555 0.522463
0.104539 -0.838106 0.535396
0.249692 -0.801779 0.542959
0.394069 -0.775080 0.493923
0.542469 -0.716508 0.438570
-0.746074 -0.515251 0.421770
-0.614560 -0.582583 0.531896
0.621625 -0.584560 0.521413
0.750272 -0.498402 0.434382
-0.904459 -0.266984 0.332675
-0.816203 -0.363451 0.449127
0.807507 -0.343196 0.479738
0.896529 -0.234002 0.376135
-0.927542 -0.089514 0.362841
-0.855735 -0.191430 0.480700
0.920473 -0.063564 0.385602
0.839309 -0.172162 0.515675
-0.920957 0.082607 0.380808
-0.861188 -0.014575 0.508078
0.915178 0.111811 0.387230
0.851148 -0.003981 0.524910
-0.884801 0.237176 0.401092
-0.833498 0.151531 0.531338
0.878671 0.291752 0.377913
0.837384 0.158262 0.523202
-0.795997 0.328406 0.508467
0.797515 0.303516 0.521390
-0.755845 0.482377 0.442732
-0.655693 0.606281 0.449990
0.572493 0.662505 0.483051
0.769742 0.439585 0.462884
-0.409825 0.797003 0.443654
-0.311082 0.885392 0.345410
-0.234287 0.835123 0.497673
-0.137627 0.917335 0.373570
-0.043224 0.866264 0.497713
0.038826 0.932169 0.359936
0.139878 0.862922 0.485592
0.210443 0.914405 0.345799
0.319610 0.833698 0.450330
0.482725 0.780588 0.397062
-0.461198 -0.627092 0.627735
-0.351373 -0.744232 0.568028
-0.179758 -0.758105 0.626868
-0.007142 -0.755728 0.654847
0.157538 -0.725590 0.669851
0.232557 -0.598980 0.766250
0.324844 -0.691815 0.644878
0.477123 -0.651575 0.589749
-0.695480 -0.438079 0.569557
-0.555044 -0.494308 0.669018
-0.400445 -0.519773 0.754639
-0.296778 -0.650639 0.698993
0.393420 -0.562368 0.727298
0.451037 -0.420212 0.787393
0.688618 -0.436557 0.578985
0.546257 -0.511956 0.662951
-0.757387 -0.284595 0.587682
-0.624120 -0.343063 0.701985
0.736069 -0.274526 0.618739
0.607143 -0.363072 0.706793
-0.779326 -0.110785 0.616748
-0.675464 -0.199526 0.709886
0.641504 -0.198518 0.740988
0.756493 -0.103768 0.645717
-0.759714 0.052686 0.648120
0.753021 0.061615 0.655105
-0.689140 0.390683 0.610289
-0.730097 0.225793 0.644962
-0.605351 0.283908 0.743604
0.683932 0.383989 0.620314
0.722686 0.222113 0.654516
0.593068 0.297006 0.748370
-0.621125 0.527650 0.579473
-0.548948 0.436739 0.712682
0.642191 0.527903 0.555796
0.550731 0.454533 0.700068
-0.521139 0.673747 0.523908
-0.474907 0.584080 0.658265
-0.376106 0.721185 0.581753
-0.322400 0.614927 0.719669
-0.236893 0.736951 0.633076
0.253445 0.769197 0.586602
0.339344 0.645592 0.684147
0.177662 0.682856 0.708621
0.418634 0.724384 0.547735
0.496746 0.595790 0.631092
-0.093862 0.780093 0.618582
0.077564 0.786922 0.612158
-0.118478 -0.654646 0.746594
0.055360 -0.634358 0.771054
-0.491497 -0.374127 0.786422
-0.230102 -0.541618 0.808519
-0.052953 -0.527568 0.847861
0.130784 -0.501120 0.855438
0.300221 -0.448295 0.841961
0.506192 -0.280755 0.815443
-0.548757 -0.194420 0.813060
-0.408526 -0.265359 0.873322
-0.323650 -0.401093 0.856957
-0.166325 -0.409509 0.897017
0.024670 -0.393594 0.918953
0.194337 -0.343356 0.918880
0.361046 -0.277426 0.890326
0.509446 -0.136595 0.849592
-0.660616 -0.049711 0.749076
-0.533923 -0.015897 0.845384
-0.403697 -0.115567 0.907564
0.513950 0.023643 0.857494
0.373469 -0.099057 0.922339
0.644293 -0.037126 0.763877
-0.640433 0.116373 0.759146
-0.507200 0.161356 0.846589
-0.389839 0.049966 0.919527
0.491523 0.194321 0.848908
0.376829 0.074390 0.923291
0.628856 0.128650 0.766805
-0.458471 0.326585 0.826526
-0.352253 0.218196 0.910114
0.445839 0.362229 0.818546
0.344114 0.253614 0.904028
-0.397369 0.478654 0.782935
-0.225504 0.514879 0.827072
-0.291712 0.378060 0.878621
-0.054761 0.542983 0.837957
-0.100741 0.408796 0.907048
0.093896 0.577819 0.810746
0.093400 0.438647 0.893793
0.242892 0.543368 0.803589
0.275553 0.405460 0.871592
0.399613 0.507921 0.763103
-0.153327 0.648495 0.745617
0.001274 0.686509 0.727120
-0.255830 -0.241335 0.936114
-0.094853 -0.288218 0.952855
0.065633 -0.229037 0.971202
0.224942 -0.179437 0.957707
-0.250632 -0.068515 0.965655
-0.096949 -0.141449 0.985187
0.071239 -0.063504 0.995436
0.225032 -0.013640 0.974256
-0.235246 0.100334 0.966743
-0.082578 0.013070 0.996499
0.079158 0.116034 0.990086
0.232590 0.145439 0.961639
-0.186792 0.271955 0.944007
-0.075564 0.167650 0.982946
0.009034 0.294926 0.955477
0.167198 0.288059 0.942903
3 2 1 0
3 4 2 3
3 2 0 3
3 6 4 5
3 4 3 5
3 8 5 7
3 6 5 8
3 9 8 7
3 11 10 0
3 11 0 1
3 12 3 0
3 12 0 10
3 13 5 3
3 13 3 12
3 14 7 13
3 7 5 13
3 15 9 7
3 15 7 14
3 17 16 10
3 17 10 11
3 18 12 10
3 18 10 16
3 19 13 12
3 19 12 18
3 19 14 13
3 20 14 19
3 21 15 14
3 21 14 20
3 23 22 16
3 23 16 17
3 24 16 22
3 18 16 24
3 25 19 18
3 25 18 24
3 26 20 25
3 20 19 25
3 27 21 20
3 27 20 26
3 23 28 22
3 29 24 22
3 29 22 28
3 30 25 24
3 30 24 29
3 31 26 79
3 26 25 30
3 31 27 26
3 34 33 32
3 36 34 32
3 36 32 35
3 37 36 35
3 40 51 38
3 42 40 41
3 40 1 41
3 33 42 41
3 33 41 43
3 32 33 43
3 44 35 32
3 44 32 43
3 45 37 35
3 45 35 46
3 46 35 44
3 48 45 46
3 48 46 47
3 49 48 53
3 56 50 38
3 51 40 39
3 38 50 1
3 1 2 41
3 38 1 40
3 43 41 2
3 43 2 4
3 44 43 4
3 44 4 6
3 46 6 47
3 44 6 46
3 47 6 8
3 47 9 53
3 47 8 9
3 53 48 47
3 53 9 52
3 56 55 54
3 50 56 54
3 51 56 38
3 50 54 57
3 50 11 1
3 57 11 50
3 52 15 58
3 9 15 52
3 59 53 52
3 59 52 60
3 60 52 58
3 112 59 60
3 63 54 55
3 62 54 63
3 64 57 62
3 57 54 62
3 57 64 17
3 57 17 11
3 58 15 21
3 58 21 65
3 66 60 58
3 66 58 65
3 67 61 66
3 61 60 66
3 63 68 62
3 70 64 62
3 69 64 70
3 70 62 68
3 64 69 23
3 64 23 17
3 65 21 27
3 65 27 71
3 67 66 73
3 66 65 73
3 73 65 71
3 72 67 73
3 75 74 69
3 75 69 70
3 74 28 69
3 76 28 74
3 28 23 69
3 77 29 76
3 29 28 76
3 78 30 29
3 78 29 77
3 79 30 78
3 26 30 79
3 71 31 80
3 27 31 71
3 80 31 87
3 81 73 71
3 81 71 80
3 75 82 74
3 83 76 74
3 83 74 82
3 85 77 76
3 84 77 85
3 85 76 83
3 84 78 77
3 86 78 84
3 87 86 88
3 79 86 87
3 79 78 86
3 87 31 79
3 89 80 130
3 89 81 80
3 85 90 84
3 91 86 84
3 91 84 90
3 91 88 86
3 94 93 92
3 95 94 92
3 96 94 95
3 96 34 97
3 33 34 95
3 95 34 96
3 36 97 34
3 98 97 36
3 37 98 36
3 99 37 100
3 99 98 37
3 102 99 100
3 102 100 103
3 103 100 101
3 106 105 104
3 106 104 39
3 106 39 92
3 92 39 42
3 93 106 92
3 95 92 42
3 39 40 42
3 33 95 42
3 45 100 37
3 101 100 45
3 101 45 48
3 49 101 48
3 103 101 108
3 108 101 49
3 108 49 107
3 109 108 107
3 111 110 104
3 111 104 105
3 104 110 51
3 104 51 39
3 107 49 59
3 107 59 112
3 113 109 107
3 113 107 112
3 110 114 55
3 111 114 110
3 110 55 56
3 51 110 56
3 59 49 53
3 113 112 115
3 112 61 115
3 112 60 61
3 114 116 55
3 116 63 55
3 115 61 117
3 61 67 117
3 119 68 63
3 118 68 119
3 119 63 116
3 118 70 68
3 120 72 124
3 117 67 121
3 67 72 121
3 121 72 120
3 126 122 118
3 123 118 119
3 118 122 75
3 118 75 70
3 72 73 81
3 72 81 124
3 174 121 120
3 125 120 133
3 123 126 118
3 122 82 75
3 127 82 128
3 128 82 122
3 128 122 126
3 127 83 82
3 129 83 127
3 129 85 83
3 130 87 88
3 131 89 130
3 80 87 130
3 124 81 89
3 124 89 132
3 132 89 131
3 133 124 132
3 133 120 124
3 128 134 127
3 135 129 127
3 135 127 134
3 136 90 185
3 90 85 129
3 185 90 129
3 136 91 90
3 137 91 136
3 137 88 91
3 130 88 138
3 138 88 137
3 139 131 138
3 131 130 138
3 182 132 131
3 142 141 140
3 144 142 143
3 142 140 143
3 146 144 145
3 144 143 145
3 148 146 147
3 146 145 147
3 149 148 147
3 151 150 93
3 151 93 94
3 141 151 140
3 151 94 140
3 140 94 96
3 143 96 97
3 140 96 143
3 145 143 97
3 145 97 98
3 147 145 98
3 147 98 99
3 102 147 99
3 149 147 102
3 152 149 102
3 153 152 103
3 152 102 103
3 155 154 105
3 155 105 106
3 93 155 106
3 150 155 93
3 156 153 109
3 153 103 108
3 109 153 108
3 157 156 162
3 160 159 158
3 160 158 111
3 160 111 105
3 154 160 105
3 156 109 162
3 113 161 162
3 109 113 162
3 163 162 161
3 165 164 158
3 165 158 159
3 158 164 114
3 158 114 111
3 161 113 115
3 161 115 166
3 167 163 161
3 167 161 166
3 169 168 164
3 169 164 165
3 164 168 116
3 164 116 114
3 166 115 117
3 166 117 170
3 171 167 166
3 171 166 170
3 173 172 168
3 173 168 169
3 168 119 116
3 172 119 168
3 170 121 174
3 117 121 170
3 175 171 170
3 175 170 174
3 173 176 172
3 176 177 172
3 177 123 172
3 172 123 119
3 174 120 125
3 174 125 179
3 179 125 178
3 179 175 174
3 180 126 177
3 126 123 177
3 181 128 180
3 128 126 180
3 183 133 132
3 183 132 182
3 178 125 133
3 178 133 183
3 181 134 128
3 184 134 181
3 185 135 192
3 135 134 186
3 186 134 184
3 187 136 185
3 129 135 185
3 188 137 136
3 188 136 187
3 189 137 188
3 138 137 189
3 190 139 191
3 139 189 191
3 139 138 189
3 182 131 139
3 182 139 190
3 186 192 135
3 193 187 192
3 187 185 192
3 194 188 187
3 194 187 193
3 195 189 188
3 195 188 194
3 195 191 189
3 197 196 142
3 196 141 142
3 198 197 144
3 197 142 144
3 199 198 146
3 198 144 146
3 200 199 148
3 199 146 148
3 201 200 148
3 201 148 149
3 204 203 202
3 204 202 150
3 204 141 205
3 204 150 151
3 196 205 141
3 204 151 141
3 206 201 149
3 206 149 152
3 208 206 152
3 207 206 208
3 208 152 153
3 209 207 208
3 202 210 154
3 203 210 202
3 202 154 155
3 150 202 155
3 156 208 153
3 209 156 157
3 209 157 211
3 208 156 209
3 213 212 159
3 213 159 160
3 210 213 154
3 213 160 154
3 214 157 163
3 211 157 214
3 215 214 163
3 157 162 163
3 212 165 159
3 216 165 212
3 215 167 217
3 163 167 215
3 216 218 169
3 216 169 165
3 217 167 171
3 217 171 219
3 218 220 173
3 218 173 169
3 219 171 175
3 219 175 221
3 222 176 220
3 176 173 220
3 223 177 176
3 223 176 222
3 225 178 224
3 179 178 225
3 221 179 225
3 175 179 221
3 226 180 177
3 226 177 223
3 227 226 223
3 226 181 180
3 228 183 182
3 224 178 229
3 178 183 229
3 229 183 228
3 227 230 226
3 231 184 230
3 181 226 230
3 184 181 230
3 232 184 231
3 186 184 232
3 234 190 191
3 234 191 233
3 228 182 190
3 228 190 234
3 235 228 234
3 235 229 228
3 193 192 232
3 192 186 232
3 237 193 236
3 193 232 236
3 237 194 193
3 238 194 237
3 239 195 238
3 195 194 238
3 233 191 239
3 191 195 239
3 241 240 196
3 241 196 197
3 242 241 197
3 242 197 198
3 243 242 198
3 243 198 199
3 244 243 199
3 244 199 200
3 245 244 200
3 245 200 201
3 247 246 203
3 247 203 204
3 205 247 204
3 248 247 205
3 240 248 205
3 240 205 196
3 249 245 201
3 249 201 206
3 207 249 206
3 250 249 207
3 251 250 207
3 251 207 209
3 246 252 210
3 246 210 203
3 251 209 211
3 251 211 253
3 255 254 212
3 255 212 213
3 252 255 210
3 255 213 210
3 256 253 211
3 256 211 214
3 257 256 214
3 257 214 215
3 254 258 216
3 254 216 212
3 259 215 217
3 257 215 259
3 258 260 218
3 258 218 216
3 261 217 219
3 259 217 261
3 260 262 220
3 260 220 218
3 261 219 263
3 219 221 263
3 264 222 262
3 222 220 262
3 265 223 222
3 265 222 264
3 267 225 224
3 267 224 266
3 263 221 267
3 221 225 267
3 265 268 227
3 265 227 223
3 269 224 229
3 266 224 269
3 270 230 227
3 270 227 268
3 270 231 230
3 271 231 270
3 272 232 231
3 272 231 271
3 274 234 233
3 274 233 273
3 274 235 234
3 275 235 274
3 269 229 235
3 269 235 275
3 276 236 272
3 236 232 272
3 277 237 236
3 277 236 276
3 278 238 237
3 278 237 277
3 279 239 238
3 279 238 278
3 273 233 279
3 233 239 279
3 281 280 241
3 280 240 241
3 282 281 242
3 281 241 242
3 243 282 242
3 283 282 243
3 284 283 244
3 283 243 244
3 285 284 289
3 284 244 245
3 247 286 246
3 248 286 247
3 287 248 288
3 287 286 248
3 280 288 240
3 288 248 240
3 289 245 249
3 284 245 289
3 290 250 291
3 289 250 290
3 289 249 250
3 251 291 250
3 293 292 286
3 292 246 286
3 292 252 246
3 287 293 286
3 294 290 291
3 291 251 253
3 291 295 294
3 291 253 295
3 297 296 252
3 296 254 255
3 292 297 252
3 296 255 252
3 298 295 256
3 295 253 256
3 299 298 256
3 299 256 257
3 296 300 254
3 300 258 254
3 299 257 301
3 257 259 301
3 258 302 260
3 300 302 258
3 303 259 261
3 301 259 303
3 302 304 260
3 304 262 260
3 303 261 305
3 261 263 305
3 306 264 304
3 264 262 304
3 307 264 306
3 265 264 307
3 309 267 266
3 309 266 308
3 305 263 309
3 263 267 309
3 311 310 268
3 311 268 307
3 307 268 265
3 311 312 310
3 315 314 313
3 313 266 269
3 308 313 314
3 308 266 313
3 310 270 268
3 310 271 270
3 316 310 312
3 316 271 310
3 317 272 271
3 317 271 316
3 319 273 318
3 274 273 319
3 275 319 315
3 275 315 313
3 275 274 319
3 313 269 275
3 320 276 317
3 276 272 317
3 321 277 320
3 277 276 320
3 321 278 277
3 322 278 321
3 323 279 322
3 279 278 322
3 318 273 323
3 273 279 323
3 281 324 280
3 325 324 281
3 325 281 282
3 326 325 282
3 326 282 283
3 327 326 283
3 327 283 284
3 285 327 284
3 329 328 287
3 329 287 288
3 330 329 324
3 288 280 324
3 329 288 324
3 331 330 325
3 330 324 325
3 326 331 325
3 332 331 326
3 333 332 327
3 332 326 327
3 327 285 334
3 327 334 333
3 334 285 335
3 290 285 289
3 335 285 290
3 293 336 292
3 337 336 293
3 328 293 287
3 337 293 328
3 294 335 290
3 338 335 294
3 339 338 294
3 339 294 295
3 297 340 296
3 341 297 336
3 340 297 341
3 336 297 292
3 342 298 343
3 339 295 298
3 342 339 298
3 299 343 298
3 340 344 300
3 340 300 296
3 345 344 340
3 345 340 341
3 347 342 343
3 347 343 346
3 343 299 301
3 343 301 346
3 344 348 302
3 344 302 300
3 349 348 344
3 349 344 345
3 351 347 346
3 351 346 350
3 346 301 303
3 346 303 350
3 348 352 304
3 348 304 302
3 353 348 349
3 352 348 353
3 355 350 354
3 351 350 355
3 350 303 305
3 350 305 354
3 352 306 304
3 358 307 306
3 356 352 353
3 356 306 352
3 354 309 308
3 354 361 357
3 355 354 357
3 354 305 309
3 358 311 307
3 358 306 356
3 359 312 311
3 359 311 358
3 361 314 406
3 314 315 360
3 354 308 361
3 308 314 361
3 362 316 312
3 362 312 408
3 363 317 316
3 363 316 362
3 364 363 362
3 366 365 364
3 365 363 364
3 368 367 366
3 367 365 366
3 370 369 368
3 369 367 368
3 371 319 318
3 318 369 370
3 371 318 370
3 371 315 319
3 360 315 371
3 363 320 317
3 365 321 320
3 365 320 363
3 367 322 321
3 367 321 365
3 369 322 367
3 323 322 369
3 369 318 323
3 373 372 328
3 373 328 329
3 373 329 330
3 374 373 330
3 374 330 331
3 375 374 331
3 332 375 331
3 376 375 332
3 377 376 378
3 376 333 378
3 376 332 333
3 334 378 333
3 379 378 334
3 335 379 334
3 337 380 336
3 381 380 337
3 381 337 372
3 372 337 328
3 382 381 372
3 383 382 372
3 383 372 373
3 374 383 373
3 384 377 378
3 385 384 387
3 384 378 379
3 387 379 338
3 384 379 387
3 379 335 338
3 387 338 386
3 339 386 338
3 380 388 341
3 380 341 336
3 393 388 389
3 389 380 381
3 391 387 386
3 391 390 394
3 386 339 342
3 386 342 390
3 393 392 388
3 392 345 388
3 388 345 341
3 389 388 380
3 391 386 390
3 390 342 347
3 390 395 394
3 390 347 395
3 392 396 349
3 392 349 345
3 395 347 351
3 395 351 397
3 399 356 353
3 399 353 396
3 396 353 349
3 400 405 398
3 403 402 401
3 397 351 355
3 397 355 402
3 402 357 401
3 398 358 356
3 398 356 399
3 405 404 398
3 398 399 400
3 407 403 401
3 407 401 406
3 402 355 357
3 401 361 406
3 404 358 398
3 404 359 358
3 408 404 409
3 408 359 404
3 409 404 405
3 411 410 409
3 410 408 409
3 411 412 410
3 415 414 413
3 414 416 413
3 417 416 414
3 406 314 360
3 406 360 417
3 417 360 416
3 407 406 417
3 401 357 361
3 408 312 359
3 410 364 362
3 410 362 408
3 418 366 364
3 418 364 412
3 412 364 410
3 419 368 366
3 419 366 418
3 413 368 419
3 413 419 415
3 370 368 413
3 416 371 370
3 416 370 413
3 416 360 371
3 375 420 374
3 421 420 375
3 421 375 376
3 377 421 376
3 422 389 381
3 430 422 382
3 423 382 383
3 424 423 420
3 423 383 420
3 420 383 374
3 421 424 420
3 425 424 421
3 425 421 377
3 425 377 426
3 426 377 384
3 434 426 385
3 426 384 385
3 391 427 385
3 422 428 389
3 422 381 382
3 429 428 422
3 429 422 430
3 430 382 423
3 431 423 424
3 430 423 431
3 432 431 424
3 432 424 425
3 433 432 425
3 433 425 426
3 434 433 426
3 434 385 427
3 435 434 427
3 385 387 391
3 427 394 435
3 393 436 392
3 437 436 428
3 436 393 428
3 428 393 389
3 438 428 429
3 437 428 438
3 440 435 439
3 434 435 440
3 439 435 441
3 427 391 394
3 441 435 394
3 395 441 394
3 436 396 392
3 442 396 436
3 443 442 437
3 442 436 437
3 444 443 437
3 444 437 438
3 446 440 439
3 446 439 445
3 447 445 439
3 447 439 441
3 441 397 447
3 395 397 441
3 442 399 396
3 448 400 443
3 400 442 443
3 400 399 442
3 449 448 443
3 449 443 444
3 451 446 445
3 451 445 450
3 447 402 403
3 447 403 445
3 445 403 450
3 447 397 402
3 448 452 405
3 448 405 400
3 453 452 454
3 448 449 454
3 452 448 454
3 456 453 454
3 455 453 456
3 458 457 455
3 458 455 456
3 460 459 458
3 459 457 458
3 450 460 451
3 461 459 460
3 450 461 460
3 450 403 407
3 450 407 461
3 452 409 405
3 452 411 409
3 453 411 452
3 462 411 453
3 462 453 455
3 412 411 462
3 463 462 455
3 463 455 457
3 459 415 457
3 414 415 459
3 457 415 463
3 461 417 414
3 461 414 459
3 461 407 417
3 462 418 412
3 463 419 418
3 463 418 462
3 463 415 419
3 430 464 429
3 465 464 431
3 464 430 431
3 466 465 432
3 465 431 432
3 467 466 433
3 466 432 433
3 434 467 433
3 464 468 438
3 464 438 429
3 469 468 464
3 469 464 465
3 470 469 466
3 469 465 466
3 471 470 467
3 470 466 467
3 467 434 440
3 467 440 471
3 468 472 444
3 468 444 438
3 473 472 468
3 473 468 469
3 470 473 469
3 474 473 470
3 471 474 470
3 475 474 471
3 471 440 446
3 471 446 475
3 472 476 449
3 472 449 444
3 477 472 473
3 476 472 477
3 474 477 473
3 478 477 474
3 479 478 474
3 479 474 475
3 475 446 451
3 475 451 479
3 476 454 449
3 478 456 476
3 456 454 476
3 478 458 456
3 478 476 477
3 479 460 458
3 479 458 478
3 479 451 460
