<?xml version="1.0" encoding="utf-8"?>
<!-- Generator: Adobe Illustrator 25.2.3, SVG Export Plug-In . SVG Version: 6.00 Build 0)  -->
<svg version="1.1" id="Layer_1" xmlns="http://www.w3.org/2000/svg" xmlns:xlink="http://www.w3.org/1999/xlink" x="0px" y="0px"
	 viewBox="0 0 99 99.2" style="enable-background:new 0 0 99 99.2;" xml:space="preserve">
<style type="text/css">
	.st0{clip-path:url(#SVGID_2_);}
	.st1{clip-path:url(#SVGID_4_);fill:none;stroke:#F0E923;stroke-width:3;stroke-miterlimit:10;}
</style>
<g id="Clathrin_Soccer_Ball_1_">
	<g>
		<defs>
			<rect id="SVGID_1_" x="10.5" y="12.5" width="78" height="74.2"/>
		</defs>
		<clipPath id="SVGID_2_">
			<use xlink:href="#SVGID_1_"  style="overflow:visible;"/>
		</clipPath>
		<g class="st0">
			<defs>
				<rect id="SVGID_3_" x="10.5" y="12.5" width="78" height="74.2"/>
			</defs>
			<clipPath id="SVGID_4_">
				<use xlink:href="#SVGID_3_"  style="overflow:visible;"/>
			</clipPath>
			<path class="st1" d="M20.5,25.2l12.3-8.5l10-3.8h14.5l10,5.5l11.5,7l5.8,11.7L88,49.4l-3.4,13.4l-5.7,10.9L67,82.4l-10,3.8
				L41.8,86L20.3,73.3l-5.7-11.7L11,48.8l3.6-13.2L20.5,25.2z M20.5,25.2l3.2,1.3L38,18.5l4.7-5.5 M38,18.5l8.5,5.1l16.2,0.2
				l4.5-5.3 M62.7,23.7l6.2,13.4l10.4,6.2l5.3-6.2 M79.3,43.4l0.4,15.1l4.9,4.3 M79.7,58.4l-10.6,8.1l-6.6,11.3l4.5,4.5 M62.5,77.9
				l-15.8,0.6l-9.2,2.6l-14.1-8.7l-2.5-9.1l10.4-3.4l12.1,7l13.6-7.7l-0.2-14.5l-13.2-7.5l-12.1,7l-0.2,15.8 M23.7,26.6l-2.3,11.5
				l-6.8,12.3l6.2,13 M23.3,72.4l-3,0.9 M37.4,81.1l4.3,4.9 M46.7,78.4l-3.4-11.5 M69.1,66.5l-12.3-7.4 M56.7,44.7l12.3-7.5
				 M43.5,37.1l3-13.6 M21.4,38.1l10,6 M14.6,50.3L11,48.8"/>
		</g>
	</g>
</g>
</svg>
