ply
format ascii 1.0
element vertex 472
property float32 x
property float32 y
property float32 z
element face 940
property list uint8 int32 vertex_indices
end_header
-0.046081 -0.034350 -1.436119
-0.195293 -0.014336 -1.396040
-0.114466 -0.183117 -1.386392
0.057087 -0.149739 -1.410655
0.156374 -0.253135 -1.336553
0.187850 -0.059482 -1.395482
-0.072862 0.132392 -1.413919
-0.220088 0.154977 -1.355888
0.082566 0.055458 -1.428667
0.218873 0.122490 -1.367246
-0.101965 0.285268 -1.332611
0.066338 0.225297 -1.376394
-0.266523 -0.167317 -1.323767
-0.321436 -0.288583 -1.211895
-0.203507 -0.422984 -1.165945
-0.166685 -0.316367 -1.287995
-0.035408 -0.428184 -1.214572
-0.001435 -0.305649 -1.330609
0.132054 -0.390577 -1.233898
0.281373 -0.161849 -1.315996
0.286079 -0.307373 -1.225561
0.399320 -0.160295 -1.213832
-0.328809 -0.003187 -1.312593
-0.403577 -0.130408 -1.220845
0.331081 -0.003181 -1.310742
0.446123 0.000919 -1.195172
-0.345761 0.156140 -1.267645
-0.446279 0.041827 -1.192615
0.338252 0.307269 -1.181816
0.350001 0.157157 -1.263457
-0.263015 0.302379 -1.246142
-0.421186 0.226475 -1.154277
-0.098941 0.409080 -1.224480
0.057822 0.364610 -1.277372
0.212708 0.278581 -1.294291
0.444202 0.315179 -1.054610
-0.370087 0.366774 -1.092578
-0.234257 0.426234 -1.143196
0.036448 0.484839 -1.143410
0.195602 0.415141 -1.179382
-0.069626 -0.524569 -1.079850
-0.238660 -0.505751 -1.029606
-0.115097 -0.597934 -0.933872
0.101434 -0.501224 -1.107259
0.061874 -0.590329 -0.965347
0.264903 -0.432057 -1.114067
-0.386167 -0.470814 -0.933841
-0.360162 -0.386920 -1.080747
0.388817 -0.431049 -0.990740
0.405830 -0.308252 -1.109886
-0.514954 -0.074559 -1.093689
-0.564679 -0.183020 -0.965278
-0.456501 -0.240415 -1.100397
0.539175 0.004744 -1.063663
0.499342 -0.158751 -1.088034
0.585751 -0.138491 -0.948477
-0.525309 0.113056 -1.066706
-0.595368 -0.007965 -0.961633
0.458655 0.163963 -1.142203
0.616491 0.028042 -0.916228
-0.590658 0.171377 -0.920815
-0.496339 0.283409 -1.007454
0.529181 0.316101 -0.917817
0.547632 0.165890 -1.006252
-0.425705 0.434385 -0.935357
-0.118878 0.519936 -1.073166
-0.285497 0.501016 -0.998001
0.167322 0.527114 -1.040396
0.320596 0.437631 -1.058214
0.292018 0.542176 -0.919087
-0.169652 0.592208 -0.918624
0.005775 0.582304 -0.987254
-0.261590 -0.577796 -0.877536
-0.378113 -0.557252 -0.777264
-0.193316 -0.653236 -0.754872
-0.021384 -0.655438 -0.824664
0.181285 -0.623226 -0.841732
0.317159 -0.608639 -0.739835
0.232724 -0.536274 -0.982914
0.357983 -0.531491 -0.861967
-0.490199 -0.337086 -0.962651
-0.590642 -0.288329 -0.820861
-0.502449 -0.428950 -0.812009
0.508860 -0.300624 -0.970372
0.492747 -0.424046 -0.839155
0.596477 -0.270353 -0.826985
-0.644537 -0.122031 -0.824154
0.657674 -0.111395 -0.794894
-0.657177 0.044878 -0.817096
0.672934 0.061539 -0.770722
-0.545267 0.342454 -0.854501
-0.639100 0.219733 -0.770505
0.612124 0.203583 -0.851555
0.653644 0.237731 -0.711404
-0.599358 0.363017 -0.694718
-0.332084 0.559377 -0.838060
-0.470623 0.485084 -0.770368
0.429712 0.443394 -0.915520
0.412993 0.533218 -0.774368
0.549671 0.389460 -0.776591
-0.212422 0.647773 -0.753492
-0.043007 0.651522 -0.831954
0.135590 0.615993 -0.885697
0.271088 0.619571 -0.769184
-0.066095 -0.709443 -0.654713
-0.207150 -0.704847 -0.569962
-0.070060 -0.752042 -0.474588
0.088488 -0.685746 -0.724246
0.075728 -0.734511 -0.554055
0.216768 -0.681643 -0.644880
-0.494154 -0.508837 -0.665932
-0.583746 -0.470280 -0.502924
-0.456944 -0.583299 -0.542850
-0.333352 -0.631464 -0.649264
0.364745 -0.636299 -0.575066
0.481512 -0.576322 -0.496196
0.461481 -0.527855 -0.693351
0.566193 -0.466543 -0.574161
-0.600075 -0.381185 -0.660344
0.586432 -0.380531 -0.700070
-0.706355 -0.061075 -0.666994
-0.730382 -0.144929 -0.526400
-0.668230 -0.224772 -0.680487
0.713581 -0.061598 -0.641434
0.670330 -0.235402 -0.661899
0.731474 -0.149264 -0.517489
-0.701665 0.096471 -0.669487
-0.744348 0.054696 -0.518386
0.715826 0.095445 -0.619538
0.755363 0.032869 -0.470538
-0.690030 0.231962 -0.597086
-0.645814 0.370471 -0.526830
0.623457 0.361422 -0.625238
0.708982 0.218709 -0.538492
-0.531151 0.489219 -0.619687
-0.580852 0.492075 -0.442626
0.501045 0.507808 -0.651642
0.581714 0.467528 -0.518631
-0.459139 0.585450 -0.529178
-0.369418 0.605167 -0.666910
-0.072951 0.705525 -0.665972
-0.229038 0.694362 -0.584333
0.091588 0.681037 -0.737271
0.369565 0.625234 -0.603692
0.220040 0.683757 -0.633944
0.478394 0.582826 -0.481126
-0.084104 0.747430 -0.490528
0.067745 0.732106 -0.567548
-0.342649 -0.674263 -0.469225
-0.365121 -0.691954 -0.300596
-0.213915 -0.740398 -0.386267
-0.067418 -0.779719 -0.298472
0.084506 -0.766337 -0.384305
0.235380 -0.745974 -0.301847
0.231371 -0.718512 -0.476915
0.370562 -0.673971 -0.396185
-0.598707 -0.500796 -0.315675
-0.489010 -0.595287 -0.388144
0.501186 -0.598039 -0.317759
0.599125 -0.479130 -0.408402
-0.680432 -0.303206 -0.524987
-0.741516 -0.228340 -0.350950
-0.671672 -0.376422 -0.390899
0.663777 -0.339708 -0.521641
0.681172 -0.379432 -0.322192
0.725672 -0.252444 -0.401165
-0.765494 -0.066108 -0.401065
0.770027 -0.095320 -0.350760
-0.772889 0.084850 -0.338880
0.781991 0.056704 -0.286187
-0.729548 0.219217 -0.439793
-0.750920 0.234505 -0.261655
0.676377 0.346385 -0.450096
0.747211 0.192440 -0.380305
-0.682527 0.366924 -0.357847
-0.602899 0.503323 -0.274063
0.600585 0.488197 -0.364295
0.698987 0.353393 -0.293193
-0.481328 0.606723 -0.360943
-0.346415 0.671086 -0.474984
-0.358358 0.696390 -0.293698
0.229993 0.717532 -0.483795
0.493644 0.605730 -0.308683
0.363258 0.674920 -0.412525
-0.218771 0.737701 -0.394087
-0.072270 0.777944 -0.309587
0.075108 0.764834 -0.400002
0.225891 0.747594 -0.312176
-0.371052 -0.705127 -0.128840
-0.223646 -0.758846 -0.214047
-0.071355 -0.793740 -0.125913
0.086157 -0.786699 -0.210582
0.239406 -0.760028 -0.127911
0.379959 -0.693200 -0.221265
-0.616280 -0.503771 -0.144225
-0.498447 -0.614077 -0.216489
0.507378 -0.613841 -0.136777
0.608526 -0.504089 -0.224790
-0.761095 -0.228762 -0.165063
-0.697952 -0.369466 -0.230249
0.699426 -0.379967 -0.144403
0.752329 -0.238620 -0.235155
-0.784639 -0.079040 -0.242150
0.789335 -0.086994 -0.174425
-0.790470 0.080266 -0.168097
0.794612 0.069821 -0.109849
-0.762581 0.236528 -0.090574
0.761698 0.215306 -0.208867
-0.696193 0.380601 -0.184130
-0.609740 0.514690 -0.103702
0.614301 0.499217 -0.208534
0.705275 0.370618 -0.130251
-0.493981 0.620074 -0.192999
-0.363476 0.709648 -0.117935
0.368599 0.698229 -0.232024
0.501643 0.618318 -0.139942
-0.219554 0.760083 -0.213548
-0.070830 0.793640 -0.128868
0.078792 0.786570 -0.221228
0.229401 0.762682 -0.135885
-0.375264 -0.706166 0.040837
-0.226845 -0.766822 -0.041576
-0.072338 -0.796315 0.046184
0.085744 -0.795113 -0.038258
0.238936 -0.763063 0.045969
0.382611 -0.702135 -0.044981
-0.620681 -0.504529 0.026316
-0.507189 -0.618084 -0.048959
0.512957 -0.613531 0.038730
0.619098 -0.506002 -0.047251
-0.766843 -0.227810 0.014365
-0.707087 -0.372688 -0.060764
0.706151 -0.375574 0.031408
0.763590 -0.235852 -0.065206
-0.795389 -0.075909 -0.072063
0.795938 -0.080568 -0.001286
-0.795707 0.082782 0.004181
0.795430 0.078045 0.062576
-0.762459 0.238059 0.080356
0.766530 0.227930 -0.039760
-0.701405 0.384670 -0.014882
-0.608831 0.517724 0.064787
0.615261 0.510693 -0.046066
0.703751 0.380035 0.032068
-0.495390 0.628041 -0.022912
-0.360595 0.713419 0.057301
0.371953 0.707615 -0.055204
0.500622 0.623782 0.030255
-0.219189 0.769144 -0.035156
-0.066501 0.796732 0.051051
0.081828 0.795473 -0.041669
0.231043 0.765561 0.042018
-0.373374 -0.697718 0.211349
-0.228436 -0.763315 0.129479
-0.073927 -0.787341 0.217744
0.084437 -0.791997 0.134924
0.236639 -0.754469 0.218856
0.383321 -0.698576 0.128098
-0.616782 -0.497772 0.195605
-0.507274 -0.615027 0.119703
0.513033 -0.602647 0.210060
0.622163 -0.497644 0.130679
-0.760503 -0.224144 0.192196
-0.706612 -0.369996 0.111111
0.704251 -0.361698 0.206887
0.764751 -0.227272 0.106653
-0.794613 -0.074021 0.100531
0.791166 -0.070188 0.172051
-0.789702 0.082283 0.176417
0.784224 0.089592 0.234492
-0.752113 0.234324 0.250855
0.761375 0.235209 0.127192
-0.696537 0.384255 0.152635
-0.598821 0.514553 0.232280
0.609826 0.513469 0.120348
0.694256 0.382706 0.193457
-0.489375 0.627553 0.147288
-0.350305 0.707600 0.231867
0.370074 0.706016 0.122015
0.495479 0.618059 0.201323
-0.212321 0.767231 0.142683
-0.057837 0.787490 0.231350
0.086896 0.791453 0.140108
0.233505 0.755018 0.223581
-0.367998 -0.677651 0.383381
-0.226926 -0.748635 0.301479
-0.074548 -0.766455 0.390177
0.080286 -0.777291 0.308504
0.228111 -0.735451 0.390538
0.379361 -0.684535 0.298490
-0.605468 -0.482233 0.363846
-0.500968 -0.602682 0.289170
0.507019 -0.582612 0.375386
0.617149 -0.478981 0.310240
-0.741136 -0.218710 0.372747
-0.696058 -0.360954 0.285844
0.692421 -0.340252 0.380897
0.756436 -0.208443 0.280930
-0.781741 -0.073533 0.275799
0.775355 -0.042507 0.346319
-0.772283 0.077300 0.349045
0.756765 0.123220 0.410938
-0.730017 0.229211 0.420343
0.744531 0.242286 0.295634
-0.682286 0.378712 0.317247
-0.580023 0.504433 0.398927
0.599232 0.504535 0.292296
0.675768 0.379497 0.356935
-0.475276 0.618885 0.317411
-0.335169 0.690457 0.406209
0.370994 0.688709 0.301443
0.497635 0.590885 0.374172
-0.199480 0.753990 0.320520
-0.044149 0.765171 0.412666
0.093197 0.773711 0.325433
0.233573 0.731058 0.406477
-0.226788 -0.720494 0.474354
-0.225836 -0.679724 0.641340
-0.072032 -0.733747 0.558903
0.079428 -0.748975 0.485397
0.224764 -0.700118 0.567216
0.363969 -0.663893 0.465103
-0.588873 -0.454259 0.530516
-0.490339 -0.578099 0.460193
-0.368567 -0.638856 0.557729
0.359555 -0.620538 0.638003
0.484562 -0.564823 0.528362
0.599616 -0.452881 0.494090
-0.674001 -0.344248 0.466644
-0.611802 -0.360708 0.662734
0.593712 -0.387396 0.667232
0.677842 -0.299401 0.542622
-0.754964 -0.078629 0.454795
-0.701918 -0.222766 0.562537
0.656515 -0.239566 0.700775
0.739759 -0.173501 0.450528
-0.742521 0.077004 0.517706
0.746495 -0.001735 0.517733
-0.657137 0.370434 0.479428
-0.693106 0.227011 0.591688
-0.621135 0.357036 0.640700
0.702039 0.279264 0.473318
0.713329 0.159519 0.585201
0.640448 0.339026 0.610059
-0.550875 0.486617 0.568434
0.603646 0.453271 0.476738
-0.456170 0.598468 0.488784
-0.187683 0.726965 0.497161
-0.326578 0.654798 0.582071
-0.184896 0.684679 0.666255
0.364677 0.661085 0.476136
0.391820 0.597809 0.646696
0.247209 0.685028 0.595923
0.491026 0.560044 0.525507
-0.029036 0.730267 0.585620
0.108978 0.738467 0.517881
-0.067599 -0.690384 0.717224
0.083968 -0.704878 0.663982
-0.495287 -0.520459 0.633310
-0.374012 -0.583188 0.719947
-0.236134 -0.623776 0.795074
-0.084599 -0.639046 0.852711
0.085182 -0.644069 0.840184
0.228586 -0.645735 0.743775
0.380997 -0.548675 0.792324
0.496699 -0.505689 0.667564
-0.656578 -0.209873 0.730781
-0.497616 -0.450803 0.782774
0.502348 -0.423141 0.822024
0.588865 -0.281382 0.832717
-0.717290 -0.065907 0.626467
-0.667146 -0.051877 0.789107
0.656988 -0.103373 0.800220
0.712011 -0.124471 0.617082
-0.696622 0.098653 0.685320
-0.644049 0.110696 0.830552
0.700207 0.030756 0.694192
0.644496 0.092538 0.836598
-0.622506 0.262613 0.771030
0.654213 0.217858 0.730079
-0.438059 0.556343 0.670033
-0.531448 0.430527 0.746895
-0.413977 0.499215 0.843053
0.536283 0.471431 0.649325
0.566041 0.367756 0.772778
0.439173 0.507376 0.783896
-0.305385 0.606779 0.760540
-0.032998 0.686548 0.736752
-0.155621 0.631015 0.839579
0.124563 0.683967 0.712403
0.021438 0.634667 0.875712
0.283045 0.615596 0.765561
-0.365044 -0.518281 0.878279
-0.214660 -0.560729 0.951528
-0.038558 -0.584835 0.979998
0.129608 -0.562302 0.997261
0.266120 -0.471741 1.059656
0.252643 -0.571761 0.898573
-0.568527 -0.313593 0.841184
-0.452257 -0.392632 0.954585
-0.316838 -0.451941 1.042278
0.386530 -0.461512 0.948281
0.489613 -0.327373 0.974405
0.379924 -0.347687 1.101815
-0.602210 -0.159088 0.903560
-0.508857 -0.254253 1.012413
0.472808 -0.200143 1.104199
0.570177 -0.176534 0.958700
-0.601375 0.012039 0.949311
0.608407 -0.024636 0.933887
-0.516668 0.355861 0.893434
-0.571541 0.203324 0.938669
-0.469072 0.282483 1.049729
0.576866 0.248829 0.891425
0.482398 0.268888 1.041700
0.474030 0.396266 0.914665
-0.273648 0.546128 0.929759
-0.387440 0.427324 0.997692
-0.232678 0.475498 1.079526
0.336191 0.519353 0.912855
0.372326 0.402451 1.048541
0.225886 0.506244 1.038119
-0.106933 0.569850 0.992078
0.178230 0.604277 0.887369
-0.159141 -0.494759 1.094616
0.007569 -0.510652 1.108277
-0.379567 -0.324907 1.124501
-0.231309 -0.380425 1.196256
-0.053298 -0.421031 1.220543
0.136392 -0.455021 1.158540
0.253334 -0.351264 1.210608
0.356562 -0.211979 1.231160
-0.534987 -0.087094 1.058989
-0.436637 -0.183331 1.160472
0.429784 -0.053672 1.210566
0.528314 -0.039358 1.078887
-0.525819 0.107566 1.067731
-0.460729 0.007009 1.177022
0.561713 0.121721 1.001547
0.471084 0.114368 1.145387
-0.416969 0.188855 1.180855
0.380397 0.258825 1.177884
-0.337471 0.348299 1.145108
-0.063329 0.485935 1.138091
-0.180688 0.385594 1.218920
0.062028 0.559396 1.023248
0.104952 0.464089 1.157496
0.265280 0.383836 1.169590
-0.285288 -0.239870 1.274011
-0.111351 -0.310592 1.311673
0.084519 -0.353830 1.282363
0.210326 -0.229469 1.326376
-0.366920 -0.095988 1.267753
-0.254721 -0.057003 1.361044
-0.149110 -0.176457 1.378498
0.036298 -0.235821 1.374309
0.161865 -0.088835 1.400965
0.305023 -0.065829 1.325790
-0.349347 0.079768 1.287325
-0.216419 0.125422 1.367652
0.361033 0.096757 1.273025
0.218468 0.089505 1.375708
-0.277784 0.250037 1.273057
-0.009752 0.375975 1.270803
-0.111170 0.274863 1.337301
0.145635 0.345308 1.272088
0.085222 0.231457 1.369693
0.258846 0.234109 1.295597
-0.114702 0.002380 1.424958
-0.001620 -0.098321 1.428921
-0.051792 0.153122 1.410145
0.071782 0.056575 1.430411
3 2 1 0
3 2 0 3
3 2 3 17
3 5 4 3
3 6 0 1
3 6 1 7
3 0 8 3
3 6 8 0
3 5 3 8
3 5 8 9
3 7 10 6
3 8 6 11
3 6 10 11
3 11 9 8
3 14 13 15
3 16 14 15
3 13 12 15
3 17 16 15
3 18 16 17
3 20 4 19
3 18 4 20
3 21 20 19
3 23 22 12
3 23 12 13
3 12 22 1
3 12 2 15
3 12 1 2
3 17 15 2
3 17 3 4
3 18 17 4
3 19 5 24
3 19 4 5
3 25 21 24
3 21 19 24
3 27 26 22
3 27 22 23
3 22 26 7
3 22 7 1
3 24 5 9
3 24 9 29
3 29 25 24
3 29 34 28
3 31 30 26
3 31 26 27
3 30 10 7
3 32 10 30
3 30 7 26
3 33 11 10
3 33 10 32
3 29 9 34
3 9 11 34
3 34 11 33
3 58 29 28
3 35 28 68
3 31 36 30
3 37 30 36
3 32 30 37
3 38 33 32
3 38 32 65
3 39 34 33
3 39 33 38
3 39 28 34
3 42 41 40
3 44 42 40
3 44 40 43
3 78 44 43
3 47 52 13
3 47 13 14
3 41 47 14
3 41 14 40
3 40 14 16
3 43 40 16
3 43 16 18
3 45 43 18
3 45 18 20
3 48 45 49
3 49 45 20
3 49 20 21
3 52 51 50
3 52 50 23
3 52 23 13
3 80 52 47
3 54 21 25
3 49 21 54
3 54 25 53
3 55 54 53
3 57 56 50
3 57 50 51
3 50 56 27
3 50 27 23
3 53 25 58
3 25 29 58
3 59 55 53
3 59 53 63
3 57 60 56
3 60 61 56
3 61 31 56
3 56 31 27
3 58 28 35
3 58 35 63
3 63 35 62
3 63 53 58
3 61 36 31
3 64 36 61
3 65 37 66
3 37 36 66
3 66 36 64
3 67 38 71
3 32 37 65
3 67 39 38
3 68 67 69
3 68 39 67
3 62 35 97
3 28 39 68
3 66 70 65
3 71 38 65
3 71 65 70
3 102 69 67
3 74 73 72
3 74 72 42
3 72 41 42
3 75 74 42
3 76 75 44
3 75 42 44
3 77 76 79
3 76 44 78
3 78 43 45
3 79 76 78
3 82 81 80
3 82 80 46
3 82 46 73
3 72 46 41
3 73 46 72
3 41 46 47
3 48 78 45
3 79 78 48
3 79 48 84
3 83 48 49
3 84 48 83
3 85 84 83
3 81 86 51
3 81 51 80
3 80 51 52
3 46 80 47
3 54 83 49
3 85 83 55
3 83 54 55
3 87 85 55
3 86 88 57
3 86 57 51
3 87 55 59
3 87 59 89
3 91 60 88
3 90 60 91
3 60 57 88
3 90 61 60
3 92 63 62
3 89 59 92
3 89 92 93
3 59 63 92
3 91 94 90
3 90 64 61
3 95 64 96
3 96 64 90
3 96 90 94
3 95 66 64
3 97 68 69
3 97 35 68
3 92 62 99
3 99 97 98
3 62 97 99
3 99 93 92
3 139 100 95
3 100 70 95
3 101 70 100
3 70 66 95
3 101 71 70
3 102 71 101
3 103 69 102
3 97 69 98
3 67 71 102
3 103 98 69
3 106 105 104
3 108 106 104
3 108 104 107
3 109 108 107
3 112 111 110
3 113 110 73
3 112 110 113
3 113 73 74
3 105 113 74
3 105 74 104
3 104 74 75
3 107 104 75
3 107 75 76
3 109 107 76
3 109 76 77
3 114 109 77
3 116 114 77
3 115 114 116
3 116 77 79
3 117 115 116
3 82 118 81
3 111 118 110
3 110 118 82
3 73 110 82
3 84 116 79
3 119 116 84
3 117 116 119
3 119 84 85
3 122 121 120
3 122 120 86
3 122 86 81
3 118 122 81
3 124 85 87
3 119 85 124
3 124 87 123
3 125 124 123
3 127 126 120
3 127 120 121
3 120 88 86
3 126 88 120
3 123 89 128
3 87 89 123
3 129 125 123
3 129 123 128
3 127 130 126
3 130 94 91
3 130 91 126
3 126 91 88
3 128 89 93
3 128 93 133
3 133 93 132
3 133 129 128
3 131 94 130
3 134 94 131
3 135 134 131
3 134 96 94
3 136 99 98
3 132 93 99
3 132 99 136
3 137 132 136
3 135 138 134
3 139 95 96
3 139 96 134
3 138 139 134
3 140 101 100
3 140 100 141
3 141 100 139
3 142 102 101
3 142 101 140
3 142 103 102
3 143 103 144
3 144 103 142
3 143 98 103
3 136 98 143
3 145 136 143
3 145 137 136
3 141 146 140
3 147 142 140
3 147 140 146
3 147 144 142
3 150 149 148
3 150 105 106
3 150 106 151
3 148 105 150
3 152 151 106
3 152 106 108
3 154 152 108
3 153 152 154
3 154 108 109
3 155 153 154
3 157 156 111
3 157 111 112
3 148 157 112
3 149 157 148
3 148 112 113
3 105 148 113
3 114 154 109
3 155 114 115
3 155 115 158
3 154 114 155
3 159 158 115
3 159 115 117
3 162 161 160
3 162 160 111
3 162 111 156
3 160 118 111
3 159 117 163
3 117 119 163
3 164 159 163
3 165 164 163
3 161 166 121
3 161 121 160
3 160 121 122
3 118 160 122
3 124 163 119
3 165 163 125
3 165 125 167
3 163 124 125
3 166 168 127
3 166 127 121
3 167 125 129
3 167 129 169
3 170 130 127
3 170 127 168
3 171 170 168
3 170 131 130
3 172 133 132
3 169 129 173
3 129 133 173
3 173 133 172
3 171 174 170
3 174 175 135
3 174 131 170
3 174 135 131
3 172 132 137
3 172 137 176
3 177 172 176
3 177 173 172
3 178 138 135
3 178 135 175
3 179 139 138
3 179 138 178
3 180 179 178
3 179 141 139
3 181 143 144
3 182 145 183
3 145 143 183
3 183 143 181
3 176 137 145
3 176 145 182
3 180 184 179
3 185 146 184
3 146 141 184
3 184 141 179
3 186 147 146
3 186 146 185
3 181 144 147
3 181 147 186
3 187 181 186
3 187 183 181
3 189 188 149
3 189 149 150
3 190 189 151
3 189 150 151
3 191 190 151
3 191 151 152
3 153 191 152
3 192 191 153
3 193 192 153
3 193 153 155
3 195 194 156
3 195 156 157
3 188 195 149
3 195 157 149
3 196 193 158
3 193 155 158
3 197 196 158
3 197 158 159
3 199 198 161
3 199 161 162
3 194 199 156
3 199 162 156
3 200 197 164
3 197 159 164
3 201 200 164
3 201 164 165
3 161 202 166
3 198 202 161
3 201 165 167
3 201 167 203
3 202 204 168
3 202 168 166
3 203 167 169
3 203 169 205
3 204 206 171
3 204 171 168
3 205 169 207
3 169 173 207
3 208 174 171
3 208 171 206
3 209 175 208
3 175 174 208
3 211 177 210
3 177 176 210
3 207 173 177
3 207 177 211
3 212 178 175
3 212 175 209
3 213 180 212
3 180 178 212
3 215 182 214
3 182 183 214
3 210 176 182
3 210 182 215
3 216 184 180
3 216 180 213
3 217 185 216
3 185 184 216
3 218 186 185
3 218 185 217
3 218 187 186
3 219 187 218
3 214 183 187
3 214 187 219
3 221 220 188
3 221 188 189
3 190 221 189
3 222 221 190
3 223 222 190
3 223 190 191
3 192 223 191
3 224 223 192
3 225 224 192
3 225 192 193
3 227 226 194
3 227 194 195
3 188 227 195
3 220 227 188
3 196 225 193
3 228 225 196
3 229 228 196
3 229 196 197
3 231 230 198
3 231 198 199
3 194 231 199
3 226 231 194
3 200 229 197
3 232 229 200
3 233 232 200
3 233 200 201
3 198 234 202
3 230 234 198
3 233 201 203
3 233 203 235
3 234 236 204
3 234 204 202
3 235 203 205
3 235 205 237
3 236 238 206
3 236 206 204
3 239 205 207
3 237 205 239
3 240 208 206
3 240 206 238
3 240 209 208
3 241 209 240
3 242 211 210
3 243 211 242
3 239 207 211
3 239 211 243
3 244 212 209
3 244 209 241
3 244 213 212
3 245 213 244
3 246 215 214
3 247 215 246
3 242 210 215
3 242 215 247
3 248 216 213
3 248 213 245
3 248 217 216
3 249 217 248
3 250 218 217
3 250 217 249
3 250 219 218
3 251 219 250
3 246 214 219
3 246 219 251
3 253 252 220
3 253 220 221
3 222 253 221
3 254 253 222
3 255 254 222
3 255 222 223
3 224 255 223
3 256 255 224
3 257 256 224
3 257 224 225
3 259 258 226
3 259 226 227
3 220 259 227
3 252 259 220
3 228 257 225
3 260 257 228
3 261 260 228
3 261 228 229
3 263 262 230
3 263 230 231
3 226 263 231
3 258 263 226
3 232 261 229
3 264 261 232
3 265 264 232
3 265 232 233
3 230 266 234
3 262 266 230
3 265 233 235
3 265 235 267
3 266 268 236
3 266 236 234
3 267 235 237
3 267 237 269
3 268 270 238
3 268 238 236
3 271 237 239
3 269 237 271
3 272 240 238
3 272 238 270
3 272 241 240
3 273 241 272
3 274 243 242
3 275 243 274
3 271 239 243
3 271 243 275
3 276 244 241
3 276 241 273
3 276 245 244
3 277 245 276
3 278 247 246
3 279 247 278
3 274 242 247
3 274 247 279
3 280 248 245
3 280 245 277
3 280 249 248
3 281 249 280
3 282 250 249
3 282 249 281
3 282 251 250
3 283 251 282
3 278 246 251
3 278 251 283
3 285 284 252
3 285 252 253
3 254 285 253
3 286 285 254
3 287 286 254
3 287 254 255
3 288 287 256
3 287 255 256
3 289 288 256
3 289 256 257
3 291 290 258
3 291 258 259
3 284 291 252
3 291 259 252
3 292 289 260
3 289 257 260
3 293 292 260
3 293 260 261
3 295 294 262
3 295 262 263
3 290 295 258
3 295 263 258
3 296 293 264
3 293 261 264
3 297 296 264
3 297 264 265
3 294 298 262
3 298 266 262
3 297 265 267
3 297 267 299
3 298 300 268
3 298 268 266
3 299 267 269
3 299 269 301
3 300 302 270
3 300 270 268
3 303 269 271
3 301 269 303
3 304 272 270
3 304 270 302
3 305 273 304
3 273 272 304
3 307 275 306
3 275 274 306
3 303 271 275
3 303 275 307
3 308 276 273
3 308 273 305
3 309 277 308
3 277 276 308
3 311 279 310
3 279 278 310
3 306 274 279
3 306 279 311
3 312 280 277
3 312 277 309
3 312 281 280
3 313 281 312
3 314 282 281
3 314 281 313
3 315 283 314
3 283 282 314
3 310 278 283
3 310 283 315
3 285 316 284
3 286 316 285
3 317 316 318
3 318 316 286
3 319 318 286
3 319 286 287
3 320 319 288
3 320 288 321
3 319 287 288
3 289 321 288
3 323 322 290
3 323 290 291
3 324 284 316
3 323 284 324
3 323 291 284
3 317 324 316
3 325 320 321
3 292 321 289
3 325 321 326
3 326 321 292
3 327 326 292
3 327 292 293
3 295 328 294
3 290 328 295
3 329 328 322
3 322 328 290
3 330 327 331
3 327 296 331
3 327 293 296
3 335 331 296
3 333 332 294
3 333 294 328
3 332 298 294
3 329 333 328
3 334 330 331
3 296 297 335
3 331 373 334
3 297 299 335
3 332 336 300
3 332 300 298
3 337 299 301
3 335 299 337
3 339 302 336
3 338 302 339
3 336 302 300
3 339 340 338
3 343 342 341
3 341 301 303
3 301 341 342
3 337 301 342
3 338 304 302
3 338 305 304
3 344 338 340
3 344 305 338
3 341 345 343
3 307 345 341
3 307 306 345
3 341 303 307
3 346 308 305
3 346 305 344
3 347 309 348
3 309 346 348
3 309 308 346
3 348 349 347
3 352 351 350
3 350 311 310
3 353 350 351
3 353 311 350
3 345 306 311
3 345 311 353
3 347 312 309
3 347 313 312
3 354 347 349
3 354 313 347
3 355 314 313
3 355 313 354
3 315 355 352
3 315 352 350
3 315 314 355
3 350 310 315
3 318 356 317
3 357 356 318
3 357 318 319
3 320 357 319
3 323 358 322
3 324 358 323
3 359 358 324
3 360 359 317
3 317 359 324
3 361 360 356
3 356 360 317
3 362 361 356
3 362 356 357
3 362 357 363
3 357 320 363
3 363 320 325
3 364 363 325
3 364 325 365
3 365 325 326
3 327 365 326
3 398 366 329
3 367 329 358
3 358 329 322
3 359 367 358
3 368 364 365
3 365 327 330
3 365 330 368
3 368 330 369
3 333 370 332
3 371 370 366
3 370 333 366
3 366 333 329
3 334 369 330
3 372 334 373
3 372 369 334
3 335 373 331
3 370 374 336
3 370 336 332
3 371 374 370
3 375 374 371
3 377 372 376
3 372 373 376
3 373 335 337
3 373 337 376
3 374 339 336
3 378 340 339
3 378 339 374
3 375 378 374
3 379 342 343
3 376 342 379
3 377 376 379
3 376 337 342
3 381 380 344
3 381 344 340
3 378 381 340
3 381 382 380
3 385 384 383
3 383 343 345
3 379 343 384
3 384 343 383
3 380 346 344
3 380 348 346
3 386 380 382
3 386 348 380
3 386 349 348
3 387 349 388
3 388 349 386
3 390 389 387
3 390 387 388
3 391 351 352
3 391 352 389
3 423 391 389
3 383 353 351
3 383 351 385
3 385 351 391
3 383 345 353
3 387 354 349
3 389 355 354
3 389 354 387
3 389 352 355
3 360 392 359
3 393 392 360
3 393 361 394
3 393 360 361
3 362 394 361
3 395 394 362
3 397 395 362
3 396 395 397
3 397 362 363
3 364 397 363
3 367 398 329
3 399 398 367
3 367 359 392
3 399 367 392
3 400 399 392
3 393 400 392
3 401 396 397
3 401 397 364
3 401 402 403
3 401 364 368
3 401 368 402
3 369 402 368
3 398 404 366
3 405 404 398
3 404 371 366
3 399 405 398
3 406 403 402
3 407 369 372
3 402 407 406
3 402 369 407
3 371 408 375
3 404 408 371
3 407 372 409
3 372 377 409
3 411 410 378
3 411 375 408
3 411 378 375
3 411 412 410
3 415 414 413
3 377 413 438
3 377 438 409
3 377 379 413
3 410 381 378
3 410 382 381
3 416 382 417
3 417 382 410
3 417 410 412
3 417 418 416
3 421 420 419
3 415 384 385
3 413 384 415
3 415 385 419
3 415 419 420
3 413 379 384
3 416 386 382
3 422 416 418
3 388 416 422
3 388 386 416
3 423 390 445
3 390 388 422
3 423 389 390
3 419 423 421
3 419 391 423
3 419 385 391
3 394 424 393
3 425 424 394
3 425 394 395
3 429 425 395
3 400 426 399
3 427 426 400
3 424 427 400
3 428 427 424
3 424 400 393
3 429 428 425
3 428 424 425
3 429 396 430
3 395 396 429
3 430 396 403
3 431 430 403
3 396 401 403
3 405 432 404
3 433 405 426
3 432 405 433
3 426 405 399
3 406 431 403
3 434 406 435
3 434 431 406
3 407 435 406
3 432 436 408
3 432 408 404
3 437 436 432
3 437 432 433
3 439 434 435
3 439 435 438
3 435 407 409
3 435 409 438
3 436 411 408
3 440 412 436
3 412 411 436
3 437 440 436
3 441 414 420
3 438 414 439
3 439 414 441
3 438 413 414
3 442 417 412
3 442 412 440
3 442 418 417
3 443 418 444
3 444 418 442
3 446 445 443
3 446 443 463
3 447 420 421
3 447 421 446
3 446 421 445
3 414 415 420
3 441 420 447
3 443 422 418
3 445 390 422
3 445 422 443
3 445 421 423
3 427 448 426
3 449 448 427
3 449 427 428
3 450 449 428
3 450 428 429
3 451 450 430
3 450 429 430
3 431 451 430
3 448 452 433
3 448 433 426
3 453 452 448
3 453 448 454
3 454 448 449
3 455 454 449
3 455 449 450
3 451 455 450
3 456 455 451
3 457 456 451
3 451 431 457
3 431 434 457
3 452 458 437
3 452 437 433
3 459 458 453
3 458 452 453
3 461 456 457
3 461 457 460
3 457 434 460
3 434 439 460
3 458 462 440
3 458 440 437
3 444 462 464
3 462 459 464
3 462 458 459
3 466 465 463
3 466 463 464
3 460 467 461
3 467 465 466
3 461 467 466
3 460 439 441
3 460 441 467
3 462 442 440
3 462 444 442
3 463 444 464
3 463 443 444
3 465 446 463
3 467 447 465
3 447 446 465
3 467 441 447
3 454 468 453
3 469 454 455
3 468 454 469
3 456 469 455
3 468 459 453
3 470 459 468
3 468 471 470
3 469 471 468
3 456 471 469
3 461 471 456
3 470 464 459
3 466 464 470
3 466 470 471
3 471 461 466
