ply
format ascii 1.0
element vertex 828
property float32 x
property float32 y
property float32 z
element face 1652
property list uint8 int32 vertex_indices
end_header
-0.485804 -0.257084 -0.835405
-0.532568 -0.666583 -0.521573
-0.434663 -0.520913 -0.734655
-0.187256 -0.601690 -0.776469
-0.295092 -0.752025 -0.589389
0.054531 -0.515642 -0.855067
0.481623 -0.543869 -0.687202
0.302000 -0.398231 -0.866146
-0.221005 -0.360999 -0.906000
-0.652774 -0.419654 -0.630696
0.029267 0.062030 -0.997645
0.043244 -0.237775 -0.970357
0.548728 0.032167 -0.835382
0.308250 -0.102355 -0.945783
0.740642 0.154929 -0.653794
-0.509063 0.027585 -0.860287
-0.509018 0.309115 -0.803336
-0.244722 -0.083862 -0.965960
0.270891 0.480476 -0.834123
0.296561 0.199795 -0.933881
0.705293 0.413137 -0.576089
-0.482617 0.559569 -0.673768
-0.256873 0.206235 -0.944184
-0.255107 0.479712 -0.839522
0.015549 0.355968 -0.934369
0.528879 0.318912 -0.786500
0.231553 0.715327 -0.659311
-0.237133 0.711475 -0.661492
0.003075 0.616638 -0.787241
-0.116847 -0.888509 -0.443733
-0.195157 -0.957551 -0.212156
-0.254148 -0.967151 0.005281
0.150729 -0.860947 -0.485850
0.040176 -0.964065 -0.262611
0.392894 -0.771050 -0.501115
0.282635 -0.915888 -0.285072
0.502766 -0.820211 -0.272912
0.391606 -0.916900 -0.077062
0.564517 -0.824987 -0.026765
-0.585244 -0.757129 -0.290249
-0.749873 -0.639557 -0.169287
-0.420050 -0.895759 -0.145510
-0.370680 -0.851443 -0.371001
-0.008700 -0.754406 -0.656350
0.243819 -0.667986 -0.703098
0.606964 -0.642711 -0.467458
0.679732 -0.696063 -0.231216
0.786645 -0.499223 -0.363270
0.911014 -0.356094 -0.207968
-0.825857 -0.305064 -0.474232
-0.940246 -0.191257 -0.281707
-0.868092 -0.430818 -0.246600
-0.727932 -0.553706 -0.404383
0.538900 -0.263135 -0.800217
0.694197 -0.401579 -0.597348
0.959443 -0.126137 -0.252109
0.858057 -0.257588 -0.444282
0.970183 -0.240597 -0.029296
-0.868286 -0.041557 -0.494320
-0.961997 0.054508 -0.267566
-0.706723 -0.150088 -0.691388
0.740358 -0.125009 -0.660487
0.884932 0.006282 -0.465677
0.998594 -0.021126 -0.048620
-0.862067 0.216446 -0.458248
-0.932684 0.284036 -0.222316
-0.720027 0.125685 -0.682469
0.809008 0.491215 -0.322821
0.866147 0.264246 -0.424221
0.963131 0.116700 -0.242405
-0.819565 0.453990 -0.349580
-0.859918 0.499968 -0.102826
-0.736214 0.646031 -0.201575
-0.701971 0.386085 -0.598478
0.483855 0.571339 -0.662915
0.642892 0.625923 -0.441487
0.921959 0.344091 -0.177744
0.720180 0.670330 -0.178880
-0.749447 0.661570 0.025573
-0.652926 0.602477 -0.459031
-0.589797 0.805537 -0.057000
-0.435409 0.757569 -0.486321
-0.007992 0.822687 -0.568439
0.422129 0.768191 -0.481342
0.381924 0.892364 -0.240459
0.561850 0.781594 -0.270989
0.718658 0.693701 0.048061
-0.578528 0.764496 -0.284345
-0.227403 0.877595 -0.422038
-0.407129 0.882614 -0.235030
-0.015290 0.948140 -0.317485
0.203624 0.882585 -0.423770
0.358851 0.932976 -0.027946
0.172758 0.969080 -0.176181
0.564715 0.823930 -0.047296
-0.384421 0.923060 -0.013452
-0.206768 0.963177 -0.171866
-0.021657 0.997920 -0.060722
-0.451538 -0.850308 0.270350
-0.552988 -0.748418 0.366162
-0.313309 -0.874124 0.371141
-0.440479 -0.894599 0.075305
-0.282716 -0.935507 0.211891
-0.038960 -0.998872 -0.027129
-0.112653 -0.978797 0.171075
0.168639 -0.983084 -0.071457
0.098528 -0.982898 0.155575
0.287333 -0.952992 0.096154
0.270391 -0.923885 0.270787
0.456531 -0.875945 0.155884
-0.593012 -0.788875 0.161287
-0.729402 -0.564310 0.386687
-0.682666 -0.677365 0.274123
-0.601223 -0.797038 -0.057104
0.712285 -0.701790 -0.011840
0.640736 -0.746621 0.178926
0.794375 -0.595601 0.119283
0.726936 -0.616379 0.302724
0.764492 -0.488298 0.420852
-0.858042 -0.513176 -0.020355
-0.906221 -0.398234 0.142034
-0.805960 -0.558919 0.195032
-0.733846 -0.676742 0.059076
0.826461 -0.549828 -0.121041
0.900495 -0.433491 0.034563
-0.948413 -0.310066 -0.066118
-0.969552 -0.212730 0.121309
0.980469 -0.133325 0.144583
0.845191 -0.473486 0.247918
0.930622 -0.314198 0.187674
-0.993411 -0.087400 -0.074129
-0.991022 -0.026866 0.130971
0.986834 0.067392 0.147027
0.951311 -0.042037 0.305351
-0.990408 0.134073 -0.033401
-0.972970 0.144620 0.180038
0.979986 0.198349 -0.016908
0.935290 0.134062 0.327507
-0.940023 0.340956 -0.010250
-0.940555 0.300769 0.157779
0.842472 0.534349 -0.068648
0.918539 0.390806 0.059638
0.947061 0.254666 0.195500
-0.878637 0.382307 0.286074
-0.854525 0.503288 0.128408
-0.743024 0.624923 0.239556
0.821097 0.549315 0.155086
0.872104 0.406738 0.272029
0.800954 0.387171 0.456697
-0.631528 0.757639 0.164789
-0.610556 0.709140 0.352621
-0.485488 0.864763 0.128396
0.467455 0.873941 0.133090
0.601910 0.776236 0.187514
0.709361 0.652055 0.267640
0.774957 0.519318 0.360209
-0.474385 0.746885 0.465962
-0.484903 0.818748 0.307442
-0.208493 0.975919 0.064138
-0.330760 0.914921 0.231339
-0.017080 0.987367 0.157530
0.166342 0.984626 0.053310
0.304342 0.932954 0.192281
0.447293 0.835179 0.320008
0.339675 0.816996 0.465981
-0.157808 0.953162 0.258030
-0.026669 0.926752 0.374725
0.123352 0.957783 0.259686
0.275307 0.891983 0.358570
-0.159594 -0.911316 0.379517
-0.259791 -0.821587 0.507448
-0.127932 -0.828183 0.545661
-0.014128 -0.951253 0.308088
-0.013816 -0.883080 0.469019
0.129325 -0.921506 0.366200
0.110703 -0.839075 0.532634
0.381063 -0.849423 0.365063
0.243037 -0.855762 0.456732
0.339360 -0.775148 0.532899
-0.614299 -0.638852 0.463147
-0.490292 -0.689761 0.532769
-0.351862 -0.730789 0.584928
-0.417338 -0.788215 0.452267
0.522227 -0.797779 0.301377
0.470308 -0.748020 0.468270
0.608964 -0.691852 0.387947
0.539710 -0.641423 0.545243
0.659003 -0.576127 0.483521
-0.745182 -0.452750 0.489613
-0.745325 -0.339553 0.573755
-0.645272 -0.526666 0.553396
0.765198 -0.367859 0.528349
0.677321 -0.458995 0.574943
0.672764 -0.344064 0.654987
-0.834753 -0.441535 0.328990
0.855888 -0.356271 0.374868
0.835483 -0.246528 0.491113
-0.911024 -0.283383 0.299549
-0.872308 -0.181065 0.454196
-0.831669 -0.324338 0.450702
0.919839 -0.205241 0.334324
-0.944874 -0.116867 0.305869
-0.880571 -0.039583 0.472258
0.877910 -0.104446 0.467295
0.799158 -0.131140 0.586642
0.745088 -0.048330 0.665213
-0.944092 0.044373 0.326681
-0.875802 0.100410 0.472110
0.892898 0.033377 0.449019
0.715277 0.051436 0.696945
-0.908949 0.218128 0.355292
-0.823904 0.203526 0.528922
0.852056 0.157462 0.499205
0.815909 0.018217 0.577893
-0.751891 0.306685 0.583613
-0.796337 0.497027 0.344691
-0.829467 0.336627 0.445720
0.879369 0.274207 0.389255
0.791009 0.265815 0.551042
-0.689242 0.585696 0.426503
-0.741813 0.444290 0.502315
0.577051 0.726427 0.373251
0.659999 0.603553 0.447354
0.706138 0.475453 0.524703
-0.637516 0.521320 0.567273
-0.348635 0.840569 0.414606
-0.568888 0.642258 0.513683
-0.204210 0.892279 0.402663
0.460867 0.743656 0.484332
0.544529 0.643704 0.537711
0.604464 0.529842 0.594888
-0.351462 0.748657 0.562128
-0.231831 0.808394 0.541067
-0.092702 0.849532 0.519328
0.045283 0.846886 0.529842
-0.016284 0.770056 0.637768
0.129503 0.897493 0.421587
0.205629 0.822394 0.530458
0.109215 0.765173 0.634494
0.333572 0.736793 0.588103
0.057649 0.687441 0.723949
0.169022 0.668883 0.723897
-0.220819 -0.743476 0.631255
-0.297314 -0.655629 0.694086
-0.185121 -0.656605 0.731163
-0.104274 -0.733627 0.671504
-0.005540 -0.793304 0.608801
0.099970 -0.742581 0.662253
0.212651 -0.770243 0.601253
0.295597 -0.690184 0.660506
0.414555 -0.678831 0.606080
0.357832 -0.601558 0.714202
-0.536627 -0.583839 0.609231
-0.564423 -0.472549 0.676849
-0.459393 -0.532022 0.711274
-0.416241 -0.633066 0.652665
0.468662 -0.578940 0.667221
0.577757 -0.529846 0.620854
-0.656290 -0.412574 0.631717
0.589486 -0.417093 0.691766
0.576920 -0.315656 0.753343
-0.786944 -0.217307 0.577492
-0.715500 -0.166405 0.678505
-0.681989 -0.285386 0.673384
0.744560 -0.250236 0.618880
0.644874 -0.242957 0.724645
0.527967 -0.129020 0.839407
-0.804222 -0.086073 0.588063
0.701907 -0.153982 0.695425
0.610948 -0.144581 0.778356
-0.725435 -0.043195 0.686934
0.659283 -0.051950 0.750098
-0.798878 0.052275 0.599218
0.623820 0.041181 0.780483
-0.745612 0.168716 0.644669
0.767391 0.138375 0.626069
0.665055 0.139510 0.733648
-0.670257 0.392951 0.629560
-0.676039 0.263859 0.688004
0.714154 0.354044 0.603851
0.702257 0.235298 0.671916
-0.599219 0.336824 0.726282
-0.577178 0.456281 0.677254
0.627978 0.415519 0.658017
0.626077 0.307036 0.716768
-0.523977 0.563994 0.638247
-0.447622 0.661624 0.601572
0.497376 0.563997 0.659185
0.446449 0.486304 0.751127
0.537836 0.457154 0.708339
-0.339809 0.649460 0.680243
-0.245879 0.711962 0.657764
-0.247429 0.611843 0.751283
-0.134178 0.756672 0.639878
0.225588 0.732790 0.641973
0.421207 0.661110 0.620901
0.294256 0.647366 0.703087
0.386313 0.581963 0.715598
-0.155869 0.659771 0.735124
-0.052879 0.683539 0.727996
0.009907 0.606372 0.795119
0.104742 0.600471 0.792757
0.204334 0.587227 0.783206
-0.084513 -0.637753 0.765591
-0.154014 -0.568978 0.807802
-0.067852 -0.546301 0.834836
0.000052 -0.696050 0.717993
0.004311 -0.599990 0.799996
0.089666 -0.644589 0.759253
0.080049 -0.550900 0.830724
0.187551 -0.675123 0.713466
-0.353211 -0.563478 0.746816
-0.299553 -0.491878 0.817511
-0.209889 -0.496570 0.842238
-0.250058 -0.575468 0.778658
0.257500 -0.598609 0.758525
0.311186 -0.516045 0.798036
0.351970 -0.430524 0.831123
0.402458 -0.511125 0.759459
0.429807 -0.420139 0.799218
-0.491574 -0.429975 0.757282
-0.394260 -0.469835 0.789819
0.500787 -0.475234 0.723440
0.502199 -0.372104 0.780599
0.484500 -0.287685 0.826134
-0.586402 -0.351477 0.729792
-0.535527 -0.265468 0.801709
-0.495902 -0.342606 0.797936
0.552440 -0.222753 0.803238
-0.620317 -0.231924 0.749278
0.473903 -0.195843 0.858523
0.452005 -0.112430 0.884901
-0.643080 -0.120143 0.756316
-0.564127 -0.074754 0.822297
-0.560655 -0.166841 0.811067
0.495549 -0.045721 0.867376
-0.637735 -0.017211 0.770064
-0.547458 0.009154 0.836783
0.575468 -0.049761 0.816309
-0.702722 0.067202 0.708284
-0.607798 0.072706 0.790756
0.537541 0.031650 0.842644
-0.649556 0.162908 0.742656
-0.582020 0.242912 0.776046
0.573505 0.118433 0.810596
-0.504121 0.306072 0.807578
0.602872 0.211754 0.769224
0.514259 0.179426 0.838656
-0.520416 0.390645 0.759317
-0.408514 0.323451 0.853519
0.459645 0.307921 0.833013
0.532900 0.266500 0.803116
-0.437892 0.393971 0.808107
-0.474177 0.484089 0.735401
-0.384733 0.474769 0.791565
0.379948 0.414821 0.826779
0.544474 0.357249 0.758894
-0.415327 0.570266 0.708731
-0.323446 0.548916 0.770762
-0.167581 0.563443 0.808980
0.288732 0.554671 0.780367
0.359536 0.497192 0.789642
0.294183 0.455091 0.840446
-0.101122 0.506639 0.856207
-0.082763 0.594109 0.800116
-0.023019 0.525228 0.850650
0.059029 0.527401 0.847563
0.143856 0.519489 0.842280
0.223757 0.496219 0.838868
-0.127450 -0.485957 0.864640
-0.053911 -0.462408 0.885027
0.007553 -0.510028 0.860124
0.071888 -0.465001 0.882387
0.142988 -0.493601 0.857853
0.163672 -0.581434 0.796960
0.223369 -0.511582 0.829693
-0.331133 -0.409271 0.850205
-0.250435 -0.422800 0.870932
-0.174092 -0.422591 0.889443
0.271748 -0.437555 0.857146
0.174482 -0.360874 0.916147
0.243618 -0.367998 0.897345
-0.413717 -0.380838 0.826923
-0.356950 -0.327501 0.874831
0.321831 -0.361557 0.875044
0.407635 -0.340994 0.847087
-0.412036 -0.221404 0.883859
-0.436557 -0.290203 0.851587
0.414663 -0.252460 0.874253
0.347571 -0.289250 0.891924
0.404560 -0.168720 0.898813
-0.482903 -0.207525 0.850728
0.341442 -0.142169 0.929088
-0.484250 -0.043145 0.873865
-0.491199 -0.121575 0.862522
0.382615 -0.096870 0.918815
-0.461465 0.026297 0.886768
0.421142 -0.041197 0.906059
-0.513233 0.081385 0.854382
0.457550 0.023830 0.888865
-0.559737 0.148071 0.815334
-0.467952 0.142210 0.872237
0.489092 0.097756 0.866737
-0.503723 0.209956 0.837963
-0.443301 0.255856 0.859082
0.434637 0.150242 0.887985
-0.369165 0.253522 0.894116
0.384434 0.262362 0.885086
0.450270 0.226618 0.863656
-0.330461 0.314610 0.889840
-0.352976 0.391082 0.849978
0.461447 0.393638 0.795057
0.385802 0.336797 0.858909
-0.300902 0.456405 0.837349
-0.240643 0.515268 0.822551
-0.229722 0.425331 0.875398
0.253040 0.331246 0.908981
0.310681 0.373300 0.874142
0.318242 0.298449 0.899806
-0.170795 0.472240 0.864765
-0.111033 0.424882 0.898414
-0.045536 0.447836 0.892955
0.025198 0.456264 0.889488
0.098684 0.453251 0.885904
0.170807 0.437567 0.882814
0.237864 0.407169 0.881836
-0.104076 -0.410036 0.906112
-0.041685 -0.387333 0.920997
0.010184 -0.428833 0.903326
0.065292 -0.388816 0.918999
0.126399 -0.414279 0.901330
0.195396 -0.431695 0.880602
-0.281498 -0.349543 0.893632
-0.210359 -0.358439 0.909544
-0.144329 -0.355577 0.923436
0.113193 -0.345140 0.931701
0.151683 -0.298641 0.942234
0.210755 -0.305316 0.928636
-0.293898 -0.281040 0.913587
-0.232426 -0.295579 0.926613
0.275637 -0.304485 0.911764
0.294892 -0.242234 0.924317
-0.356764 -0.182708 0.916153
-0.356250 -0.257754 0.898136
0.354698 -0.214284 0.910094
0.302182 -0.180296 0.936045
-0.422881 -0.150494 0.893601
0.276852 -0.130572 0.952000
-0.407852 -0.017981 0.912871
-0.421306 -0.081632 0.903237
0.317017 -0.087652 0.944361
-0.382999 0.038496 0.922946
0.352801 -0.038971 0.934886
-0.426784 0.085685 0.900285
0.384982 0.016941 0.922769
-0.384569 0.135376 0.913115
0.412646 0.080076 0.907365
-0.416261 0.191211 0.888912
-0.343960 0.190672 0.919421
0.364016 0.126465 0.922767
-0.281541 0.186427 0.941265
0.313765 0.166159 0.934849
0.377192 0.191926 0.906030
-0.303160 0.245667 0.920729
-0.263790 0.297751 0.917474
0.319083 0.229458 0.919530
-0.280452 0.371521 0.885053
-0.217500 0.345500 0.912866
0.204545 0.290974 0.934610
0.261446 0.262719 0.928776
0.263395 0.200425 0.943638
-0.168181 0.389338 0.905611
-0.115036 0.350933 0.929307
-0.060459 0.376277 0.924532
-0.000016 0.389445 0.921050
0.063741 0.391083 0.918145
0.127851 0.381337 0.915552
0.189486 0.359380 0.913751
-0.084400 -0.342574 0.935692
-0.031221 -0.321592 0.946364
0.012831 -0.357195 0.933942
0.015257 -0.295022 0.955369
0.054621 -0.264438 0.962855
0.060188 -0.322462 0.944667
-0.173172 -0.300490 0.937932
-0.117597 -0.296054 0.947905
-0.066977 -0.283463 0.956641
-0.052542 -0.232377 0.971206
0.087111 -0.231185 0.969002
0.099506 -0.284335 0.953547
0.131002 -0.244075 0.960867
0.181160 -0.250448 0.951029
-0.247375 -0.234018 0.940235
-0.194207 -0.245842 0.949655
0.155947 -0.202759 0.966731
0.236354 -0.248801 0.939274
0.253543 -0.191654 0.948148
-0.305502 -0.149153 0.940437
-0.302339 -0.213846 0.928903
0.177284 -0.161348 0.970844
0.225432 -0.151680 0.962379
-0.361416 -0.117895 0.924921
0.232990 -0.105190 0.966773
0.220599 -0.057747 0.973654
-0.355496 -0.057701 0.932895
-0.305519 -0.091823 0.947748
0.265697 -0.073901 0.961220
-0.339389 -0.003330 0.940640
-0.296664 -0.039661 0.954158
0.294654 -0.033198 0.955027
-0.350056 0.087233 0.932658
0.321756 0.013481 0.946727
-0.316442 0.137105 0.938651
-0.287791 0.090701 0.953389
-0.235627 0.091890 0.967490
0.345235 0.066812 0.936135
-0.258956 0.135627 0.956320
0.286616 0.057242 0.956334
-0.227533 0.178173 0.957331
-0.209771 0.130991 0.968936
-0.180923 0.167300 0.969163
0.249804 0.093261 0.963795
0.302699 0.108669 0.946871
-0.244603 0.233259 0.941148
0.259333 0.143978 0.954996
0.212861 0.124097 0.969170
0.215978 0.174094 0.960752
-0.206241 0.276983 0.938480
-0.162767 0.316503 0.934523
-0.156665 0.254079 0.954411
-0.115518 0.285923 0.951264
0.172616 0.199196 0.964637
0.213360 0.229578 0.949617
-0.069792 0.311690 0.947617
-0.018630 0.328068 0.944470
0.036423 0.333838 0.941927
0.092913 0.329053 0.939729
0.148529 0.313641 0.937853
0.163606 0.253361 0.953437
-0.022072 -0.264550 0.964119
0.016538 -0.240944 0.970398
-0.143228 -0.249108 0.957826
-0.095592 -0.244218 0.964997
-0.077161 -0.199651 0.976824
-0.015097 -0.215103 0.976475
-0.010162 -0.172244 0.985002
0.016610 -0.194244 0.980813
0.049003 -0.214238 0.975552
0.113750 -0.196332 0.973917
0.099462 -0.155801 0.982768
-0.208400 -0.192375 0.958938
-0.162432 -0.202453 0.965727
-0.118239 -0.204795 0.971637
0.117758 -0.124453 0.985213
0.136128 -0.160578 0.977591
0.203504 -0.201394 0.958137
-0.256307 -0.175056 0.950611
-0.174611 -0.156368 0.972142
-0.135311 -0.165416 0.976897
0.151278 -0.123924 0.980693
0.189793 -0.122182 0.974192
-0.258644 -0.119657 0.958533
-0.215777 -0.141478 0.966139
0.144860 -0.057902 0.987756
0.195612 -0.084463 0.977037
-0.255443 -0.069902 0.964294
0.177146 -0.052182 0.982800
0.196558 -0.023326 0.980215
-0.314907 0.044545 0.948077
-0.279806 0.006971 0.960031
0.243951 -0.026278 0.969431
-0.258862 0.050414 0.964598
-0.229806 0.015981 0.973105
0.217480 0.009324 0.976020
-0.211797 0.054512 0.975792
0.266542 0.012226 0.963746
-0.191140 0.090618 0.977371
0.235525 0.048346 0.970665
0.191704 0.039821 0.980645
0.154864 0.033675 0.987362
-0.167546 0.124163 0.978014
-0.131312 0.115872 0.984546
0.204553 0.079380 0.975632
-0.193415 0.217779 0.956641
-0.140782 0.154829 0.977859
-0.149072 0.200483 0.968289
0.173308 0.106460 0.979097
0.166139 0.067563 0.983785
-0.114114 0.230027 0.966471
-0.075188 0.254714 0.964089
-0.110877 0.182147 0.977000
-0.077830 0.205430 0.975572
0.129042 0.218831 0.967193
0.138131 0.171605 0.975434
0.099931 0.187479 0.977172
0.175668 0.150303 0.972908
-0.032042 0.272679 0.961571
0.015101 0.281771 0.959363
0.064481 0.281232 0.957471
0.114063 0.271102 0.955768
-0.096912 -0.167027 0.981178
-0.061789 -0.161120 0.984999
-0.040870 -0.188137 0.981292
-0.032166 -0.149466 0.988243
-0.006032 -0.135828 0.990714
0.043680 -0.171422 0.984229
0.076305 -0.185650 0.979649
0.066703 -0.147271 0.986844
-0.112121 -0.134283 0.984580
-0.067532 -0.103564 0.992328
-0.078891 -0.134593 0.987756
0.038873 -0.134898 0.990097
0.057671 -0.114583 0.991738
0.130086 -0.090193 0.987392
0.085909 -0.122058 0.988798
-0.179849 -0.112710 0.977216
-0.118363 -0.099475 0.987975
0.102260 -0.095503 0.990163
0.161351 -0.088593 0.982913
0.112394 -0.063591 0.991627
-0.216379 -0.094144 0.971760
-0.178551 -0.072594 0.981249
0.101472 -0.036222 0.994179
0.056126 -0.027765 0.998038
-0.245039 -0.025083 0.969189
-0.211114 -0.051531 0.976102
0.077073 -0.030550 0.996557
0.126637 -0.038721 0.991193
-0.200937 -0.012833 0.979520
0.155012 -0.025132 0.987593
0.093841 -0.014143 0.995487
-0.187552 0.023131 0.981982
0.121414 -0.015076 0.992487
0.083269 0.004640 0.996516
-0.171620 0.056390 0.983548
-0.151199 0.028033 0.988106
-0.137161 0.056165 0.988955
0.174855 0.005337 0.984580
0.140562 0.004670 0.990061
-0.153031 0.087340 0.984354
-0.091434 0.031384 0.995317
0.108904 0.006206 0.994033
-0.100214 0.106697 0.989228
-0.120472 0.082610 0.989274
-0.092723 0.077175 0.992697
0.123007 0.028601 0.991994
0.094587 0.025128 0.995199
0.133101 0.057228 0.989449
-0.106267 0.141387 0.984234
-0.073363 0.096718 0.992604
-0.076605 0.127194 0.988915
0.141393 0.128837 0.981534
0.139519 0.090689 0.986058
0.112209 0.109529 0.987630
-0.078164 0.163168 0.983497
-0.041332 0.223542 0.973818
-0.047275 0.180629 0.982415
-0.001311 0.234877 0.972024
-0.013565 0.193030 0.981099
0.041442 0.237899 0.970405
0.061261 0.196904 0.978507
0.085230 0.232184 0.968931
0.075486 0.159213 0.984354
0.109015 0.146750 0.983148
-0.050836 -0.126626 0.990647
-0.025161 -0.117155 0.992795
0.016374 -0.154339 0.987882
-0.092493 -0.108232 0.989814
-0.060229 -0.080716 0.994916
-0.035684 -0.076052 0.996465
-0.042359 -0.098609 0.994224
-0.019813 -0.090298 0.995718
-0.002871 -0.105139 0.994453
0.016297 -0.120179 0.992619
0.034983 -0.103182 0.994047
0.073803 -0.093952 0.992837
-0.144986 -0.125550 0.981436
-0.089198 -0.081357 0.992686
-0.072584 -0.062614 0.995395
-0.048371 -0.061879 0.996911
0.051028 -0.085662 0.995017
0.089015 -0.073285 0.993331
0.066067 -0.067938 0.995500
-0.147636 -0.088533 0.985071
-0.094777 -0.054313 0.994016
0.061877 -0.046267 0.997011
0.009834 -0.022108 0.999707
0.084565 -0.051334 0.995095
-0.172527 -0.036456 0.984330
-0.144713 -0.055399 0.987922
-0.117203 -0.070154 0.990627
0.028942 -0.049529 0.998353
0.022158 -0.032088 0.999239
-0.163556 -0.002728 0.986530
-0.140035 -0.023764 0.989861
0.037936 -0.024596 0.998977
0.050952 -0.012040 0.998629
-0.131291 0.005069 0.991331
-0.102887 0.010362 0.994639
0.070276 -0.012507 0.997449
-0.119430 0.030622 0.992370
0.071307 0.020823 0.997237
0.061635 0.003478 0.998093
0.051470 0.017503 0.998521
-0.107878 0.054307 0.992680
-0.078177 0.013132 0.996853
-0.083646 0.051982 0.995139
0.078811 0.041475 0.996026
0.104398 0.048337 0.993360
-0.068750 0.071005 0.995104
-0.064002 0.048818 0.996755
-0.048347 0.061940 0.996908
0.110463 0.076645 0.990921
0.085062 0.064407 0.994292
0.065210 0.076874 0.994906
-0.051325 0.111983 0.992384
-0.050306 0.085055 0.995105
-0.050461 0.143629 0.988344
-0.030275 0.096103 0.994911
-0.022072 0.155992 0.987512
0.055013 0.133780 0.989483
0.063956 0.104824 0.992432
0.041491 0.165032 0.985415
0.084511 0.124528 0.988610
0.087200 0.092220 0.991913
0.008538 0.163695 0.986474
0.022971 0.198844 0.979762
-0.016434 -0.067593 0.997578
-0.001082 -0.079348 0.996846
0.000231 -0.040569 0.999177
0.015815 -0.091228 0.995704
-0.041026 -0.042534 0.998252
-0.058491 -0.047281 0.997168
-0.029587 -0.055392 0.998026
0.012745 -0.019628 0.999726
-0.013692 -0.048209 0.998743
-0.000245 -0.058073 0.998312
0.014995 -0.067220 0.997626
0.031798 -0.076320 0.996576
0.046335 -0.061223 0.997048
-0.055471 -0.030229 0.998003
-0.038160 -0.026568 0.998918
-0.025530 -0.037507 0.998970
0.000703 -0.026204 0.999656
0.029141 -0.054032 0.998114
0.026413 -0.035491 0.999021
0.042696 -0.041234 0.998237
-0.001619 -0.031665 0.999497
-0.117143 -0.040714 0.992280
-0.075727 -0.039553 0.996344
-0.020523 -0.010826 0.999731
-0.002149 -0.015909 0.999871
0.020565 -0.050426 0.998516
0.021787 -0.011464 0.999697
-0.093548 -0.028488 0.995207
-0.071234 -0.019864 0.997262
-0.034791 -0.012979 0.999310
0.028539 0.000647 0.999592
0.021512 0.011121 0.999707
0.034927 -0.010951 0.999330
-0.112012 -0.013468 0.993616
-0.086979 -0.006387 0.996190
0.035820 0.013282 0.999270
0.027093 0.022975 0.999369
0.043982 0.001815 0.999031
-0.065061 -0.002457 0.997878
-0.057203 0.012869 0.998280
-0.024501 0.008423 0.999664
-0.039270 0.010735 0.999171
0.058142 0.034602 0.997708
0.039743 0.029835 0.998764
-0.066847 0.030042 0.997311
-0.047773 0.041370 0.998001
-0.046742 0.025284 0.998587
-0.031930 0.052148 0.998129
0.041911 0.066627 0.996897
0.043946 0.046103 0.997970
0.028910 0.051622 0.998248
0.061480 0.055297 0.996575
-0.031289 0.072435 0.996882
-0.027483 0.123815 0.991925
-0.015482 0.059921 0.998083
-0.008829 0.104142 0.994523
-0.012979 0.080157 0.996698
0.038026 0.110570 0.993141
0.014051 0.108732 0.993972
0.026712 0.086726 0.995874
0.020430 0.067578 0.997505
0.046757 0.087302 0.995084
-0.001822 0.131907 0.991260
0.025507 0.136044 0.990374
0.000658 -0.005280 0.999986
0.012766 -0.032130 0.999402
-0.011731 -0.032076 0.999417
-0.010357 -0.019054 0.999765
0.001034 -0.014902 0.999888
0.014019 -0.047728 0.998762
0.025792 -0.013146 0.999581
-0.008650 -0.008239 0.999929
-0.023261 -0.022977 0.999465
-0.004786 0.001312 0.999988
-0.001095 -0.005072 0.999987
0.009944 -0.003886 0.999943
0.005260 0.001973 0.999984
-0.051420 -0.014892 0.998566
-0.030196 -0.001390 0.999543
-0.016310 -0.000430 0.999867
-0.011161 0.008654 0.999900
0.010049 -0.008150 0.999916
0.010102 0.011156 0.999887
0.016012 0.000475 0.999872
-0.046183 -0.001127 0.998932
-0.018101 0.017184 0.999688
-0.030726 0.021244 0.999302
-0.004953 0.032490 0.999460
0.003614 0.021599 0.999760
-0.007205 0.019752 0.999779
-0.000485 0.010368 0.999946
-0.017983 0.028962 0.999419
-0.031952 0.035327 0.998865
-0.002522 0.047254 0.998880
0.008478 0.034977 0.999352
0.023700 0.036460 0.999054
0.014999 0.023012 0.999623
-0.017301 0.042905 0.998929
0.001781 0.064798 0.997897
0.006332 0.085072 0.996355
0.012756 0.049960 0.998670
3 1 9 2
3 0 8 2
3 4 2 3
3 5 7 44
3 43 4 3
3 5 44 43
3 0 60 15
3 0 2 9
3 8 17 11
3 3 2 8
3 11 5 8
3 5 3 8
3 53 13 12
3 7 5 11
3 13 53 7
3 25 12 19
3 66 15 60
3 15 17 0
3 8 0 17
3 11 17 10
3 19 13 10
3 24 18 19
3 22 10 17
3 10 13 11
3 12 13 19
3 14 12 25
3 21 23 16
3 16 22 15
3 22 16 23
3 22 17 15
3 24 10 22
3 24 19 10
3 26 74 18
3 26 18 28
3 18 74 25
3 14 25 20
3 27 82 28
3 23 27 28
3 28 24 23
3 24 28 18
3 29 33 30
3 29 32 33
3 103 31 30
3 32 43 44
3 35 33 32
3 35 36 37
3 36 35 34
3 36 38 37
3 40 39 113
3 41 42 30
3 39 42 41
3 30 42 29
3 42 4 29
3 1 2 4
3 34 32 44
3 35 32 34
3 6 45 34
3 36 34 45
3 46 36 45
3 38 36 46
3 46 45 47
3 123 47 48
3 50 49 51
3 52 39 40
3 51 49 52
3 52 40 51
3 42 39 1
3 52 1 39
3 1 4 42
3 43 29 4
3 29 43 32
3 3 5 43
3 44 7 6
3 34 44 6
3 53 54 6
3 45 54 47
3 6 7 53
3 45 6 54
3 54 56 47
3 47 56 48
3 56 55 48
3 63 57 55
3 50 59 58
3 49 50 58
3 49 60 9
3 1 52 9
3 49 9 52
3 49 58 60
3 11 13 7
3 61 12 14
3 54 53 61
3 61 56 54
3 69 63 55
3 53 12 61
3 62 56 61
3 62 55 56
3 60 58 66
3 58 64 66
3 59 65 64
3 58 59 64
3 66 16 15
3 9 60 0
3 67 68 20
3 62 61 14
3 68 14 20
3 14 68 62
3 69 62 68
3 68 76 69
3 71 70 65
3 70 64 65
3 72 79 70
3 16 73 21
3 64 70 73
3 64 73 66
3 16 66 73
3 23 21 27
3 25 19 18
3 20 74 75
3 75 67 20
3 25 74 20
3 75 77 67
3 76 68 67
3 67 77 140
3 55 62 69
3 78 80 72
3 78 72 71
3 71 72 70
3 79 73 70
3 21 79 81
3 87 79 72
3 88 27 81
3 81 27 21
3 79 21 73
3 28 82 26
3 23 24 22
3 83 75 74
3 26 82 91
3 84 85 83
3 85 75 83
3 74 26 83
3 86 77 94
3 85 94 77
3 80 87 72
3 79 87 81
3 89 81 87
3 88 81 89
3 27 88 82
3 82 88 90
3 83 26 91
3 93 91 90
3 83 91 84
3 93 84 91
3 84 93 92
3 94 85 84
3 152 153 94
3 75 85 77
3 89 96 88
3 90 88 96
3 89 95 96
3 96 97 90
3 93 90 97
3 82 90 91
3 182 99 98
3 101 102 98
3 100 98 102
3 103 104 31
3 31 104 102
3 104 103 106
3 103 105 106
3 106 105 107
3 107 105 37
3 109 176 108
3 112 121 122
3 101 98 110
3 112 99 179
3 99 112 110
3 30 31 41
3 41 31 101
3 113 41 101
3 103 30 33
3 31 102 101
3 105 103 33
3 105 33 35
3 37 105 35
3 106 107 108
3 115 109 38
3 115 38 114
3 107 37 109
3 37 38 109
3 114 123 116
3 116 115 114
3 128 117 116
3 125 120 126
3 110 112 122
3 121 112 111
3 119 122 121
3 39 41 113
3 40 113 122
3 113 110 122
3 110 113 101
3 46 114 38
3 114 46 123
3 117 115 116
3 47 123 46
3 118 117 128
3 124 116 123
3 119 120 125
3 120 119 121
3 51 119 125
3 51 125 50
3 40 119 51
3 40 122 119
3 123 48 124
3 48 57 124
3 124 57 129
3 127 129 57
3 48 55 57
3 124 129 128
3 130 50 125
3 130 126 131
3 126 130 125
3 130 59 50
3 57 63 127
3 63 132 127
3 132 133 127
3 200 129 127
3 130 131 134
3 131 135 134
3 59 130 134
3 59 134 65
3 136 132 63
3 136 63 69
3 208 133 137
3 137 133 132
3 139 138 134
3 139 134 135
3 138 71 65
3 138 65 134
3 67 140 76
3 76 140 141
3 69 76 136
3 136 76 141
3 142 132 136
3 141 147 142
3 143 144 139
3 144 78 71
3 139 144 138
3 144 215 145
3 138 144 71
3 78 145 149
3 77 86 140
3 86 146 140
3 146 155 147
3 140 146 141
3 141 146 147
3 136 141 142
3 144 145 78
3 145 150 149
3 80 149 151
3 80 89 87
3 78 149 80
3 95 89 80
3 161 92 93
3 92 152 94
3 92 94 84
3 154 155 146
3 154 146 86
3 153 154 86
3 153 86 94
3 147 155 148
3 149 150 157
3 150 156 157
3 149 157 151
3 159 158 95
3 159 151 157
3 159 95 151
3 151 95 80
3 97 96 158
3 158 96 95
3 161 160 167
3 160 97 158
3 92 161 162
3 97 161 93
3 152 92 162
3 163 168 164
3 152 163 153
3 152 162 163
3 221 154 153
3 159 165 158
3 160 158 165
3 160 165 166
3 160 161 97
3 166 234 236
3 162 167 168
3 162 168 163
3 162 161 167
3 171 170 169
3 169 172 173
3 169 173 171
3 173 172 174
3 173 174 175
3 177 175 174
3 174 108 177
3 178 177 176
3 179 99 180
3 180 99 182
3 100 182 98
3 181 180 182
3 170 182 100
3 170 100 169
3 169 100 102
3 104 172 169
3 104 169 102
3 174 172 106
3 172 104 106
3 108 176 177
3 106 108 174
3 178 176 184
3 176 183 184
3 109 183 176
3 109 108 107
3 186 184 185
3 184 183 185
3 186 185 187
3 258 189 188
3 111 179 190
3 179 111 112
3 252 190 179
3 111 190 188
3 98 99 110
3 183 115 185
3 109 115 183
3 117 185 115
3 192 187 118
3 192 118 191
3 117 187 185
3 187 117 118
3 259 192 193
3 121 111 194
3 120 121 194
3 111 188 194
3 194 188 199
3 195 118 128
3 191 118 195
3 191 264 193
3 195 196 191
3 197 198 201
3 120 197 126
3 197 194 199
3 197 120 194
3 128 116 124
3 196 195 200
3 129 200 195
3 128 129 195
3 197 199 198
3 201 198 202
3 197 201 126
3 201 131 126
3 200 133 203
3 200 203 196
3 133 200 127
3 205 204 213
3 206 202 207
3 201 202 206
3 201 206 131
3 206 135 131
3 203 133 208
3 132 142 137
3 203 208 213
3 213 204 203
3 206 207 210
3 207 211 210
3 135 210 139
3 206 210 135
3 137 212 208
3 137 217 212
3 208 212 213
3 205 213 209
3 210 211 216
3 210 143 139
3 144 143 215
3 216 211 214
3 216 143 210
3 215 143 216
3 148 217 147
3 217 137 142
3 217 142 147
3 212 217 218
3 224 219 220
3 220 215 216
3 219 150 145
3 219 145 215
3 221 222 154
3 217 148 218
3 155 154 222
3 223 148 155
3 223 155 222
3 218 148 279
3 220 219 215
3 224 226 219
3 150 226 156
3 150 219 226
3 225 156 231
3 157 156 225
3 225 227 159
3 157 225 159
3 228 163 164
3 221 163 228
3 230 222 229
3 221 153 163
3 229 221 228
3 221 229 222
3 286 231 156
3 227 225 232
3 225 231 232
3 159 227 165
3 166 165 227
3 227 232 233
3 166 233 234
3 227 233 166
3 235 234 233
3 166 167 160
3 236 167 166
3 237 234 238
3 236 168 167
3 168 236 237
3 164 239 228
3 237 164 168
3 239 164 237
3 229 228 295
3 235 238 234
3 240 241 238
3 238 235 240
3 236 234 237
3 314 243 244
3 171 245 242
3 244 242 245
3 171 242 170
3 246 245 171
3 246 171 173
3 175 247 246
3 175 246 173
3 248 247 175
3 248 175 177
3 178 249 248
3 250 249 178
3 178 248 177
3 315 249 251
3 254 320 253
3 179 180 252
3 180 181 255
3 252 255 254
3 242 181 170
3 181 243 255
3 181 242 243
3 170 181 182
3 184 250 178
3 186 256 250
3 256 318 251
3 250 184 186
3 256 186 257
3 187 257 186
3 190 258 188
3 253 190 252
3 253 258 190
3 255 252 180
3 257 187 192
3 257 192 259
3 192 191 193
3 259 193 260
3 263 262 261
3 261 199 189
3 258 263 189
3 263 261 189
3 264 191 196
3 193 264 265
3 328 260 265
3 328 265 269
3 199 261 198
3 198 261 267
3 261 262 267
3 188 189 199
3 204 196 203
3 204 268 264
3 268 269 265
3 268 265 264
3 267 202 198
3 272 202 267
3 204 264 196
3 268 205 271
3 205 268 204
3 271 269 268
3 272 267 270
3 207 202 272
3 209 271 205
3 273 271 209
3 207 272 211
3 272 274 211
3 275 213 212
3 209 276 273
3 275 276 209
3 209 213 275
3 214 274 278
3 214 211 274
3 277 214 278
3 220 214 277
3 275 212 218
3 218 280 275
3 218 279 280
3 280 276 275
3 278 281 277
3 220 277 224
3 277 281 282
3 220 216 214
3 230 283 223
3 148 223 279
3 223 283 279
3 279 283 284
3 224 277 282
3 224 282 285
3 285 226 224
3 286 226 285
3 287 230 229
3 230 289 283
3 222 230 223
3 287 288 289
3 287 289 230
3 356 284 283
3 286 156 226
3 290 231 286
3 291 232 231
3 290 292 291
3 231 290 291
3 232 293 233
3 291 293 232
3 233 293 235
3 294 237 238
3 294 296 239
3 239 237 294
3 295 239 296
3 228 239 295
3 287 229 295
3 297 287 295
3 297 288 287
3 291 298 293
3 299 293 298
3 298 291 292
3 300 240 299
3 299 240 235
3 293 299 235
3 241 240 301
3 240 300 301
3 241 301 302
3 238 241 294
3 294 241 296
3 302 296 241
3 305 304 303
3 303 306 307
3 303 307 305
3 309 307 308
3 307 306 308
3 309 308 374
3 313 312 314
3 311 314 312
3 243 314 311
3 243 242 244
3 304 314 244
3 304 244 303
3 303 244 245
3 306 245 246
3 303 245 306
3 306 246 247
3 306 247 308
3 308 247 310
3 247 248 310
3 310 248 249
3 251 249 250
3 310 249 315
3 251 316 315
3 317 318 319
3 317 316 318
3 316 251 318
3 254 253 252
3 320 254 321
3 321 254 311
3 321 311 312
3 311 254 255
3 243 311 255
3 256 251 250
3 257 322 256
3 322 323 319
3 322 319 318
3 322 318 256
3 324 323 260
3 327 326 325
3 258 253 325
3 320 327 325
3 253 320 325
3 259 322 257
3 324 260 328
3 322 259 323
3 323 259 260
3 329 263 325
3 329 325 326
3 329 262 263
3 263 258 325
3 266 330 328
3 265 260 193
3 331 330 266
3 328 269 266
3 334 333 332
3 262 270 267
3 334 332 329
3 329 332 262
3 331 266 335
3 266 338 335
3 336 333 337
3 332 333 336
3 270 332 336
3 262 332 270
3 269 338 266
3 271 338 269
3 336 337 340
3 336 340 339
3 272 270 339
3 270 336 339
3 338 271 273
3 338 273 341
3 340 400 342
3 342 278 274
3 274 339 342
3 274 272 339
3 341 273 344
3 273 276 344
3 343 345 281
3 343 278 342
3 280 284 346
3 344 346 347
3 276 346 344
3 276 280 346
3 343 281 278
3 348 345 352
3 348 281 345
3 348 282 281
3 279 284 280
3 346 284 351
3 351 356 350
3 347 346 351
3 349 352 345
3 282 353 285
3 352 354 353
3 353 348 352
3 348 353 282
3 357 286 285
3 356 289 411
3 289 288 411
3 351 284 356
3 283 289 356
3 354 357 353
3 290 357 358
3 286 357 290
3 357 285 353
3 290 358 292
3 414 359 292
3 296 297 295
3 296 360 297
3 361 297 360
3 362 361 360
3 361 355 288
3 361 288 297
3 364 298 359
3 298 292 359
3 364 299 298
3 364 359 363
3 300 299 364
3 300 364 365
3 366 301 300
3 366 300 365
3 367 301 366
3 302 301 367
3 296 302 360
3 302 368 360
3 368 302 367
3 368 362 360
3 370 369 305
3 369 304 305
3 371 370 305
3 371 305 307
3 309 372 371
3 309 371 307
3 373 309 374
3 372 309 373
3 308 310 374
3 375 373 374
3 377 376 312
3 377 312 313
3 378 377 313
3 378 313 369
3 369 313 304
3 313 314 304
3 315 374 310
3 375 374 315
3 375 315 316
3 379 375 316
3 431 379 381
3 379 316 317
3 379 317 384
3 379 384 381
3 321 382 320
3 383 382 376
3 321 312 376
3 321 376 382
3 384 317 385
3 317 319 385
3 385 319 323
3 385 323 324
3 387 326 327
3 391 326 387
3 382 387 327
3 382 327 320
3 385 324 388
3 385 388 389
3 324 330 388
3 444 389 388
3 386 391 387
3 334 329 326
3 330 324 328
3 390 388 330
3 390 395 392
3 390 330 331
3 394 333 334
3 393 333 394
3 391 394 334
3 391 334 326
3 390 331 395
3 331 397 395
3 333 393 337
3 393 396 337
3 331 335 397
3 335 399 397
3 398 340 337
3 398 337 396
3 335 338 341
3 335 341 399
3 340 342 339
3 400 398 401
3 400 340 398
3 400 343 342
3 402 341 344
3 399 341 402
3 401 403 400
3 403 404 345
3 403 343 400
3 403 345 343
3 402 344 347
3 402 347 405
3 404 406 349
3 404 349 345
3 408 350 407
3 351 350 408
3 405 347 408
3 351 408 347
3 352 349 410
3 349 406 409
3 410 349 409
3 354 352 410
3 411 288 355
3 356 411 350
3 407 350 412
3 411 412 350
3 354 410 413
3 354 358 357
3 414 358 413
3 414 413 415
3 358 354 413
3 414 292 358
3 355 361 362
3 417 425 416
3 411 355 412
3 355 362 417
3 412 355 417
3 418 412 417
3 415 419 414
3 420 363 419
3 363 359 419
3 419 359 414
3 365 364 363
3 421 363 420
3 422 365 421
3 365 363 421
3 422 366 365
3 423 366 422
3 423 367 366
3 424 367 423
3 425 368 424
3 368 367 424
3 425 362 368
3 417 362 425
3 370 426 369
3 427 426 370
3 428 427 370
3 428 370 371
3 429 428 372
3 428 371 372
3 430 372 373
3 429 372 430
3 431 430 373
3 431 373 375
3 377 432 376
3 433 432 377
3 378 433 377
3 434 433 378
3 426 434 378
3 426 378 369
3 430 431 380
3 431 375 379
3 436 435 380
3 431 381 380
3 437 436 380
3 437 380 381
3 383 387 382
3 439 438 432
3 432 438 383
3 432 383 376
3 440 437 381
3 440 381 384
3 441 440 389
3 440 384 389
3 443 442 386
3 443 386 387
3 438 443 383
3 443 387 383
3 384 385 389
3 441 389 444
3 445 444 392
3 444 388 390
3 442 446 386
3 446 391 386
3 444 390 392
3 445 392 447
3 448 393 449
3 393 394 449
3 446 394 391
3 449 394 446
3 450 392 395
3 447 392 450
3 448 396 393
3 451 396 448
3 452 395 397
3 450 395 452
3 451 453 396
3 453 398 396
3 452 397 454
3 397 399 454
3 453 455 401
3 453 401 398
3 456 399 402
3 454 399 456
3 457 403 401
3 457 401 455
3 406 404 457
3 404 403 457
3 456 402 405
3 456 405 459
3 458 406 457
3 463 406 458
3 462 408 407
3 462 465 461
3 462 405 408
3 459 405 462
3 463 409 406
3 463 458 460
3 466 410 409
3 464 409 463
3 465 407 418
3 462 407 465
3 466 413 410
3 466 409 464
3 415 413 466
3 415 466 467
3 418 417 416
3 469 416 468
3 469 418 416
3 465 418 469
3 407 412 418
3 465 469 470
3 471 419 415
3 471 415 467
3 472 420 471
3 420 419 471
3 473 421 420
3 473 420 472
3 474 422 421
3 474 421 473
3 475 423 422
3 475 422 474
3 476 424 423
3 476 423 475
3 477 425 424
3 477 424 476
3 477 416 425
3 468 416 477
3 427 478 426
3 479 478 427
3 479 427 480
3 480 427 428
3 481 480 483
3 480 428 429
3 482 481 483
3 429 435 483
3 480 429 483
3 435 429 430
3 433 439 432
3 485 484 434
3 486 485 478
3 484 433 434
3 478 485 434
3 487 486 539
3 478 434 426
3 479 486 478
3 488 482 489
3 489 483 435
3 482 483 489
3 430 380 435
3 490 489 436
3 490 436 491
3 489 435 436
3 437 491 436
3 439 492 438
3 493 492 439
3 484 493 439
3 484 439 433
3 494 490 491
3 495 491 437
3 494 491 555
3 495 437 440
3 496 495 441
3 495 440 441
3 498 497 442
3 498 442 443
3 498 443 438
3 498 438 492
3 555 496 500
3 496 447 500
3 496 441 445
3 445 441 444
3 497 501 442
3 501 446 442
3 560 499 500
3 500 447 502
3 445 447 496
3 502 506 503
3 449 504 448
3 501 504 449
3 505 504 501
3 501 449 446
3 502 447 506
3 447 450 506
3 508 507 504
3 507 451 448
3 504 507 448
3 505 508 504
3 506 450 509
3 450 452 509
3 451 510 453
3 568 510 451
3 509 452 511
3 452 454 511
3 513 512 510
3 512 455 510
3 510 455 453
3 513 516 512
3 511 454 515
3 454 456 515
3 458 457 455
3 460 458 512
3 458 455 512
3 514 516 513
3 515 522 517
3 456 459 515
3 519 518 516
3 460 512 516
3 518 460 516
3 519 520 518
3 459 462 461
3 522 524 521
3 522 459 461
3 515 459 522
3 523 463 460
3 523 464 463
3 523 460 518
3 583 518 520
3 526 525 524
3 524 461 470
3 521 524 525
3 522 461 524
3 467 466 464
3 527 464 523
3 528 467 527
3 467 464 527
3 529 528 527
3 588 530 529
3 532 538 531
3 469 468 532
3 524 470 526
3 470 532 526
3 470 469 532
3 461 465 470
3 528 471 467
3 530 472 528
3 533 472 530
3 472 471 528
3 473 472 533
3 473 533 534
3 534 474 473
3 535 474 534
3 535 475 474
3 536 475 535
3 537 476 536
3 476 475 536
3 468 477 537
3 477 476 537
3 532 468 538
3 468 537 538
3 481 539 479
3 481 479 480
3 540 539 481
3 482 540 481
3 485 541 484
3 542 541 485
3 542 485 486
3 543 542 487
3 602 543 487
3 542 486 487
3 539 544 487
3 486 479 539
3 545 544 546
3 546 544 540
3 544 539 540
3 546 540 547
3 540 482 547
3 547 482 488
3 606 547 488
3 548 488 490
3 549 548 554
3 488 489 490
3 493 550 492
3 551 550 493
3 551 541 552
3 541 493 484
3 551 493 541
3 542 552 541
3 553 549 554
3 548 490 494
3 554 548 494
3 554 494 499
3 555 491 495
3 496 555 495
3 498 556 497
3 492 556 498
3 562 556 550
3 550 556 492
3 558 557 551
3 551 557 550
3 559 554 499
3 555 500 499
3 555 499 494
3 559 560 618
3 562 561 556
3 561 497 556
3 505 501 497
3 557 562 550
3 502 560 500
3 618 560 564
3 564 560 502
3 503 564 502
3 561 565 505
3 561 505 497
3 566 618 564
3 567 503 570
3 503 567 566
3 564 503 566
3 569 568 507
3 569 508 624
3 507 508 569
3 565 508 505
3 506 509 570
3 506 570 503
3 568 513 510
3 568 451 507
3 571 568 569
3 571 569 572
3 570 509 575
3 570 575 573
3 571 513 568
3 574 514 571
3 514 513 571
3 572 574 571
3 509 511 575
3 511 517 575
3 634 576 574
3 519 516 514
3 579 578 587
3 511 515 517
3 575 577 573
3 575 517 577
3 580 519 576
3 519 514 576
3 584 520 580
3 520 519 580
3 517 522 521
3 577 521 582
3 578 577 582
3 577 517 521
3 585 583 520
3 523 518 583
3 581 584 580
3 584 585 520
3 582 525 586
3 525 595 586
3 582 521 525
3 582 586 587
3 583 527 523
3 583 529 527
3 588 585 590
3 585 529 583
3 530 528 529
3 589 530 588
3 591 589 588
3 590 591 588
3 594 593 592
3 526 532 531
3 595 531 593
3 593 531 592
3 525 526 595
3 526 531 595
3 589 533 530
3 596 534 533
3 596 589 655
3 596 533 589
3 597 534 596
3 535 534 597
3 598 536 535
3 598 535 597
3 599 537 536
3 599 536 598
3 592 661 594
3 537 599 538
3 538 599 592
3 592 531 538
3 543 552 542
3 601 600 543
3 601 543 602
3 602 487 544
3 602 544 545
3 602 545 603
3 604 545 666
3 603 545 604
3 666 545 546
3 605 546 547
3 606 605 547
3 607 606 549
3 606 488 548
3 549 606 548
3 616 608 667
3 558 551 552
3 600 558 552
3 610 608 600
3 600 552 543
3 601 610 600
3 611 605 607
3 607 605 606
3 612 611 607
3 612 607 614
3 607 549 614
3 614 549 553
3 614 553 617
3 559 613 553
3 676 557 558
3 615 557 676
3 608 676 558
3 608 558 600
3 617 553 613
3 619 613 563
3 617 619 681
3 553 554 559
3 613 559 618
3 560 559 499
3 562 620 561
3 621 620 615
3 620 562 615
3 615 562 557
3 622 619 627
3 618 566 563
3 618 563 613
3 622 626 687
3 625 624 565
3 625 565 620
3 620 565 561
3 621 625 620
3 626 622 630
3 566 629 627
3 619 563 627
3 627 563 566
3 624 572 569
3 624 508 565
3 623 699 696
3 622 627 632
3 566 567 629
3 567 637 629
3 628 631 572
3 628 572 624
3 632 627 629
3 626 630 699
3 567 570 573
3 629 638 632
3 635 634 631
3 574 572 631
3 634 574 631
3 635 636 634
3 638 629 637
3 630 632 641
3 567 573 637
3 573 578 637
3 634 639 576
3 576 514 574
3 636 639 634
3 643 639 636
3 637 578 579
3 637 579 638
3 638 645 641
3 573 577 578
3 639 580 576
3 581 580 639
3 642 643 644
3 581 639 643
3 636 704 643
3 643 642 581
3 708 645 647
3 645 579 647
3 641 645 646
3 638 579 645
3 648 584 581
3 648 642 650
3 581 642 648
3 585 584 590
3 649 644 709
3 649 650 642
3 653 652 651
3 652 587 586
3 579 587 647
3 652 586 651
3 647 587 652
3 578 582 587
3 588 529 585
3 654 648 650
3 590 648 654
3 590 584 648
3 654 591 590
3 655 591 656
3 656 591 654
3 658 657 655
3 658 655 656
3 726 659 657
3 660 659 726
3 594 661 660
3 661 659 660
3 663 593 594
3 663 594 662
3 662 594 660
3 651 595 593
3 651 663 653
3 651 593 663
3 651 586 595
3 655 589 591
3 657 597 596
3 657 596 655
3 659 598 597
3 659 597 657
3 599 598 661
3 598 659 661
3 661 592 599
3 603 664 601
3 665 603 604
3 601 602 603
3 665 664 603
3 671 665 672
3 605 666 546
3 667 608 610
3 677 667 609
3 668 609 670
3 669 668 670
3 609 664 670
3 609 610 664
3 610 601 664
3 671 670 665
3 670 664 665
3 728 671 672
3 665 604 672
3 604 666 673
3 605 611 666
3 666 611 673
3 674 611 612
3 674 612 680
3 673 611 674
3 614 675 612
3 683 676 616
3 676 608 616
3 677 668 678
3 677 616 667
3 610 609 667
3 677 609 668
3 678 679 732
3 669 679 668
3 680 612 675
3 680 682 739
3 675 614 617
3 682 675 681
3 675 617 681
3 619 617 613
3 676 683 615
3 683 621 615
3 690 616 677
3 683 616 690
3 685 682 687
3 687 681 619
3 682 681 687
3 687 619 622
3 626 623 685
3 685 687 626
3 625 628 624
3 689 688 621
3 688 625 621
3 690 689 683
3 689 621 683
3 684 690 677
3 685 623 746
3 797 695 691
3 686 751 747
3 696 695 623
3 688 628 625
3 693 628 688
3 694 693 688
3 694 688 689
3 692 695 759
3 623 695 746
3 632 630 622
3 626 699 623
3 693 635 631
3 693 631 628
3 698 697 760
3 697 694 760
3 630 641 633
3 630 633 699
3 697 635 693
3 700 636 635
3 700 635 697
3 698 700 697
3 703 702 701
3 701 633 646
3 699 633 702
3 702 633 701
3 706 704 640
3 705 640 698
3 644 643 704
3 771 640 705
3 769 703 701
3 769 701 707
3 632 638 641
3 646 708 707
3 636 700 704
3 709 706 710
3 640 771 710
3 644 706 709
3 640 704 700
3 710 711 709
3 714 713 724
3 646 645 708
3 701 646 707
3 708 647 712
3 708 712 713
3 633 641 646
3 649 642 644
3 715 650 649
3 715 649 716
3 716 649 709
3 716 709 711
3 780 717 715
3 718 716 779
3 789 719 780
3 788 721 784
3 721 723 720
3 724 723 721
3 653 724 712
3 724 713 712
3 652 653 712
3 653 723 724
3 712 647 652
3 717 654 650
3 717 656 654
3 717 650 715
3 725 658 719
3 658 656 719
3 719 656 717
3 726 657 658
3 726 658 725
3 720 662 722
3 662 660 722
3 722 660 726
3 723 662 720
3 663 662 723
3 723 653 663
3 671 727 669
3 671 669 670
3 735 727 736
3 727 728 736
3 604 673 672
3 728 730 737
3 730 672 673
3 674 730 673
3 678 684 677
3 742 731 733
3 678 668 679
3 742 735 793
3 733 669 727
3 733 679 669
3 742 733 735
3 733 727 735
3 727 671 728
3 729 735 736
3 793 735 729
3 736 728 737
3 728 672 730
3 738 737 730
3 738 730 674
3 738 674 680
3 744 738 739
3 682 680 675
3 740 749 732
3 749 684 678
3 741 740 731
3 741 731 742
3 749 678 732
3 731 732 679
3 731 679 733
3 795 743 734
3 796 737 744
3 739 738 680
3 745 744 746
3 746 744 739
3 739 682 685
3 686 797 691
3 739 685 746
3 745 746 695
3 690 748 689
3 732 731 740
3 690 684 748
3 748 684 754
3 755 749 740
3 750 794 798
3 797 747 751
3 745 695 797
3 802 686 692
3 734 752 692
3 686 802 751
3 691 692 686
3 755 754 749
3 748 694 689
3 760 694 748
3 755 740 804
3 754 684 749
3 750 756 799
3 734 692 753
3 810 757 758
3 757 753 759
3 691 695 692
3 692 759 753
3 696 759 695
3 754 760 748
3 697 693 694
3 761 760 754
3 761 755 765
3 758 757 762
3 757 764 762
3 763 758 762
3 764 759 696
3 759 764 757
3 699 702 696
3 698 640 700
3 811 765 804
3 766 811 768
3 765 811 766
3 698 760 761
3 773 768 813
3 763 762 770
3 762 703 770
3 764 703 762
3 702 703 764
3 823 758 763
3 696 702 764
3 765 705 761
3 771 766 773
3 640 710 706
3 766 705 765
3 771 705 766
3 772 771 773
3 773 813 819
3 819 774 772
3 770 776 822
3 776 778 775
3 822 763 770
3 769 778 776
3 707 713 778
3 707 778 769
3 644 704 706
3 772 710 771
3 779 711 774
3 711 710 772
3 774 711 772
3 718 779 783
3 781 779 774
3 782 789 780
3 781 820 825
3 785 789 782
3 783 825 826
3 785 786 784
3 787 825 827
3 788 784 786
3 788 775 714
3 827 821 822
3 714 775 778
3 713 714 778
3 775 787 777
3 707 708 713
3 779 716 711
3 779 781 783
3 715 716 718
3 719 717 780
3 718 783 782
3 715 718 780
3 790 789 785
3 790 785 784
3 721 720 784
3 722 790 720
3 720 790 784
3 714 724 721
3 788 786 775
3 788 714 721
3 789 725 719
3 722 726 725
3 790 725 789
3 790 722 725
3 808 795 734
3 792 743 729
3 792 729 796
3 796 729 736
3 742 799 741
3 794 793 743
3 793 729 743
3 743 792 734
3 808 791 795
3 794 743 795
3 795 791 798
3 734 802 801
3 796 736 737
3 796 745 792
3 737 738 744
3 745 796 744
3 741 804 740
3 799 756 741
3 799 742 793
3 799 793 794
3 750 799 794
3 798 794 795
3 800 791 803
3 734 797 802
3 808 810 803
3 792 745 797
3 802 797 751
3 747 797 686
3 734 801 802
3 802 692 734
3 811 804 756
3 756 750 805
3 750 806 805
3 741 756 804
3 806 750 798
3 800 807 806
3 806 798 800
3 798 791 800
3 807 800 817
3 809 803 810
3 791 808 803
3 692 752 734
3 810 808 753
3 797 734 792
3 753 757 810
3 734 753 808
3 768 811 805
3 761 754 755
3 811 756 805
3 755 804 765
3 806 767 805
3 816 814 818
3 767 806 807
3 813 812 818
3 821 814 815
3 812 807 816
3 803 817 800
3 817 816 807
3 803 809 817
3 809 758 823
3 809 815 817
3 810 758 809
3 705 698 761
3 805 767 768
3 767 813 768
3 813 767 812
3 819 818 824
3 807 812 767
3 818 812 816
3 824 818 814
3 825 820 827
3 822 777 827
3 814 816 815
3 815 809 823
3 821 815 823
3 823 763 822
3 703 769 770
3 817 815 816
3 773 766 768
3 824 774 819
3 772 773 819
3 819 813 818
3 781 824 820
3 824 814 820
3 826 825 787
3 820 814 821
3 786 826 787
3 821 823 822
3 777 787 827
3 776 777 822
3 775 777 776
3 770 769 776
3 824 781 774
3 783 781 825
3 718 782 780
3 785 782 826
3 782 783 826
3 826 786 785
3 827 820 821
3 775 786 787
