ply
format ascii 1.0
element vertex 828
property float32 x
property float32 y
property float32 z
element face 1652
property list uint8 int32 vertex_indices
end_header
-0.390624 -0.370212 -0.842826
-0.606635 -0.235838 -0.759193
-0.372351 -0.586417 -0.719353
-0.171386 -0.257378 -0.950991
-0.146448 -0.521208 -0.840770
0.060665 -0.401175 -0.913990
0.234292 -0.796076 -0.558006
0.093768 -0.658833 -0.746422
-0.410526 -0.107886 -0.905444
-0.615783 0.031079 -0.787303
-0.174446 0.015789 -0.984540
0.083555 -0.133911 -0.987465
0.546595 -0.195066 -0.814360
0.316319 -0.248042 -0.915651
0.577203 0.028224 -0.816113
-0.411758 0.165256 -0.896184
-0.590314 0.303174 -0.748074
-0.182800 0.287006 -0.940325
0.079365 0.128085 -0.988583
0.343533 0.021646 -0.938891
0.518828 0.252633 -0.816697
-0.371552 0.436828 -0.819225
0.175305 0.553833 -0.813964
-0.123040 0.556735 -0.821528
0.042901 0.382223 -0.923074
0.291848 0.297260 -0.909099
0.421118 0.494022 -0.760659
-0.154702 0.740593 -0.653903
0.311370 0.704344 -0.637925
-0.414700 -0.836800 -0.357476
-0.484568 -0.858777 -0.166423
-0.269009 -0.941605 -0.202521
-0.192245 -0.881477 -0.431324
-0.056335 -0.954592 -0.292541
0.328512 -0.884147 -0.332211
0.126556 -0.917325 -0.377489
0.467638 -0.753266 -0.462498
0.374623 -0.918519 -0.126416
0.528980 -0.813156 -0.242810
-0.531566 -0.669903 -0.518332
-0.711763 -0.546709 -0.441025
-0.614737 -0.726117 -0.307981
-0.326511 -0.762703 -0.558279
-0.139590 -0.720192 -0.679587
-0.000401 -0.837862 -0.545882
0.371002 -0.646619 -0.666514
0.661588 -0.661979 -0.352257
0.596058 -0.568270 -0.567260
0.800511 -0.560517 -0.212140
-0.761729 -0.335744 -0.554116
-0.945738 -0.269735 -0.181168
-0.891946 -0.198392 -0.406292
-0.585587 -0.469592 -0.660736
0.265156 -0.492800 -0.828758
0.493832 -0.429181 -0.756263
0.772579 -0.463184 -0.434261
0.696474 -0.336937 -0.633560
0.890275 -0.365457 -0.271756
-0.775275 -0.100667 -0.623550
-0.888451 0.026289 -0.458218
-0.764740 0.162462 -0.623522
0.753115 -0.092922 -0.651294
0.852213 -0.225502 -0.472104
0.945275 -0.144128 -0.292715
-0.735048 0.404134 -0.544408
-0.867376 0.267207 -0.419833
-0.560922 0.534236 -0.632423
0.735936 0.154294 -0.659236
0.883623 0.035461 -0.466854
0.969237 0.054253 -0.240075
-0.828587 0.464525 -0.312506
-0.870878 0.483844 -0.086410
-0.682117 0.604418 -0.411577
-0.358433 0.646555 -0.673418
0.645506 0.399215 -0.651114
0.821611 0.285275 -0.493533
0.929209 0.224860 -0.293274
0.848987 0.424676 -0.314438
-0.752393 0.632300 -0.184667
-0.499267 0.727293 -0.470932
-0.594426 0.763034 -0.253844
-0.295142 0.826951 -0.478585
0.068524 0.730750 -0.679197
0.395010 0.809540 -0.434294
0.530808 0.626510 -0.570726
0.715349 0.524611 -0.461583
0.737550 0.625692 -0.254029
-0.406128 0.869032 -0.282568
-0.187775 0.937066 -0.294362
-0.292973 0.950706 -0.101614
-0.054873 0.874654 -0.481631
0.172643 0.858846 -0.482264
0.586735 0.724815 -0.361089
0.258458 0.927327 -0.270673
0.625536 0.768717 -0.133341
-0.083555 0.990912 -0.105411
0.041566 0.956270 -0.289516
0.128469 0.987460 -0.091756
-0.548622 -0.835876 0.018033
-0.562761 -0.805674 0.184903
-0.416691 -0.891559 0.177459
-0.376973 -0.926224 0.000967
-0.214673 -0.976683 0.002439
-0.052819 -0.993688 -0.098969
-0.083097 -0.989209 0.120670
0.157935 -0.972804 -0.169435
0.085262 -0.995420 0.043248
0.401484 -0.911128 0.093037
0.251625 -0.967680 0.016715
0.540696 -0.840854 -0.024726
-0.694327 -0.713086 0.097049
-0.775059 -0.594921 0.212962
-0.648040 -0.708355 0.279782
-0.670172 -0.735133 -0.102226
0.682087 -0.720422 -0.125495
0.667590 -0.739397 0.087268
0.790951 -0.611833 0.007499
0.748089 -0.629680 0.209440
0.792834 -0.512451 0.329861
-0.852051 -0.408594 -0.327202
-0.884760 -0.454059 0.105027
-0.802043 -0.597246 0.004953
-0.777278 -0.590959 -0.215887
0.890693 -0.451049 -0.056745
0.853088 -0.500225 0.148378
-0.889034 -0.446693 -0.100420
-0.954120 -0.296790 0.039626
0.959653 -0.262937 -0.099653
0.933073 -0.344892 0.102101
0.936352 -0.239236 0.256926
-0.969247 -0.061953 -0.238163
-0.992270 -0.115226 -0.046078
0.995030 -0.058104 -0.080865
0.981988 -0.172747 0.076544
-0.953325 0.133576 -0.270793
-0.990644 0.115979 -0.071927
0.995199 0.030834 0.092892
0.985484 0.163048 -0.047289
-0.931202 0.314096 -0.184949
-0.950858 0.309271 0.014850
0.851599 0.507996 -0.129302
0.935986 0.334939 -0.108380
0.967219 0.184978 0.173982
-0.923045 0.318377 0.215925
-0.782832 0.621517 0.029828
-0.878235 0.464603 0.113343
0.757946 0.651561 -0.031401
0.939793 0.329340 0.091235
0.869783 0.490659 0.052260
-0.651048 0.757951 -0.040578
-0.675370 0.721007 0.154998
-0.485814 0.870267 -0.081364
0.458561 0.862175 -0.215350
0.502539 0.864553 0.001388
0.647751 0.757587 0.080505
0.768913 0.619881 0.156588
-0.415881 0.871983 0.258242
-0.534975 0.837620 0.110425
-0.184012 0.980017 0.075541
-0.368377 0.925698 0.085918
0.009126 0.996886 0.078325
0.326932 0.943162 -0.059674
0.377040 0.915839 0.138128
0.529466 0.824996 0.197604
0.410456 0.856737 0.312295
-0.087791 0.966372 0.241697
0.085919 0.965085 0.247444
0.200820 0.974659 0.098546
0.256557 0.927598 0.271551
-0.260171 -0.945407 0.196255
-0.287205 -0.819526 0.495873
-0.210418 -0.896453 0.389995
-0.116580 -0.951205 0.285688
0.000405 -0.928501 0.371330
0.066349 -0.971986 0.225482
0.146074 -0.916364 0.372746
0.233176 -0.950991 0.203088
0.272352 -0.888660 0.368927
0.357067 -0.819955 0.447411
-0.492482 -0.805911 0.328587
-0.555449 -0.712600 0.428576
-0.416782 -0.781612 0.464086
-0.347084 -0.873249 0.342006
0.535093 -0.825048 0.181580
0.388643 -0.880888 0.270172
0.626209 -0.726360 0.283308
0.489176 -0.794277 0.360322
0.688984 -0.614330 0.384578
-0.774545 -0.511279 0.372389
-0.762673 -0.418413 0.493214
-0.680533 -0.622252 0.386882
0.809191 -0.388849 0.440462
0.722440 -0.495844 0.481891
0.789445 -0.284772 0.543766
-0.857022 -0.445787 0.258432
0.877537 -0.385322 0.285407
0.875960 -0.257860 0.407679
-0.924397 -0.292393 0.244943
-0.879353 -0.221626 0.421449
-0.849179 -0.356730 0.389409
0.839176 -0.169075 0.516911
-0.975119 -0.153534 0.159906
-0.935536 -0.126015 0.329990
0.970282 -0.084617 0.226701
0.918850 -0.103957 0.380667
0.862539 -0.046313 0.503866
-0.996527 0.008358 0.082850
-0.967128 0.016282 0.253769
0.955819 0.054465 0.288865
0.843942 0.174725 0.507182
-0.975506 0.172042 0.137072
-0.933863 0.168985 0.315188
0.913338 0.195690 0.357098
0.899656 0.059164 0.432573
-0.873409 0.295990 0.386713
-0.783225 0.582112 0.218413
-0.846582 0.439314 0.300503
0.853727 0.469693 0.224810
0.903117 0.326695 0.278659
-0.674370 0.662995 0.325058
-0.753447 0.531458 0.387130
0.656886 0.707071 0.261825
0.751036 0.573672 0.326873
0.713225 0.515533 0.474905
-0.557575 0.780595 0.282458
-0.439858 0.799461 0.409129
-0.558795 0.709231 0.429814
-0.257020 0.934686 0.245564
0.427768 0.778268 0.459688
0.527136 0.680720 0.508673
0.541033 0.758128 0.364041
-0.331953 0.782684 0.526511
-0.304612 0.865706 0.397197
-0.159211 0.906172 0.391796
-0.008272 0.920685 0.390219
0.054127 0.854370 0.516839
0.145709 0.906928 0.395286
0.296872 0.857160 0.420885
0.190733 0.833803 0.518067
0.322085 0.772939 0.546650
-0.013083 0.779070 0.626801
0.105259 0.778160 0.619183
-0.345322 -0.730282 0.589441
-0.465393 -0.687489 0.557465
-0.230273 -0.745989 0.624880
-0.166067 -0.821109 0.546078
-0.084689 -0.881449 0.464625
0.068486 -0.864167 0.498523
0.207029 -0.833435 0.512372
0.309337 -0.760300 0.571187
0.444948 -0.736215 0.509911
0.390323 -0.676878 0.624087
-0.679190 -0.536245 0.501141
-0.582914 -0.525363 0.619842
-0.488641 -0.591548 0.641328
-0.579984 -0.620223 0.528150
0.570163 -0.691887 0.442952
0.621485 -0.579876 0.526783
-0.668367 -0.447948 0.593825
0.639993 -0.469877 0.607968
0.722259 -0.386087 0.573828
-0.798882 -0.289788 0.527077
-0.732532 -0.230727 0.640438
-0.709910 -0.346459 0.613184
0.755273 -0.179219 0.630431
0.702169 -0.279706 0.654770
0.707170 -0.081609 0.702318
-0.809734 -0.165357 0.563016
0.787769 -0.065750 0.612452
0.739213 0.031239 0.672747
-0.871630 -0.081743 0.483300
0.818677 0.060076 0.571103
-0.912920 0.030554 0.406993
0.760493 0.150383 0.631692
-0.867744 0.163453 0.469366
0.842125 0.303731 0.445615
0.769961 0.265982 0.580011
-0.794980 0.396635 0.459006
-0.801483 0.271756 0.532704
0.813275 0.434770 0.386727
0.753786 0.389174 0.529482
-0.721302 0.355895 0.594191
-0.705745 0.470836 0.529374
0.640318 0.642520 0.420905
0.658307 0.452842 0.601304
-0.650487 0.594812 0.472298
-0.542654 0.631964 0.553307
0.505854 0.597175 0.622490
0.463836 0.515960 0.720168
0.609064 0.568622 0.552910
-0.444872 0.716614 0.537171
-0.207438 0.827250 0.522137
-0.240503 0.739037 0.629271
-0.078282 0.850635 0.519896
0.224702 0.753572 0.617768
0.415154 0.692984 0.589424
0.304850 0.683491 0.663255
0.407137 0.607355 0.682172
-0.167373 0.679952 0.713899
-0.126712 0.766456 0.629674
-0.056505 0.694536 0.717235
0.056006 0.705651 0.706342
0.172208 0.696133 0.696952
-0.111021 -0.746589 0.655957
-0.173732 -0.672177 0.719718
-0.068171 -0.666702 0.742200
-0.031222 -0.811728 0.583201
0.005919 -0.731305 0.682025
0.096878 -0.787829 0.608227
0.108849 -0.698061 0.707717
0.199345 -0.744503 0.637164
-0.385871 -0.638020 0.666359
-0.321406 -0.575004 0.752376
-0.224444 -0.592886 0.773376
-0.280575 -0.662454 0.694573
0.279853 -0.677239 0.680463
0.343662 -0.602975 0.719943
0.393975 -0.523887 0.755199
0.511558 -0.639281 0.574132
0.449189 -0.585071 0.675220
-0.510155 -0.487199 0.708787
-0.416860 -0.541414 0.730136
0.548283 -0.534176 0.643461
0.476658 -0.483454 0.734213
0.557642 -0.431545 0.709087
-0.600592 -0.412311 0.685046
-0.567904 -0.336850 0.751011
-0.502776 -0.401686 0.765418
0.635411 -0.364881 0.680526
-0.648871 -0.299977 0.699272
0.668166 -0.182127 0.721377
0.624835 -0.092207 0.775293
-0.724998 -0.124935 0.677325
-0.637194 -0.101980 0.763927
-0.652647 -0.196037 0.731861
0.658287 0.006196 0.752741
-0.788691 -0.049136 0.612824
-0.697463 -0.027640 0.716088
0.681203 0.113273 0.723279
-0.837157 0.046775 0.544959
-0.748533 0.056446 0.660691
0.615203 0.180214 0.767494
-0.784749 0.157042 0.599589
-0.716619 0.246830 0.652328
0.690227 0.225504 0.687557
-0.637960 0.316972 0.701809
0.684951 0.337319 0.645800
0.612001 0.285248 0.737623
-0.632852 0.417606 0.652000
-0.552412 0.371601 0.746159
0.529495 0.329713 0.781617
0.594889 0.389667 0.703041
-0.539910 0.461585 0.703872
-0.611822 0.521059 0.595123
-0.516787 0.553557 0.653074
0.412769 0.438910 0.798110
0.560381 0.494220 0.664620
-0.436560 0.628225 0.644010
-0.345021 0.691205 0.634977
-0.269538 0.643215 0.716675
0.321188 0.597025 0.735119
0.374222 0.519630 0.768077
0.276408 0.533944 0.799063
-0.215002 0.585014 0.782006
-0.127520 0.611359 0.781012
-0.044783 0.614011 0.788026
0.036140 0.629996 0.775757
0.128827 0.628363 0.767179
0.230559 0.623387 0.747149
-0.128526 -0.596568 0.792204
-0.037619 -0.584418 0.810580
0.029583 -0.644044 0.764416
0.114166 -0.604974 0.788018
0.184118 -0.552518 0.812911
0.192748 -0.647288 0.737473
0.259986 -0.582285 0.770293
-0.343654 -0.488402 0.802101
-0.260077 -0.512281 0.818492
-0.175092 -0.523729 0.833697
0.316818 -0.511222 0.798923
0.314224 -0.428056 0.847367
0.392300 -0.441291 0.807070
-0.425022 -0.451899 0.784311
-0.358298 -0.402724 0.842280
0.467567 -0.397889 0.789345
0.545540 -0.342131 0.765070
-0.497642 -0.306335 0.811487
-0.430645 -0.362044 0.826722
0.612596 -0.269564 0.743009
0.526592 -0.255024 0.810965
0.582906 -0.179788 0.792400
-0.576258 -0.246722 0.779137
0.544653 -0.097247 0.833004
-0.550760 -0.082874 0.830539
-0.569974 -0.161693 0.805596
0.578239 -0.012896 0.815766
-0.606964 -0.017752 0.794531
0.602615 0.080166 0.793995
-0.655711 0.059104 0.752695
0.541359 0.139580 0.829125
-0.693941 0.147027 0.704861
-0.603058 0.133275 0.786485
0.544609 0.232377 0.805855
-0.627685 0.221515 0.746286
-0.553442 0.283221 0.783255
0.477266 0.185753 0.858902
-0.473088 0.343310 0.811373
0.401606 0.299129 0.865583
0.472613 0.270827 0.838624
-0.460744 0.429253 0.776825
-0.441373 0.524150 0.728325
0.503012 0.423713 0.753290
0.444709 0.359039 0.820564
-0.360270 0.589149 0.723263
-0.298228 0.541773 0.785838
-0.309305 0.449834 0.837843
0.232901 0.475155 0.848519
0.323037 0.456663 0.828919
0.356514 0.378335 0.854260
-0.233648 0.496036 0.836276
-0.153645 0.528527 0.834897
-0.070939 0.539276 0.839136
0.013181 0.548604 0.835978
0.067454 0.487490 0.870519
0.096875 0.556914 0.824901
0.187437 0.554017 0.811131
-0.092094 -0.521024 0.848559
-0.015590 -0.503345 0.863945
0.043881 -0.556590 0.829628
0.113736 -0.515857 0.849091
0.176024 -0.466785 0.866676
0.245142 -0.491203 0.835838
-0.284427 -0.431026 0.856340
-0.210765 -0.449725 0.867943
-0.136006 -0.456108 0.879470
0.240085 -0.413740 0.878168
0.227468 -0.346226 0.910157
0.299691 -0.356840 0.884788
-0.365580 -0.321240 0.873588
-0.299416 -0.353560 0.886197
0.380650 -0.363220 0.850398
0.461789 -0.318702 0.827756
-0.429346 -0.200271 0.880655
-0.430038 -0.276051 0.859572
0.449539 -0.234461 0.861941
0.503506 -0.171924 0.846714
-0.500263 -0.222276 0.836858
0.467836 -0.100771 0.878052
-0.471465 -0.074446 0.878737
-0.491302 -0.144870 0.858857
0.501060 -0.027851 0.864965
-0.520491 -0.011833 0.853785
0.526041 0.052512 0.848837
-0.565717 0.055778 0.822711
0.453461 0.030783 0.890744
-0.516694 0.119033 0.847855
0.470003 0.105481 0.876339
-0.542771 0.196173 0.816649
-0.478563 0.254139 0.840471
0.412268 0.146686 0.899177
-0.407402 0.225057 0.885084
0.349903 0.241973 0.904996
0.412776 0.220772 0.883672
-0.412819 0.303409 0.858792
-0.386833 0.393497 0.833978
0.337322 0.310019 0.888877
-0.375461 0.484637 0.790036
-0.300380 0.377408 0.875976
0.195137 0.417945 0.887268
0.273729 0.403540 0.873057
0.282097 0.337543 0.898045
-0.236918 0.417189 0.877396
-0.169025 0.451307 0.876215
-0.094814 0.470776 0.877143
-0.013578 0.477540 0.878505
0.055987 0.425387 0.903278
0.123453 0.425889 0.896314
0.149612 0.488357 0.859723
-0.064777 -0.447634 0.891868
-0.002314 -0.426015 0.904713
0.051382 -0.473121 0.879498
0.112463 -0.435441 0.893165
0.111501 -0.366160 0.923848
0.172201 -0.393369 0.903110
-0.233703 -0.374859 0.897142
-0.170478 -0.390541 0.904663
-0.104789 -0.391709 0.914103
-0.047861 -0.376422 0.925211
0.107030 -0.305616 0.946120
0.163256 -0.329320 0.929998
0.205786 -0.285711 0.935960
0.267876 -0.292612 0.917944
-0.305420 -0.282078 0.909478
-0.245766 -0.306413 0.919625
0.186242 -0.231748 0.954781
0.333553 -0.293981 0.895722
0.396801 -0.287412 0.871747
-0.305432 -0.217896 0.926948
-0.365778 -0.246146 0.897562
0.303294 -0.234129 0.923686
0.370536 -0.221965 0.901906
-0.364352 -0.179574 0.913784
0.428207 -0.166732 0.888166
0.367382 -0.154976 0.917067
-0.419314 -0.130792 0.898370
-0.354655 -0.117132 0.927632
0.398321 -0.098812 0.911908
-0.442610 -0.011887 0.896635
-0.399883 -0.067872 0.914050
0.429216 -0.037609 0.902418
-0.481912 0.050639 0.874755
0.385956 0.012061 0.922438
-0.463441 0.175762 0.868522
-0.438375 0.106122 0.892505
-0.369756 0.090735 0.924688
0.402871 0.077062 0.912007
-0.391637 0.155047 0.906962
0.351189 0.114210 0.929313
-0.348659 0.260572 0.900300
-0.341476 0.195140 0.919410
-0.287502 0.168777 0.942792
0.297340 0.202601 0.933028
0.354352 0.176642 0.918277
-0.348909 0.330558 0.876923
0.288238 0.265483 0.920021
0.243255 0.225643 0.943352
0.233827 0.288657 0.928441
-0.289091 0.299486 0.909250
-0.240605 0.340311 0.909009
-0.235120 0.268143 0.934247
-0.183968 0.375317 0.908456
0.177455 0.302271 0.936559
0.218408 0.352857 0.909830
-0.123782 0.399890 0.908166
-0.061065 0.414125 0.908170
-0.001435 0.413289 0.910599
0.036617 0.361331 0.931718
0.093999 0.366788 0.925543
0.154872 0.362478 0.919035
0.055955 -0.398454 0.915480
0.058595 -0.333775 0.940830
-0.188587 -0.321393 0.927977
-0.136881 -0.336807 0.931571
-0.087414 -0.325927 0.941345
-0.036291 -0.315043 0.948383
0.006867 -0.357640 0.933834
0.012490 -0.298573 0.954305
0.058236 -0.277623 0.958923
0.149932 -0.272110 0.950514
0.137155 -0.222211 0.965304
-0.193452 -0.263804 0.944978
-0.156191 -0.226698 0.961360
-0.135743 -0.279737 0.950432
0.125655 -0.177741 0.976022
0.164837 -0.183303 0.969138
0.240907 -0.237190 0.941119
-0.248912 -0.245629 0.936861
-0.204860 -0.206188 0.956828
-0.170100 -0.175482 0.969676
0.209289 -0.186611 0.959883
0.260216 -0.186829 0.947303
-0.307034 -0.159532 0.938232
-0.252376 -0.188749 0.949042
0.223044 -0.142461 0.964342
0.316293 -0.174188 0.932533
-0.296499 -0.104275 0.949324
0.275843 -0.136045 0.951526
0.331477 -0.106300 0.937456
-0.372877 -0.012977 0.927790
-0.335395 -0.061891 0.940043
0.362160 -0.048634 0.930846
-0.407790 0.042877 0.912068
-0.310273 -0.015515 0.950521
0.325853 0.001361 0.945419
-0.341757 0.034253 0.939164
0.341241 0.055542 0.938333
-0.329275 0.131767 0.934995
0.299663 0.143857 0.943137
0.295380 0.088756 0.951248
0.250749 0.116487 0.961018
-0.273686 0.112879 0.955172
-0.237702 0.145285 0.960411
0.249944 0.169021 0.953394
-0.289129 0.233897 0.928276
-0.246101 0.201047 0.948164
-0.205417 0.220693 0.953467
0.202547 0.189893 0.960685
0.207640 0.139766 0.968169
-0.188005 0.307462 0.932803
-0.134588 0.334313 0.932803
-0.132512 0.278016 0.951393
-0.085837 0.295645 0.951434
0.122116 0.310111 0.942825
0.142936 0.256517 0.955912
0.094064 0.262244 0.960406
0.193106 0.244705 0.950173
-0.078882 0.351637 0.932807
-0.022652 0.356463 0.934035
0.015495 0.309035 0.950924
0.068952 0.311263 0.947819
-0.079288 -0.273943 0.958472
-0.029191 -0.263110 0.964324
-0.017066 -0.216614 0.976108
0.016143 -0.247747 0.968690
0.022586 -0.201900 0.979146
0.056871 -0.228174 0.971958
0.099819 -0.252233 0.962504
0.093412 -0.205051 0.974284
-0.126036 -0.189990 0.973662
-0.107347 -0.233116 0.966506
-0.060489 -0.226820 0.972056
0.058668 -0.183275 0.981309
0.060619 -0.144453 0.987653
0.131980 -0.140487 0.981247
0.092347 -0.161364 0.982565
-0.209633 -0.148389 0.966455
-0.137134 -0.148982 0.979285
0.093374 -0.126977 0.987501
0.175304 -0.143010 0.974072
0.151869 -0.104782 0.982831
-0.256606 -0.140523 0.956246
-0.197886 -0.098743 0.975239
0.191140 -0.103639 0.976076
0.234903 -0.098671 0.966998
-0.276376 -0.059573 0.959201
-0.240769 -0.099796 0.965438
0.206230 -0.063666 0.976430
0.281164 -0.088599 0.955561
-0.255998 -0.017841 0.966513
0.306443 -0.048315 0.950662
0.250505 -0.051826 0.966727
-0.283649 0.026391 0.958565
0.270614 -0.009651 0.962639
0.221026 -0.019624 0.975070
-0.308580 0.075909 0.948165
-0.233288 0.019682 0.972208
-0.208372 0.053422 0.976590
0.285065 0.037521 0.957774
0.235096 0.021877 0.971726
-0.254934 0.063692 0.964858
-0.180969 0.082353 0.980035
0.245750 0.067472 0.966982
-0.200168 0.169748 0.964945
-0.224465 0.096677 0.969675
-0.191936 0.123861 0.973560
0.207541 0.093214 0.973775
0.202432 0.049524 0.978043
0.169820 0.115016 0.978740
-0.174094 0.253322 0.951588
-0.163201 0.196999 0.966725
-0.130411 0.224151 0.965789
0.157312 0.205928 0.965840
0.165890 0.158473 0.973328
0.125706 0.171479 0.977135
-0.090828 0.243749 0.965576
-0.036552 0.304154 0.951921
-0.047533 0.255538 0.965630
-0.001607 0.261910 0.965091
-0.015857 0.219227 0.975545
0.026400 0.222378 0.974603
0.047684 0.184153 0.981740
0.045901 0.264106 0.963401
0.069168 0.220779 0.972868
0.112830 0.215567 0.969949
-0.005974 -0.175504 0.984461
0.003546 -0.139289 0.990245
0.028535 -0.161496 0.986461
-0.102026 -0.152269 0.983059
-0.084348 -0.190246 0.978106
-0.065259 -0.153848 0.985937
-0.043771 -0.185278 0.981711
-0.017989 -0.117390 0.992923
0.011305 -0.108109 0.994075
0.034293 -0.126215 0.991410
0.038841 -0.096126 0.994611
0.064265 -0.110959 0.991745
-0.167801 -0.127177 0.977583
-0.124319 -0.113980 0.985674
-0.096695 -0.092767 0.990982
-0.064245 -0.098547 0.993056
0.064650 -0.081010 0.994614
0.118819 -0.105422 0.987304
0.091562 -0.091993 0.991541
-0.156178 -0.088836 0.983726
-0.123409 -0.075897 0.989449
0.091747 -0.064272 0.993706
0.111490 -0.041135 0.992914
0.124470 -0.073079 0.989528
-0.226523 -0.058189 0.972266
-0.184468 -0.058191 0.981114
-0.148038 -0.051230 0.987654
0.163891 -0.069754 0.984009
0.073055 -0.017145 0.997181
-0.170427 -0.021205 0.985142
-0.135847 -0.018190 0.990563
0.141570 -0.043173 0.988986
0.182502 -0.034441 0.982602
-0.209515 -0.020421 0.977592
-0.153161 0.011115 0.988139
0.157912 -0.016360 0.987318
-0.190273 0.014374 0.981626
0.190967 0.008284 0.981562
0.152855 0.011183 0.988185
0.128224 0.024514 0.991442
-0.143282 0.071337 0.987107
-0.167906 0.044889 0.984781
-0.110206 0.062267 0.991956
0.164863 0.039561 0.985523
0.169253 0.075323 0.982690
-0.158636 0.149621 0.975935
-0.152102 0.108103 0.982435
-0.122599 0.131219 0.983743
0.133222 0.130209 0.982496
0.136171 0.092103 0.986395
0.104273 0.105697 0.988916
-0.093718 0.195820 0.976151
-0.125855 0.173936 0.976682
-0.056438 0.210636 0.975934
-0.062670 0.169097 0.983605
-0.036490 0.144933 0.988768
0.063094 0.148468 0.986902
0.073064 0.115202 0.990651
0.029146 0.151477 0.988031
0.086300 0.179882 0.979895
0.097800 0.141448 0.985103
-0.027578 0.180506 0.983187
0.010018 0.185287 0.982633
-0.029371 -0.149106 0.988385
-0.015915 -0.049173 0.998663
-0.007860 -0.089735 0.995935
0.017183 -0.080879 0.996576
-0.094724 -0.060462 0.993666
-0.085673 -0.122507 0.988763
-0.049755 -0.123451 0.991103
-0.037868 -0.053105 0.997871
-0.023439 -0.071138 0.997191
-0.000695 -0.065024 0.997883
0.020329 -0.056757 0.998181
0.040618 -0.069562 0.996750
0.063364 -0.055567 0.996442
-0.064990 -0.050389 0.996613
-0.040695 -0.017182 0.999024
-0.073630 -0.073881 0.994545
-0.035176 -0.095395 0.994818
0.040368 -0.046345 0.998109
0.039233 -0.024725 0.998924
0.057743 -0.031767 0.997826
0.082968 -0.039079 0.995786
-0.116215 -0.042580 0.992311
-0.086200 -0.034943 0.995665
-0.063006 -0.024581 0.997710
0.035550 -0.007602 0.999339
0.054456 -0.006675 0.998494
0.022444 0.017613 0.999593
-0.120436 0.010057 0.992670
-0.104963 -0.014996 0.994363
-0.078585 -0.009720 0.996860
0.039205 0.009221 0.999189
0.077539 0.004285 0.996980
0.097577 -0.015453 0.995108
-0.092288 0.010348 0.995679
-0.101759 0.034724 0.994203
0.102820 0.011563 0.994633
0.058509 0.016366 0.998153
0.125224 -0.010616 0.992072
-0.132728 0.038787 0.990393
-0.080468 0.053975 0.995295
-0.074359 0.030458 0.996766
-0.054914 0.042461 0.997588
0.105101 0.042063 0.993572
0.059676 0.040056 0.997414
-0.086720 0.081343 0.992906
-0.117452 0.094245 0.988596
-0.059122 0.068821 0.995876
-0.062890 0.097033 0.993292
0.106632 0.072710 0.991636
0.080987 0.055770 0.995154
0.056968 0.065687 0.996213
0.134965 0.056816 0.989220
-0.092879 0.151590 0.984070
-0.063919 0.130124 0.989435
-0.090967 0.113737 0.989338
-0.037941 0.110501 0.993152
0.007908 0.077267 0.996979
0.012479 0.122008 0.992451
0.021905 0.097145 0.995029
0.042407 0.120719 0.991780
0.050630 0.092600 0.994415
0.078573 0.084522 0.993319
-0.014471 0.122806 0.992325
-0.003581 0.152344 0.988321
-0.010303 -0.029411 0.999514
-0.003296 0.000494 0.999994
-0.047152 -0.036128 0.998234
-0.048750 -0.072935 0.996144
-0.027578 -0.032809 0.999081
0.003593 -0.043289 0.999056
0.021883 -0.035563 0.999128
-0.035298 0.001607 0.999376
-0.022952 -0.014436 0.999632
-0.006937 -0.012973 0.999892
0.006016 -0.024438 0.999683
0.021060 -0.017122 0.999632
0.021247 0.000940 0.999774
-0.067026 0.011136 0.997689
-0.054218 -0.003454 0.998523
-0.047431 0.019309 0.998688
-0.017930 0.001020 0.999839
0.007864 -0.007701 0.999939
0.007633 0.008310 0.999936
0.005344 0.023410 0.999712
-0.033856 0.034890 0.998818
-0.026424 0.016941 0.999507
-0.008338 0.014027 0.999867
-0.018368 0.047751 0.998690
0.018322 0.055159 0.998309
0.039996 0.028331 0.998798
0.080981 0.028558 0.996306
-0.013393 0.029496 0.999475
-0.037197 0.057995 0.997624
-0.017088 0.071867 0.997268
0.002150 0.039729 0.999208
0.038783 0.049383 0.998027
0.021132 0.035338 0.999152
-0.036496 0.084112 0.995788
-0.008860 0.096485 0.995295
-0.001540 0.057871 0.998323
0.032762 0.073011 0.996793
3 2 52 0
3 4 2 0
3 4 0 3
3 5 7 4
3 43 4 7
3 7 6 44
3 8 0 1
3 8 1 9
3 0 8 3
3 8 10 3
3 3 10 11
3 3 11 5
3 5 13 53
3 11 13 5
3 54 13 12
3 19 12 13
3 15 8 9
3 9 60 16
3 15 17 10
3 15 10 8
3 18 11 10
3 18 10 17
3 11 18 19
3 11 19 13
3 25 20 19
3 14 19 20
3 16 21 15
3 21 17 15
3 23 17 21
3 24 23 22
3 23 24 17
3 17 24 18
3 26 20 25
3 25 18 24
3 22 26 25
3 12 19 14
3 23 82 22
3 27 82 23
3 82 28 22
3 25 24 22
3 33 31 32
3 29 32 31
3 31 30 29
3 32 44 33
3 44 35 33
3 38 37 34
3 105 35 34
3 36 38 34
3 41 40 39
3 41 29 30
3 41 39 29
3 39 42 29
3 32 42 43
3 2 43 42
3 32 43 44
3 35 6 34
3 44 6 35
3 36 34 6
3 36 46 38
3 46 114 38
3 45 47 36
3 56 47 54
3 59 51 130
3 39 40 52
3 52 40 49
3 119 49 40
3 52 1 0
3 42 39 2
3 39 52 2
3 4 43 2
3 42 32 29
3 4 3 5
3 43 7 44
3 36 6 45
3 54 47 45
3 45 53 54
3 45 6 7
3 45 7 53
3 47 55 46
3 55 47 56
3 46 55 48
3 62 63 57
3 49 51 58
3 59 58 51
3 1 52 49
3 58 60 9
3 1 58 9
3 1 49 58
3 53 7 5
3 61 12 14
3 13 54 53
3 56 12 61
3 55 62 57
3 56 54 12
3 62 55 56
3 56 61 62
3 65 60 59
3 58 59 60
3 64 66 16
3 64 60 65
3 9 16 15
3 16 60 64
3 67 61 14
3 67 68 61
3 61 68 62
3 67 14 20
3 69 63 68
3 63 62 68
3 64 65 70
3 70 71 78
3 64 70 72
3 64 72 66
3 16 66 21
3 66 79 73
3 21 66 73
3 23 73 27
3 25 19 18
3 74 20 26
3 20 74 67
3 74 75 67
3 68 67 75
3 68 75 76
3 77 76 75
3 76 69 68
3 70 138 71
3 72 80 79
3 72 70 78
3 80 72 78
3 81 73 79
3 66 72 79
3 82 90 91
3 81 27 73
3 23 21 73
3 91 83 28
3 26 22 28
3 84 26 28
3 85 74 84
3 84 28 83
3 85 75 74
3 74 26 84
3 86 77 85
3 77 75 85
3 80 87 79
3 81 79 87
3 87 89 88
3 81 87 88
3 90 81 88
3 90 82 27
3 82 91 28
3 81 90 27
3 83 93 152
3 93 83 91
3 83 92 84
3 92 85 84
3 94 86 92
3 85 92 86
3 96 90 88
3 88 95 96
3 95 88 89
3 93 91 96
3 96 91 90
3 97 93 96
3 99 98 100
3 169 101 102
3 100 98 101
3 103 102 31
3 102 103 104
3 104 103 106
3 103 105 106
3 105 37 108
3 107 108 37
3 107 184 176
3 110 112 111
3 98 99 110
3 110 113 98
3 179 112 99
3 30 31 101
3 41 30 113
3 30 101 98
3 103 31 33
3 31 102 101
3 103 33 105
3 33 35 105
3 106 105 108
3 34 37 105
3 114 109 38
3 114 115 109
3 37 109 107
3 109 37 38
3 115 116 117
3 114 116 115
3 116 124 117
3 121 125 122
3 122 125 119
3 110 121 113
3 110 111 121
3 113 122 41
3 121 122 113
3 41 122 40
3 30 98 113
3 46 36 47
3 116 48 123
3 114 46 48
3 116 114 48
3 116 123 124
3 118 117 124
3 125 121 120
3 126 120 197
3 119 125 50
3 119 50 51
3 40 122 119
3 49 119 51
3 48 55 57
3 123 57 127
3 48 57 123
3 128 124 123
3 123 127 128
3 133 128 127
3 50 125 126
3 50 131 130
3 126 131 50
3 130 51 50
3 132 127 63
3 127 57 63
3 133 127 132
3 128 133 129
3 135 130 131
3 134 130 135
3 130 134 59
3 134 65 59
3 69 132 63
3 136 132 137
3 136 137 142
3 203 136 208
3 139 71 138
3 135 138 134
3 65 138 70
3 138 65 134
3 77 141 76
3 137 76 141
3 77 140 141
3 132 69 137
3 147 137 141
3 142 137 147
3 145 139 143
3 145 144 71
3 71 144 78
3 135 139 138
3 139 145 71
3 80 149 151
3 86 140 77
3 146 140 86
3 148 146 155
3 148 147 141
3 140 148 141
3 137 69 76
3 215 150 144
3 149 144 150
3 149 78 144
3 80 151 87
3 149 80 78
3 151 89 87
3 83 152 92
3 162 153 161
3 153 94 152
3 154 155 146
3 154 146 94
3 146 86 94
3 154 221 155
3 140 146 148
3 156 157 224
3 157 149 150
3 157 151 149
3 157 159 151
3 158 95 89
3 158 89 159
3 159 89 151
3 158 160 95
3 165 166 160
3 160 97 95
3 97 167 161
3 161 153 152
3 152 93 161
3 97 161 93
3 152 94 92
3 153 162 163
3 163 154 153
3 162 164 163
3 159 227 158
3 160 158 165
3 97 96 95
3 97 160 167
3 168 167 166
3 167 162 161
3 167 168 162
3 164 162 168
3 169 171 182
3 169 172 171
3 172 246 171
3 173 172 174
3 173 174 175
3 175 174 176
3 175 176 177
3 178 177 184
3 181 180 179
3 99 100 179
3 179 100 182
3 179 182 181
3 100 101 169
3 170 182 171
3 100 169 182
3 104 172 169
3 104 169 102
3 104 106 174
3 104 174 172
3 174 106 176
3 106 108 176
3 109 183 107
3 108 107 176
3 177 176 184
3 184 107 183
3 186 183 185
3 184 183 186
3 256 186 185
3 252 258 189
3 112 190 111
3 112 179 180
3 190 112 180
3 111 190 188
3 110 99 112
3 109 115 183
3 185 183 115
3 115 117 185
3 118 191 192
3 118 192 187
3 187 117 118
3 185 117 187
3 192 191 260
3 194 111 188
3 188 199 194
3 111 120 121
3 120 111 194
3 124 195 118
3 195 191 118
3 196 193 191
3 196 191 195
3 197 198 202
3 126 125 120
3 199 197 194
3 194 197 120
3 128 195 124
3 129 196 195
3 129 195 128
3 200 196 204
3 197 202 201
3 198 197 199
3 197 201 126
3 201 131 126
3 129 133 203
3 204 196 129
3 203 204 129
3 204 203 208
3 207 201 202
3 206 201 207
3 206 131 201
3 135 131 206
3 133 136 203
3 133 132 136
3 271 205 213
3 208 213 204
3 210 207 211
3 206 207 210
3 210 139 135
3 210 135 206
3 208 136 142
3 208 212 213
3 142 212 208
3 213 205 204
3 211 143 210
3 143 216 145
3 211 214 143
3 216 143 214
3 143 139 210
3 145 216 215
3 142 218 212
3 217 218 147
3 217 147 148
3 142 147 218
3 216 220 215
3 220 219 215
3 215 144 145
3 219 224 150
3 154 94 153
3 217 148 155
3 221 222 155
3 279 217 222
3 222 217 155
3 222 223 279
3 285 219 220
3 225 224 226
3 150 224 157
3 225 156 224
3 215 219 150
3 227 156 232
3 159 157 156
3 159 156 227
3 230 163 164
3 221 163 230
3 228 229 230
3 164 228 230
3 221 154 163
3 221 283 222
3 290 231 225
3 232 156 225
3 232 225 231
3 165 227 233
3 165 158 227
3 233 227 232
3 234 293 235
3 165 233 234
3 166 165 234
3 167 160 166
3 166 234 236
3 166 236 168
3 236 237 168
3 237 236 238
3 228 164 237
3 228 237 239
3 168 237 164
3 295 228 239
3 234 235 236
3 241 238 235
3 241 235 240
3 238 236 235
3 311 243 242
3 170 171 245
3 244 242 170
3 245 244 170
3 246 172 173
3 245 171 246
3 246 173 247
3 173 175 247
3 248 175 177
3 247 175 248
3 178 249 248
3 250 249 178
3 178 248 177
3 251 249 250
3 253 255 254
3 252 190 255
3 180 243 255
3 252 255 253
3 181 242 243
3 181 243 180
3 181 170 242
3 181 182 170
3 178 186 250
3 184 186 178
3 250 186 256
3 251 250 318
3 187 257 256
3 187 256 185
3 188 252 189
3 252 253 258
3 190 252 188
3 180 255 190
3 257 187 192
3 257 192 259
3 191 193 260
3 259 192 260
3 263 262 261
3 189 199 188
3 261 199 189
3 189 258 263
3 193 265 260
3 264 265 193
3 193 200 264
3 330 265 264
3 262 267 261
3 198 199 261
3 267 198 261
3 263 261 189
3 196 200 193
3 200 268 264
3 266 268 269
3 264 268 266
3 198 270 202
3 267 270 198
3 205 268 200
3 268 271 269
3 268 205 271
3 205 200 204
3 207 202 272
3 202 270 272
3 273 271 209
3 271 213 209
3 272 274 211
3 272 211 207
3 209 213 212
3 273 209 276
3 209 275 276
3 209 212 275
3 211 274 214
3 214 274 278
3 277 214 278
3 214 277 216
3 275 212 218
3 275 279 280
3 275 218 279
3 280 276 275
3 278 281 277
3 220 277 282
3 277 281 282
3 216 277 220
3 283 223 222
3 217 279 218
3 223 280 279
3 289 284 223
3 220 282 285
3 226 224 219
3 286 226 285
3 226 219 285
3 229 289 283
3 221 230 283
3 230 229 283
3 287 289 229
3 356 289 287
3 289 223 283
3 290 225 226
3 290 226 286
3 358 292 231
3 291 232 231
3 231 292 291
3 293 233 291
3 233 232 291
3 293 234 233
3 239 237 238
3 294 239 238
3 239 294 296
3 295 239 296
3 229 228 295
3 295 297 287
3 229 295 287
3 297 288 287
3 292 299 291
3 299 293 291
3 299 292 298
3 300 240 299
3 299 240 293
3 293 240 235
3 241 240 301
3 240 300 301
3 302 241 301
3 238 241 294
3 302 294 241
3 302 296 294
3 305 304 303
3 306 307 303
3 307 305 303
3 308 309 307
3 308 307 306
3 309 310 374
3 313 312 314
3 311 314 312
3 242 314 311
3 314 242 244
3 304 314 244
3 304 244 303
3 303 244 245
3 306 245 246
3 303 245 306
3 306 246 247
3 306 247 308
3 308 247 248
3 308 248 310
3 310 249 315
3 251 316 315
3 248 249 310
3 249 251 315
3 316 251 319
3 317 316 319
3 319 251 318
3 253 254 320
3 320 254 321
3 321 311 312
3 254 311 321
3 243 311 254
3 255 243 254
3 256 318 250
3 322 318 257
3 319 318 322
3 319 322 323
3 318 256 257
3 324 323 322
3 327 326 325
3 253 325 258
3 320 325 253
3 320 327 325
3 259 322 257
3 324 259 328
3 322 259 324
3 328 259 260
3 329 263 325
3 329 325 326
3 329 262 263
3 258 325 263
3 388 328 265
3 328 260 265
3 331 330 266
3 330 264 266
3 334 333 332
3 262 332 267
3 334 332 262
3 329 334 262
3 331 266 335
3 266 269 335
3 337 336 332
3 337 332 333
3 270 267 336
3 267 332 336
3 338 335 269
3 338 269 273
3 340 339 336
3 340 336 337
3 339 270 336
3 272 270 339
3 338 344 341
3 271 273 269
3 342 340 400
3 278 274 342
3 272 339 274
3 274 339 342
3 338 273 344
3 273 276 344
3 281 278 343
3 278 342 343
3 223 284 280
3 344 346 347
3 276 346 344
3 276 280 346
3 281 343 345
3 348 345 349
3 348 281 345
3 348 282 281
3 351 346 284
3 280 284 346
3 284 356 351
3 347 346 351
3 349 352 348
3 348 352 353
3 282 353 285
3 353 352 354
3 348 353 282
3 353 286 285
3 411 356 288
3 356 287 288
3 351 411 350
3 289 356 284
3 354 286 353
3 358 290 357
3 290 286 357
3 357 286 354
3 359 292 358
3 231 290 358
3 296 360 297
3 295 296 297
3 361 360 362
3 361 297 360
3 361 355 288
3 361 288 297
3 363 298 359
3 298 292 359
3 300 299 298
3 364 298 363
3 365 300 364
3 300 298 364
3 366 300 365
3 301 300 366
3 302 301 367
3 301 366 367
3 368 296 302
3 360 296 368
3 368 302 367
3 368 362 360
3 370 369 305
3 369 304 305
3 371 370 305
3 371 305 307
3 371 307 309
3 371 309 372
3 373 372 374
3 372 309 374
3 308 310 309
3 375 373 374
3 313 377 312
3 377 376 312
3 378 377 313
3 378 313 369
3 369 313 304
3 313 314 304
3 315 374 310
3 375 374 315
3 375 315 316
3 379 375 316
3 380 379 381
3 379 316 317
3 381 317 323
3 379 317 381
3 321 382 320
3 383 382 376
3 382 321 376
3 321 312 376
3 323 317 319
3 384 381 323
3 385 384 324
3 384 323 324
3 386 326 327
3 386 327 387
3 382 387 327
3 382 327 320
3 385 328 388
3 385 388 389
3 324 328 385
3 390 389 388
3 386 391 326
3 391 329 326
3 330 388 265
3 390 388 330
3 390 331 392
3 390 330 331
3 394 333 334
3 393 333 394
3 391 394 334
3 391 334 329
3 392 331 395
3 331 335 395
3 337 333 396
3 333 393 396
3 395 335 397
3 335 338 397
3 396 398 337
3 398 340 337
3 397 338 341
3 397 341 399
3 339 340 342
3 400 398 401
3 400 340 398
3 400 343 342
3 402 341 347
3 399 341 402
3 401 403 400
3 403 404 345
3 403 343 400
3 403 345 343
3 341 344 347
3 402 408 405
3 404 406 349
3 404 349 345
3 408 412 407
3 351 350 347
3 402 350 408
3 350 402 347
3 409 349 406
3 352 349 409
3 354 352 410
3 352 409 410
3 411 288 355
3 351 356 411
3 408 350 412
3 350 411 412
3 410 413 357
3 410 357 354
3 358 357 413
3 414 466 415
3 358 413 359
3 414 359 413
3 417 361 362
3 417 362 416
3 411 355 412
3 355 361 417
3 418 355 417
3 418 412 355
3 415 419 414
3 420 363 419
3 363 414 419
3 363 359 414
3 364 363 420
3 364 420 421
3 422 365 421
3 365 364 421
3 422 366 365
3 424 366 422
3 424 367 366
3 424 422 423
3 425 367 424
3 368 367 425
3 425 362 368
3 416 362 425
3 370 426 369
3 427 426 370
3 428 427 370
3 428 370 371
3 428 371 372
3 428 372 429
3 430 429 373
3 429 372 373
3 431 430 373
3 431 373 375
3 377 432 376
3 433 432 377
3 378 433 377
3 434 433 378
3 426 434 378
3 426 378 369
3 435 431 380
3 431 375 379
3 436 435 437
3 431 379 380
3 437 435 380
3 437 380 440
3 383 387 382
3 439 438 383
3 432 439 383
3 432 383 376
3 440 380 381
3 440 381 384
3 441 440 384
3 441 384 385
3 443 446 386
3 443 386 387
3 438 443 387
3 438 387 383
3 441 385 389
3 441 389 444
3 445 444 389
3 445 389 390
3 442 446 443
3 446 391 386
3 445 390 392
3 445 392 447
3 448 393 449
3 393 394 449
3 446 394 391
3 449 394 446
3 450 392 395
3 447 392 450
3 448 451 393
3 451 396 393
3 452 395 397
3 450 395 452
3 451 453 396
3 453 398 396
3 452 397 399
3 452 456 454
3 453 455 401
3 453 401 398
3 456 399 405
3 452 399 456
3 457 403 401
3 457 401 455
3 458 404 457
3 404 403 457
3 399 402 405
3 456 405 459
3 458 406 404
3 463 406 458
3 462 408 407
3 462 407 461
3 462 405 408
3 459 405 462
3 464 409 406
3 463 458 460
3 466 410 409
3 464 406 463
3 465 407 418
3 461 407 465
3 466 413 410
3 466 409 464
3 414 413 466
3 415 464 467
3 469 417 416
3 469 416 468
3 469 418 417
3 470 418 469
3 407 412 418
3 465 418 470
3 471 419 415
3 471 415 467
3 472 420 419
3 472 419 471
3 473 421 420
3 473 420 472
3 474 422 421
3 474 421 473
3 475 423 474
3 423 422 474
3 477 424 423
3 476 423 475
3 477 425 424
3 477 423 476
3 477 416 425
3 468 416 477
3 427 478 426
3 479 478 427
3 479 427 480
3 480 427 428
3 481 480 429
3 480 428 429
3 482 481 483
3 481 430 483
3 481 429 430
3 435 483 430
3 433 484 432
3 485 484 433
3 486 485 434
3 485 433 434
3 478 486 434
3 487 486 478
3 478 434 426
3 479 487 478
3 488 482 489
3 489 483 436
3 482 483 489
3 430 431 435
3 490 489 436
3 490 436 491
3 483 435 436
3 437 491 436
3 439 492 438
3 493 492 439
3 484 493 439
3 484 439 432
3 494 490 555
3 495 491 437
3 490 491 555
3 495 437 440
3 496 495 440
3 496 440 441
3 498 501 442
3 498 442 443
3 498 443 438
3 498 438 492
3 495 496 500
3 496 444 500
3 496 441 444
3 502 500 444
3 497 501 498
3 449 446 442
3 560 499 564
3 444 445 502
3 445 447 502
3 502 506 503
3 449 504 448
3 501 504 442
3 505 504 501
3 504 449 442
3 502 447 506
3 447 509 506
3 508 448 504
3 507 451 448
3 508 507 448
3 505 508 504
3 447 450 509
3 450 454 509
3 451 510 453
3 507 510 451
3 450 452 454
3 509 454 511
3 513 512 455
3 513 455 510
3 510 455 453
3 513 516 512
3 511 454 515
3 454 456 515
3 512 457 455
3 460 458 512
3 458 457 512
3 514 516 513
3 515 459 517
3 456 459 515
3 519 518 460
3 460 512 516
3 519 460 516
3 519 583 518
3 522 462 461
3 522 461 521
3 522 459 462
3 517 459 522
3 518 463 460
3 523 464 463
3 523 463 518
3 527 523 518
3 526 525 524
3 524 461 465
3 521 524 525
3 521 461 524
3 415 466 464
3 467 464 523
3 528 467 527
3 467 523 527
3 529 528 527
3 588 530 528
3 532 538 531
3 469 468 532
3 524 470 526
3 470 532 526
3 470 469 532
3 524 465 470
3 528 471 467
3 530 472 471
3 533 472 530
3 530 471 528
3 473 472 533
3 473 533 534
3 534 474 473
3 535 474 534
3 535 475 474
3 536 475 535
3 537 475 536
3 476 475 537
3 538 476 537
3 477 476 468
3 532 468 538
3 468 476 538
3 480 539 479
3 481 539 480
3 540 539 482
3 482 539 481
3 485 541 484
3 542 541 485
3 542 485 486
3 543 542 486
3 544 543 487
3 543 486 487
3 545 544 487
3 545 479 539
3 545 487 479
3 545 539 540
3 545 540 546
3 546 540 547
3 540 488 547
3 540 482 488
3 606 547 488
3 548 488 489
3 549 548 494
3 548 489 490
3 493 556 492
3 551 550 552
3 550 541 552
3 541 493 484
3 550 493 541
3 542 552 541
3 553 549 554
3 548 490 494
3 554 549 494
3 554 494 559
3 555 491 499
3 499 491 495
3 492 556 497
3 492 497 498
3 557 556 550
3 550 556 493
3 558 557 551
3 551 557 550
3 559 494 555
3 495 500 499
3 555 560 559
3 559 563 618
3 562 561 497
3 562 497 556
3 561 501 497
3 557 562 556
3 564 499 500
3 563 560 566
3 564 500 503
3 503 500 502
3 561 565 505
3 561 505 501
3 566 560 564
3 567 503 506
3 503 567 564
3 564 567 566
3 508 568 507
3 569 565 624
3 568 508 569
3 569 508 505
3 567 506 570
3 506 509 570
3 568 571 507
3 571 510 507
3 572 568 569
3 571 568 574
3 570 509 511
3 570 511 573
3 571 513 510
3 574 514 571
3 514 513 571
3 572 574 568
3 573 511 575
3 511 515 575
3 634 576 514
3 576 516 514
3 579 578 577
3 575 515 517
3 575 517 578
3 578 517 577
3 520 519 576
3 519 516 576
3 581 520 580
3 520 576 580
3 577 522 521
3 577 521 582
3 579 577 582
3 577 517 522
3 520 583 519
3 584 583 520
3 581 584 520
3 584 529 583
3 582 525 586
3 525 595 586
3 582 521 525
3 582 586 587
3 583 527 518
3 583 529 527
3 588 529 648
3 585 529 584
3 588 528 529
3 589 530 588
3 590 589 588
3 590 591 589
3 594 593 592
3 526 532 531
3 595 531 593
3 593 531 592
3 525 526 595
3 526 531 595
3 589 533 530
3 596 534 533
3 596 589 591
3 596 533 589
3 597 534 596
3 535 534 597
3 598 536 597
3 536 535 597
3 599 537 536
3 599 536 598
3 592 599 594
3 537 599 592
3 538 537 592
3 592 531 538
3 543 552 542
3 601 600 544
3 601 603 602
3 600 543 544
3 601 544 546
3 601 546 603
3 604 603 605
3 544 545 546
3 605 603 547
3 603 546 547
3 606 605 547
3 607 606 549
3 606 488 548
3 549 606 548
3 609 551 552
3 608 551 609
3 600 609 552
3 610 609 600
3 600 552 543
3 601 610 600
3 611 605 607
3 607 605 606
3 666 611 612
3 611 607 614
3 607 553 614
3 607 549 553
3 614 613 617
3 554 613 553
3 615 557 558
3 615 558 676
3 608 616 558
3 608 558 551
3 614 553 613
3 619 613 618
3 617 613 681
3 613 554 618
3 554 559 618
3 560 555 499
3 562 620 561
3 625 620 615
3 620 562 615
3 615 562 557
3 622 619 618
3 559 560 563
3 618 563 622
3 622 563 623
3 625 624 565
3 625 565 620
3 620 565 561
3 621 625 615
3 566 623 563
3 566 567 627
3 626 623 630
3 627 623 566
3 624 572 569
3 569 505 565
3 630 623 627
3 630 627 629
3 627 567 629
3 567 570 629
3 628 631 572
3 628 572 624
3 632 630 629
3 626 630 633
3 629 570 573
3 629 573 632
3 639 634 631
3 574 572 631
3 634 574 631
3 635 639 631
3 638 632 637
3 633 632 638
3 632 573 637
3 573 575 637
3 634 580 576
3 634 514 574
3 636 639 635
3 643 639 636
3 641 578 579
3 637 641 638
3 637 578 641
3 637 575 578
3 639 580 634
3 643 580 639
3 642 581 644
3 581 580 643
3 643 636 640
3 643 644 581
3 708 646 645
3 645 579 587
3 641 645 646
3 641 579 645
3 642 584 581
3 648 585 649
3 585 642 649
3 585 584 642
3 649 642 709
3 649 650 648
3 653 652 651
3 652 587 586
3 645 587 647
3 652 586 651
3 647 587 652
3 579 582 587
3 648 529 585
3 654 590 650
3 590 648 650
3 590 588 648
3 654 591 590
3 655 591 656
3 656 591 654
3 658 657 656
3 657 655 656
3 658 659 657
3 660 659 726
3 662 659 660
3 661 659 662
3 663 593 594
3 663 594 662
3 662 594 661
3 651 595 593
3 651 663 653
3 651 593 663
3 651 586 595
3 655 596 591
3 655 597 596
3 598 597 655
3 657 598 655
3 661 598 657
3 661 657 659
3 599 598 661
3 661 594 599
3 602 610 601
3 665 664 666
3 664 602 604
3 604 602 603
3 671 665 672
3 611 666 604
3 668 667 608
3 668 608 609
3 668 609 610
3 669 668 670
3 668 610 670
3 670 610 602
3 670 602 664
3 727 670 664
3 727 664 665
3 743 671 729
3 664 604 666
3 665 666 673
3 666 612 673
3 604 605 611
3 674 673 675
3 673 612 675
3 611 614 612
3 617 675 612
3 616 676 558
3 677 676 616
3 677 732 678
3 677 616 667
3 616 608 667
3 732 667 669
3 677 667 732
3 669 667 668
3 680 674 675
3 680 675 682
3 612 614 617
3 682 675 617
3 682 617 681
3 619 681 613
3 676 621 615
3 683 621 676
3 684 683 677
3 683 676 677
3 685 682 687
3 687 681 619
3 682 681 687
3 687 619 691
3 687 695 686
3 691 619 622
3 625 688 624
3 689 688 621
3 688 625 621
3 690 689 683
3 689 621 683
3 684 690 683
3 685 687 686
3 747 686 759
3 622 626 691
3 623 626 622
3 688 628 624
3 697 628 688
3 694 693 690
3 697 688 689
3 752 763 757
3 691 696 695
3 626 696 691
3 626 633 696
3 693 697 689
3 635 631 628
3 698 754 765
3 694 754 698
3 630 632 633
3 696 701 699
3 697 635 628
3 700 636 635
3 700 635 697
3 698 700 693
3 703 702 707
3 696 633 701
3 699 701 702
3 633 638 701
3 706 704 765
3 705 640 636
3 700 705 636
3 705 704 640
3 707 702 701
3 769 703 778
3 701 638 646
3 701 646 707
3 644 643 640
3 709 644 710
3 704 772 710
3 640 704 710
3 640 710 644
3 710 711 709
3 714 713 712
3 708 645 647
3 707 646 708
3 713 647 712
3 708 647 713
3 638 641 646
3 709 642 644
3 716 650 649
3 715 650 716
3 716 649 709
3 716 709 711
3 718 717 715
3 718 715 779
3 718 725 717
3 786 721 720
3 724 723 720
3 724 720 721
3 712 724 714
3 653 724 712
3 652 653 712
3 653 723 724
3 712 647 652
3 715 654 650
3 717 656 654
3 717 654 715
3 725 718 719
3 658 717 725
3 658 656 717
3 726 659 658
3 726 658 725
3 723 662 660
3 720 660 722
3 722 660 726
3 723 660 720
3 663 662 723
3 723 653 663
3 670 727 669
3 671 727 665
3 733 727 671
3 729 671 672
3 665 673 672
3 736 729 730
3 730 672 674
3 674 672 673
3 678 684 677
3 742 731 678
3 732 733 679
3 742 794 740
3 733 669 727
3 733 732 669
3 743 729 735
3 733 671 743
3 735 736 728
3 734 735 728
3 736 735 729
3 737 730 738
3 729 672 730
3 737 736 730
3 738 730 674
3 738 674 680
3 744 738 739
3 685 739 680
3 731 748 684
3 731 684 678
3 750 740 793
3 740 731 742
3 742 678 679
3 742 679 794
3 743 679 733
3 794 743 735
3 796 797 801
3 739 738 680
3 745 744 746
3 746 744 739
3 746 739 747
3 739 685 747
3 680 682 685
3 686 747 685
3 690 693 689
3 749 731 740
3 690 684 748
3 748 731 749
3 750 749 740
3 750 741 805
3 751 745 752
3 752 745 746
3 752 746 692
3 751 752 757
3 747 759 692
3 747 692 746
3 755 754 694
3 748 694 690
3 755 694 748
3 755 749 756
3 755 748 749
3 750 756 749
3 751 757 803
3 753 810 809
3 752 692 758
3 686 764 759
3 687 691 695
3 764 686 695
3 700 697 693
3 698 693 694
3 755 760 754
3 760 804 767
3 763 758 817
3 759 764 762
3 762 758 759
3 758 692 759
3 695 699 764
3 696 699 695
3 698 705 700
3 761 765 754
3 766 761 767
3 765 761 706
3 754 760 761
3 819 768 811
3 817 758 762
3 762 703 769
3 764 703 762
3 702 703 764
3 762 769 817
3 764 699 702
3 765 705 698
3 771 766 773
3 706 761 766
3 704 705 765
3 771 706 766
3 772 771 781
3 766 768 773
3 774 781 771
3 770 776 777
3 769 778 775
3 769 776 817
3 769 775 776
3 707 708 778
3 707 778 703
3 772 704 706
3 772 706 771
3 779 711 781
3 711 710 772
3 781 711 772
3 718 779 780
3 771 773 774
3 782 824 825
3 782 825 789
3 784 789 825
3 784 825 785
3 787 786 785
3 784 785 786
3 787 721 786
3 714 788 775
3 777 787 827
3 775 713 714
3 778 713 775
3 775 788 776
3 778 708 713
3 779 716 711
3 780 779 781
3 715 716 779
3 789 719 782
3 780 782 719
3 718 780 719
3 783 785 825
3 789 784 790
3 720 722 786
3 722 790 784
3 722 784 786
3 714 724 721
3 788 721 787
3 788 714 721
3 790 725 719
3 790 726 725
3 790 719 789
3 790 722 726
3 728 795 734
3 800 791 801
3 791 728 796
3 796 728 736
3 734 793 740
3 794 679 743
3 732 679 678
3 794 735 734
3 794 734 740
3 791 795 728
3 800 808 792
3 795 791 799
3 796 736 737
3 737 744 797
3 737 738 744
3 745 797 744
3 741 750 793
3 799 798 741
3 799 741 795
3 799 800 807
3 795 793 734
3 741 793 795
3 807 800 792
3 801 791 796
3 802 801 797
3 796 737 797
3 802 797 745
3 802 751 803
3 802 745 751
3 753 803 757
3 756 760 755
3 805 741 798
3 756 750 805
3 804 756 805
3 806 798 812
3 805 798 806
3 807 798 799
3 799 791 800
3 808 800 801
3 792 813 807
3 802 808 801
3 809 808 803
3 809 803 753
3 808 802 803
3 753 823 810
3 763 816 757
3 767 761 760
3 804 760 756
3 806 767 804
3 811 806 812
3 806 804 805
3 792 809 813
3 807 812 798
3 818 821 814
3 812 807 813
3 818 813 810
3 792 808 809
3 821 810 823
3 810 813 809
3 770 816 763
3 752 758 763
3 757 816 753
3 768 767 806
3 766 767 768
3 812 813 818
3 768 806 811
3 821 826 814
3 811 812 818
3 811 818 814
3 820 819 814
3 818 810 821
3 821 823 815
3 826 821 815
3 822 815 823
3 823 753 816
3 823 816 822
3 817 776 770
3 817 770 763
3 811 814 819
3 773 768 819
3 824 773 819
3 774 773 824
3 824 819 820
3 824 820 825
3 783 825 820
3 783 820 826
3 783 826 815
3 827 822 777
3 788 777 776
3 827 815 822
3 777 822 770
3 816 770 822
3 780 781 774
3 782 774 824
3 780 774 782
3 820 814 826
3 785 783 827
3 787 785 827
3 827 783 815
3 777 788 787
