ply
format ascii 1.0
element vertex 722
property float32 x
property float32 y
property float32 z
element face 1368
property list uint8 int32 vertex_indices
end_header
0.000000 0.000000 1.000000
0.000000 0.000000 -1.000000
0.010451 0.000000 0.999945
0.009885 0.003393 0.999945
0.008247 0.006419 0.999945
0.005716 0.008749 0.999945
0.002566 0.010131 0.999945
-0.000863 0.010415 0.999945
-0.004198 0.009571 0.999945
-0.007078 0.007689 0.999945
-0.009191 0.004974 0.999945
-0.010308 0.001720 0.999945
-0.010308 -0.001720 0.999945
-0.009191 -0.004974 0.999945
-0.007078 -0.007689 0.999945
-0.004198 -0.009571 0.999945
-0.000863 -0.010415 0.999945
0.002566 -0.010131 0.999945
0.005716 -0.008749 0.999945
0.008247 -0.006419 0.999945
0.009885 -0.003393 0.999945
0.000000 0.000000 1.000000
0.018273 0.000000 0.999833
0.017283 0.005933 0.999833
0.014420 0.011223 0.999833
0.009994 0.015297 0.999833
0.004486 0.017714 0.999833
-0.001509 0.018210 0.999833
-0.007340 0.016734 0.999833
-0.012376 0.013444 0.999833
-0.016070 0.008697 0.999833
-0.018024 0.003008 0.999833
-0.018024 -0.003008 0.999833
-0.016070 -0.008697 0.999833
-0.012376 -0.013444 0.999833
-0.007340 -0.016734 0.999833
-0.001509 -0.018210 0.999833
0.004486 -0.017714 0.999833
0.009994 -0.015297 0.999833
0.014420 -0.011223 0.999833
0.017283 -0.005933 0.999833
0.008247 0.006419 0.999945
0.024314 0.000000 0.999704
0.022997 0.007895 0.999704
0.019187 0.014934 0.999704
0.013299 0.020355 0.999704
0.005969 0.023570 0.999704
-0.002008 0.024231 0.999704
-0.009767 0.022266 0.999704
-0.016468 0.017889 0.999704
-0.021384 0.011572 0.999704
-0.023983 0.004002 0.999704
-0.023983 -0.004002 0.999704
-0.021384 -0.011572 0.999704
-0.016468 -0.017889 0.999704
-0.009767 -0.022266 0.999704
-0.002008 -0.024231 0.999704
0.005969 -0.023570 0.999704
0.013299 -0.020355 0.999704
0.019187 -0.014934 0.999704
0.022997 -0.007895 0.999704
0.014420 0.011223 0.999833
0.032351 0.000000 0.999477
0.030599 0.010505 0.999477
0.025530 0.019871 0.999477
0.017695 0.027084 0.999477
0.007942 0.031362 0.999477
-0.002672 0.032241 0.999477
-0.012995 0.029627 0.999477
-0.021911 0.023802 0.999477
-0.028452 0.015398 0.999477
-0.031910 0.005325 0.999477
-0.031910 -0.005325 0.999477
-0.028452 -0.015398 0.999477
-0.021911 -0.023802 0.999477
-0.012995 -0.029627 0.999477
-0.002672 -0.032241 0.999477
0.007942 -0.031362 0.999477
0.017695 -0.027084 0.999477
0.025530 -0.019871 0.999477
0.030599 -0.010505 0.999477
0.019187 0.014934 0.999704
0.043042 0.000000 0.999073
0.040710 0.013976 0.999073
0.033966 0.026437 0.999073
0.023542 0.036034 0.999073
0.010566 0.041725 0.999073
-0.003554 0.042895 0.999073
-0.017290 0.039417 0.999073
-0.029152 0.031667 0.999073
-0.037855 0.020486 0.999073
-0.042455 0.007085 0.999073
-0.042455 -0.007085 0.999073
-0.037855 -0.020486 0.999073
-0.029152 -0.031667 0.999073
-0.017290 -0.039417 0.999073
-0.003554 -0.042895 0.999073
0.010566 -0.041725 0.999073
0.023542 -0.036034 0.999073
0.033966 -0.026437 0.999073
0.040710 -0.013976 0.999073
0.025530 0.019871 0.999477
0.057258 0.000000 0.998359
0.054156 0.018592 0.998359
0.045185 0.035169 0.998359
0.031317 0.047935 0.998359
0.014056 0.055506 0.998359
-0.004728 0.057063 0.998359
-0.023000 0.052435 0.998359
-0.038780 0.042126 0.998359
-0.050357 0.027252 0.998359
-0.056477 0.009424 0.998359
-0.056477 -0.009424 0.998359
-0.050357 -0.027252 0.998359
-0.038780 -0.042126 0.998359
-0.023000 -0.052435 0.998359
-0.004728 -0.057063 0.998359
0.014056 -0.055506 0.998359
0.031317 -0.047935 0.998359
0.045185 -0.035169 0.998359
0.054156 -0.018592 0.998359
0.033966 0.026437 0.999073
0.076151 0.000000 0.997096
0.072024 0.024726 0.997096
0.060093 0.046773 0.997096
0.041650 0.063751 0.997096
0.018694 0.073820 0.997096
-0.006288 0.075890 0.997096
-0.030589 0.069737 0.997096
-0.051575 0.056026 0.997096
-0.066972 0.036244 0.997096
-0.075112 0.012534 0.997096
-0.075112 -0.012534 0.997096
-0.066972 -0.036244 0.997096
-0.051575 -0.056026 0.997096
-0.030589 -0.069737 0.997096
-0.006288 -0.075890 0.997096
0.018694 -0.073820 0.997096
0.041650 -0.063751 0.997096
0.060093 -0.046773 0.997096
0.072024 -0.024726 0.997096
0.045185 0.035169 0.998359
0.101233 0.000000 0.994863
0.095748 0.032870 0.994863
0.079887 0.062179 0.994863
0.055369 0.084749 0.994863
0.024851 0.098135 0.994863
-0.008360 0.100887 0.994863
-0.040665 0.092707 0.994863
-0.068563 0.074480 0.994863
-0.089032 0.048182 0.994863
-0.099852 0.016662 0.994863
-0.099852 -0.016662 0.994863
-0.089032 -0.048182 0.994863
-0.068563 -0.074480 0.994863
-0.040665 -0.092707 0.994863
-0.008360 -0.100887 0.994863
0.024851 -0.098135 0.994863
0.055369 -0.084749 0.994863
0.079887 -0.062179 0.994863
0.095748 -0.032870 0.994863
0.060093 0.046773 0.997096
0.134475 0.000000 0.990917
0.127189 0.043664 0.990917
0.106120 0.082596 0.990917
0.073551 0.112578 0.990917
0.033012 0.130360 0.990917
-0.011105 0.134016 0.990917
-0.054018 0.123149 0.990917
-0.091078 0.098937 0.990917
-0.118268 0.064003 0.990917
-0.132641 0.022134 0.990917
-0.132641 -0.022134 0.990917
-0.118268 -0.064003 0.990917
-0.091078 -0.098937 0.990917
-0.054018 -0.123149 0.990917
-0.011105 -0.134016 0.990917
0.033012 -0.130360 0.990917
0.073551 -0.112578 0.990917
0.106120 -0.082596 0.990917
0.127189 -0.043664 0.990917
0.079887 0.062179 0.994863
0.178394 0.000000 0.983959
0.168728 0.057924 0.983959
0.140778 0.109572 0.983959
0.097572 0.149346 0.983959
0.043793 0.172935 0.983959
-0.014732 0.177785 0.983959
-0.071660 0.163369 0.983959
-0.120823 0.131249 0.983959
-0.156893 0.084906 0.983959
-0.175961 0.029363 0.983959
-0.175961 -0.029363 0.983959
-0.156893 -0.084906 0.983959
-0.120823 -0.131249 0.983959
-0.071660 -0.163369 0.983959
-0.014732 -0.177785 0.983959
0.043793 -0.172935 0.983959
0.097572 -0.149346 0.983959
0.140778 -0.109572 0.983959
0.168728 -0.057924 0.983959
0.106120 0.082596 0.990917
0.236098 0.000000 0.971729
0.223305 0.076661 0.971729
0.186314 0.145014 0.971729
0.129133 0.197653 0.971729
0.057959 0.228873 0.971729
-0.019497 0.235291 0.971729
-0.094839 0.216212 0.971729
-0.159905 0.173703 0.971729
-0.207642 0.112370 0.971729
-0.232878 0.038860 0.971729
-0.232878 -0.038860 0.971729
-0.207642 -0.112370 0.971729
-0.159905 -0.173703 0.971729
-0.094839 -0.216212 0.971729
-0.019497 -0.235291 0.971729
0.057959 -0.228873 0.971729
0.129133 -0.197653 0.971729
0.186314 -0.145014 0.971729
0.223305 -0.076661 0.971729
0.140778 0.109572 0.983959
0.311170 0.000000 0.950354
0.294310 0.101037 0.950354
0.245557 0.191125 0.950354
0.170194 0.260501 0.950354
0.076388 0.301649 0.950354
-0.025696 0.310107 0.950354
-0.124996 0.284961 0.950354
-0.210750 0.228935 0.950354
-0.273666 0.148101 0.950354
-0.306926 0.051217 0.950354
-0.306926 -0.051217 0.950354
-0.273666 -0.148101 0.950354
-0.210750 -0.228935 0.950354
-0.124996 -0.284961 0.950354
-0.025696 -0.310107 0.950354
0.076388 -0.301649 0.950354
0.170194 -0.260501 0.950354
0.245557 -0.191125 0.950354
0.294310 -0.101037 0.950354
0.186314 0.145014 0.971729
0.407145 0.000000 0.913363
0.385085 0.132200 0.913363
0.321295 0.250074 0.913363
0.222687 0.340848 0.913363
0.099948 0.394687 0.913363
-0.033622 0.405755 0.913363
-0.163548 0.372853 0.913363
-0.275752 0.299546 0.913363
-0.358074 0.193780 0.913363
-0.401592 0.067014 0.913363
-0.401592 -0.067014 0.913363
-0.358074 -0.193780 0.913363
-0.275752 -0.299546 0.913363
-0.163548 -0.372853 0.913363
-0.033622 -0.405755 0.913363
0.099948 -0.394687 0.913363
0.222687 -0.340848 0.913363
0.321295 -0.250074 0.913363
0.385085 -0.132200 0.913363
0.245557 0.191125 0.950354
0.526065 0.000000 0.850444
0.497561 0.170813 0.850444
0.415139 0.323116 0.850444
0.287730 0.440404 0.850444
0.129141 0.509967 0.850444
-0.043442 0.524268 0.850444
-0.211318 0.481756 0.850444
-0.356294 0.387039 0.850444
-0.462660 0.250379 0.850444
-0.518890 0.086587 0.850444
-0.518890 -0.086587 0.850444
-0.462660 -0.250379 0.850444
-0.356294 -0.387039 0.850444
-0.211318 -0.481756 0.850444
-0.043442 -0.524268 0.850444
0.129141 -0.509967 0.850444
0.287730 -0.440404 0.850444
0.415139 -0.323116 0.850444
0.497561 -0.170813 0.850444
0.321295 0.250074 0.913363
0.652627 0.000000 0.757679
0.617266 0.211908 0.757679
0.515014 0.400852 0.757679
0.356953 0.546357 0.757679
0.160210 0.632657 0.757679
-0.053894 0.650398 0.757679
-0.262157 0.597658 0.757679
-0.442012 0.480153 0.757679
-0.573968 0.310616 0.757679
-0.643726 0.107419 0.757679
-0.643726 -0.107419 0.757679
-0.573968 -0.310616 0.757679
-0.442012 -0.480153 0.757679
-0.262157 -0.597658 0.757679
-0.053894 -0.650398 0.757679
0.160210 -0.632657 0.757679
0.356953 -0.546357 0.757679
0.515014 -0.400852 0.757679
0.617266 -0.211908 0.757679
0.415139 0.323116 0.850444
0.763119 0.000000 0.646258
0.721771 0.247784 0.646258
0.602208 0.468718 0.646258
0.417387 0.638858 0.646258
0.187335 0.739768 0.646258
-0.063018 0.760513 0.646258
-0.306542 0.698844 0.646258
-0.516847 0.561445 0.646258
-0.671143 0.363205 0.646258
-0.752711 0.125605 0.646258
-0.752711 -0.125605 0.646258
-0.671143 -0.363205 0.646258
-0.516847 -0.561445 0.646258
-0.306542 -0.698844 0.646258
-0.063018 -0.760513 0.646258
0.187335 -0.739768 0.646258
0.417387 -0.638858 0.646258
0.602208 -0.468718 0.646258
0.721771 -0.247784 0.646258
0.515014 0.400852 0.757679
0.854821 0.000000 0.518923
0.808504 0.277560 0.518923
0.674574 0.525042 0.518923
0.467543 0.715627 0.518923
0.209846 0.828664 0.518923
-0.070591 0.851901 0.518923
-0.343378 0.782822 0.518923
-0.578954 0.628912 0.518923
-0.751793 0.406850 0.518923
-0.843162 0.140699 0.518923
-0.843162 -0.140699 0.518923
-0.751793 -0.406850 0.518923
-0.578954 -0.628912 0.518923
-0.343378 -0.782822 0.518923
-0.070591 -0.851901 0.518923
0.209846 -0.828664 0.518923
0.467543 -0.715627 0.518923
0.674574 -0.525042 0.518923
0.808504 -0.277560 0.518923
0.602208 0.468718 0.646258
0.925474 0.000000 0.378811
0.875329 0.300501 0.378811
0.730329 0.568438 0.378811
0.506186 0.774776 0.378811
0.227190 0.897155 0.378811
-0.076425 0.922313 0.378811
-0.371759 0.847525 0.378811
-0.626807 0.680893 0.378811
-0.813930 0.440477 0.378811
-0.912852 0.152328 0.378811
-0.912852 -0.152328 0.378811
-0.813930 -0.440477 0.378811
-0.626807 -0.680893 0.378811
-0.371759 -0.847525 0.378811
-0.076425 -0.922313 0.378811
0.227190 -0.897155 0.378811
0.506186 -0.774776 0.378811
0.730329 -0.568438 0.378811
0.875329 -0.300501 0.378811
0.674574 0.525042 0.518923
0.973339 0.000000 0.229371
0.920601 0.316043 0.229371
0.768101 0.597837 0.229371
0.532366 0.814847 0.229371
0.238941 0.943555 0.229371
-0.080378 0.970015 0.229371
-0.390986 0.891358 0.229371
-0.659225 0.716109 0.229371
-0.856026 0.463258 0.229371
-0.960064 0.160206 0.229371
-0.960064 -0.160206 0.229371
-0.856026 -0.463258 0.229371
-0.659225 -0.716109 0.229371
-0.390986 -0.891358 0.229371
-0.080378 -0.970015 0.229371
0.238941 -0.943555 0.229371
0.532366 -0.814847 0.229371
0.768101 -0.597837 0.229371
0.920601 -0.316043 0.229371
0.730329 0.568438 0.378811
0.997237 0.000000 0.074283
0.943204 0.323802 0.074283
0.786960 0.612516 0.074283
0.545437 0.834854 0.074283
0.244807 0.966722 0.074283
-0.082351 0.993831 0.074283
-0.400586 0.913243 0.074283
-0.675410 0.733691 0.074283
-0.877044 0.474632 0.074283
-0.983636 0.164140 0.074283
-0.983636 -0.164140 0.074283
-0.877044 -0.474632 0.074283
-0.675410 -0.733691 0.074283
-0.400586 -0.913243 0.074283
-0.082351 -0.993831 0.074283
0.244807 -0.966722 0.074283
0.545437 -0.834854 0.074283
0.786960 -0.612516 0.074283
0.943204 -0.323802 0.074283
0.768101 0.597837 0.229371
0.996580 0.000000 -0.082634
0.942583 0.323589 -0.082634
0.786442 0.612112 -0.082634
0.545078 0.834303 -0.082634
0.244646 0.966085 -0.082634
-0.082297 0.993176 -0.082634
-0.400322 0.912641 -0.082634
-0.674965 0.733208 -0.082634
-0.876466 0.474320 -0.082634
-0.982988 0.164032 -0.082634
-0.982988 -0.164032 -0.082634
-0.876466 -0.474320 -0.082634
-0.674965 -0.733208 -0.082634
-0.400322 -0.912641 -0.082634
-0.082297 -0.993176 -0.082634
0.244646 -0.966085 -0.082634
0.545078 -0.834303 -0.082634
0.786442 -0.612112 -0.082634
0.942583 -0.323589 -0.082634
0.786960 0.612516 0.074283
0.971384 0.000000 -0.237516
0.918751 0.315408 -0.237516
0.766558 0.596636 -0.237516
0.531297 0.813210 -0.237516
0.238461 0.941660 -0.237516
-0.080216 0.968066 -0.237516
-0.390200 0.889567 -0.237516
-0.657900 0.714670 -0.237516
-0.854306 0.462328 -0.237516
-0.958135 0.159885 -0.237516
-0.958135 -0.159885 -0.237516
-0.854306 -0.462328 -0.237516
-0.657900 -0.714670 -0.237516
-0.390200 -0.889567 -0.237516
-0.080216 -0.968066 -0.237516
0.238461 -0.941660 -0.237516
0.531297 -0.813210 -0.237516
0.766558 -0.596636 -0.237516
0.918751 -0.315408 -0.237516
0.786442 0.612112 -0.082634
0.922269 0.000000 -0.386549
0.872298 0.299460 -0.386549
0.727800 0.566469 -0.386549
0.504433 0.772092 -0.386549
0.226404 0.894048 -0.386549
-0.076160 0.919119 -0.386549
-0.370471 0.844589 -0.386549
-0.624636 0.678535 -0.386549
-0.811111 0.438951 -0.386549
-0.909690 0.151800 -0.386549
-0.909690 -0.151800 -0.386549
-0.811111 -0.438951 -0.386549
-0.624636 -0.678535 -0.386549
-0.370471 -0.844589 -0.386549
-0.076160 -0.919119 -0.386549
0.226404 -0.894048 -0.386549
0.504433 -0.772092 -0.386549
0.727800 -0.566469 -0.386549
0.872298 -0.299460 -0.386549
0.766558 0.596636 -0.237516
0.850444 0.000000 -0.526065
0.804365 0.276139 -0.526065
0.671120 0.522354 -0.526065
0.465149 0.711964 -0.526065
0.208772 0.824421 -0.526065
-0.070229 0.847540 -0.526065
-0.341620 0.778814 -0.526065
-0.575990 0.625692 -0.526065
-0.747944 0.404767 -0.526065
-0.838845 0.139979 -0.526065
-0.838845 -0.139979 -0.526065
-0.747944 -0.404767 -0.526065
-0.575990 -0.625692 -0.526065
-0.341620 -0.778814 -0.526065
-0.070229 -0.847540 -0.526065
0.208772 -0.824421 -0.526065
0.465149 -0.711964 -0.526065
0.671120 -0.522354 -0.526065
0.804365 -0.276139 -0.526065
0.727800 0.566469 -0.386549
0.757679 0.000000 -0.652627
0.716626 0.246018 -0.652627
0.597915 0.465376 -0.652627
0.414411 0.634304 -0.652627
0.185999 0.734495 -0.652627
-0.062569 0.755092 -0.652627
-0.304356 0.693863 -0.652627
-0.513162 0.557443 -0.652627
-0.666359 0.360616 -0.652627
-0.747346 0.124710 -0.652627
-0.747346 -0.124710 -0.652627
-0.666359 -0.360616 -0.652627
-0.513162 -0.557443 -0.652627
-0.304356 -0.693863 -0.652627
-0.062569 -0.755092 -0.652627
0.185999 -0.734495 -0.652627
0.414411 -0.634304 -0.652627
0.597915 -0.465376 -0.652627
0.716626 -0.246018 -0.652627
0.671120 0.522354 -0.526065
0.646258 0.000000 -0.763119
0.611242 0.209840 -0.763119
0.509988 0.396940 -0.763119
0.353469 0.541025 -0.763119
0.158647 0.626482 -0.763119
-0.053368 0.644050 -0.763119
-0.259599 0.591826 -0.763119
-0.437698 0.475467 -0.763119
-0.568367 0.307585 -0.763119
-0.637444 0.106371 -0.763119
-0.637444 -0.106371 -0.763119
-0.568367 -0.307585 -0.763119
-0.437698 -0.475467 -0.763119
-0.259599 -0.591826 -0.763119
-0.053368 -0.644050 -0.763119
0.158647 -0.626482 -0.763119
0.353469 -0.541025 -0.763119
0.509988 -0.396940 -0.763119
0.611242 -0.209840 -0.763119
0.597915 0.465376 -0.652627
0.518923 0.000000 -0.854821
0.490806 0.168494 -0.854821
0.409503 0.318729 -0.854821
0.283824 0.434425 -0.854821
0.127388 0.503044 -0.854821
-0.042852 0.517151 -0.854821
-0.208449 0.475216 -0.854821
-0.351457 0.381784 -0.854821
-0.456379 0.246980 -0.854821
-0.511846 0.085412 -0.854821
-0.511846 -0.085412 -0.854821
-0.456379 -0.246980 -0.854821
-0.351457 -0.381784 -0.854821
-0.208449 -0.475216 -0.854821
-0.042852 -0.517151 -0.854821
0.127388 -0.503044 -0.854821
0.283824 -0.434425 -0.854821
0.409503 -0.318729 -0.854821
0.490806 -0.168494 -0.854821
0.509988 0.396940 -0.763119
0.378811 0.000000 -0.925474
0.358286 0.123000 -0.925474
0.298935 0.232670 -0.925474
0.207190 0.317128 -0.925474
0.092993 0.367219 -0.925474
-0.031282 0.377517 -0.925474
-0.152167 0.346905 -0.925474
-0.256562 0.278700 -0.925474
-0.333154 0.180294 -0.925474
-0.373644 0.062350 -0.925474
-0.373644 -0.062350 -0.925474
-0.333154 -0.180294 -0.925474
-0.256562 -0.278700 -0.925474
-0.152167 -0.346905 -0.925474
-0.031282 -0.377517 -0.925474
0.092993 -0.367219 -0.925474
0.207190 -0.317128 -0.925474
0.298935 -0.232670 -0.925474
0.358286 -0.123000 -0.925474
0.409503 0.318729 -0.854821
0.229371 0.000000 -0.973339
0.216943 0.074477 -0.973339
0.181006 0.140883 -0.973339
0.125454 0.192022 -0.973339
0.056307 0.222352 -0.973339
-0.018941 0.228588 -0.973339
-0.092137 0.210052 -0.973339
-0.155349 0.168754 -0.973339
-0.201726 0.109169 -0.973339
-0.226243 0.037753 -0.973339
-0.226243 -0.037753 -0.973339
-0.201726 -0.109169 -0.973339
-0.155349 -0.168754 -0.973339
-0.092137 -0.210052 -0.973339
-0.018941 -0.228588 -0.973339
0.056307 -0.222352 -0.973339
0.125454 -0.192022 -0.973339
0.181006 -0.140883 -0.973339
0.216943 -0.074477 -0.973339
0.298935 0.232670 -0.925474
0.154953 0.000000 -0.987922
0.146557 0.050313 -0.987922
0.122280 0.095174 -0.987922
0.084751 0.129721 -0.987922
0.038039 0.150211 -0.987922
-0.012796 0.154424 -0.987922
-0.062244 0.141902 -0.987922
-0.104947 0.114003 -0.987922
-0.136277 0.073749 -0.987922
-0.152840 0.025504 -0.987922
-0.152840 -0.025504 -0.987922
-0.136277 -0.073749 -0.987922
-0.104947 -0.114003 -0.987922
-0.062244 -0.141902 -0.987922
-0.012796 -0.154424 -0.987922
0.038039 -0.150211 -0.987922
0.084751 -0.129721 -0.987922
0.122280 -0.095174 -0.987922
0.146557 -0.050313 -0.987922
0.181006 0.140883 -0.973339
0.104149 0.000000 -0.994562
0.098506 0.033817 -0.994562
0.082188 0.063969 -0.994562
0.056964 0.087190 -0.994562
0.025567 0.100962 -0.994562
-0.008601 0.103793 -0.994562
-0.041836 0.095376 -0.994562
-0.070538 0.076625 -0.994562
-0.091596 0.049569 -0.994562
-0.102728 0.017142 -0.994562
-0.102728 -0.017142 -0.994562
-0.091596 -0.049569 -0.994562
-0.070538 -0.076625 -0.994562
-0.041836 -0.095376 -0.994562
-0.008601 -0.103793 -0.994562
0.025567 -0.100962 -0.994562
0.056964 -0.087190 -0.994562
0.082188 -0.063969 -0.994562
0.098506 -0.033817 -0.994562
0.122280 0.095174 -0.987922
0.069840 0.000000 -0.997558
0.066055 0.022677 -0.997558
0.055113 0.042896 -0.997558
0.038199 0.058467 -0.997558
0.017145 0.067703 -0.997558
-0.005767 0.069601 -0.997558
-0.028054 0.063957 -0.997558
-0.047301 0.051383 -0.997558
-0.061422 0.033240 -0.997558
-0.068887 0.011495 -0.997558
-0.068887 -0.011495 -0.997558
-0.061422 -0.033240 -0.997558
-0.047301 -0.051383 -0.997558
-0.028054 -0.063957 -0.997558
-0.005767 -0.069601 -0.997558
0.017145 -0.067703 -0.997558
0.038199 -0.058467 -0.997558
0.055113 -0.042896 -0.997558
0.066055 -0.022677 -0.997558
0.082188 0.063969 -0.994562
0.046784 0.000000 -0.998905
0.044249 0.015191 -0.998905
0.036919 0.028735 -0.998905
0.025588 0.039166 -0.998905
0.011485 0.045352 -0.998905
-0.003863 0.046624 -0.998905
-0.018793 0.042843 -0.998905
-0.031686 0.034420 -0.998905
-0.041145 0.022267 -0.998905
-0.046146 0.007700 -0.998905
-0.046146 -0.007700 -0.998905
-0.041145 -0.022267 -0.998905
-0.031686 -0.034420 -0.998905
-0.018793 -0.042843 -0.998905
-0.003863 -0.046624 -0.998905
0.011485 -0.045352 -0.998905
0.025588 -0.039166 -0.998905
0.036919 -0.028735 -0.998905
0.044249 -0.015191 -0.998905
0.055113 0.042896 -0.997558
0.031325 0.000000 -0.999509
0.029627 0.010171 -0.999509
0.024720 0.019240 -0.999509
0.017133 0.026224 -0.999509
0.007690 0.030366 -0.999509
-0.002587 0.031218 -0.999509
-0.012583 0.028686 -0.999509
-0.021216 0.023046 -0.999509
-0.027549 0.014909 -0.999509
-0.030897 0.005156 -0.999509
-0.030897 -0.005156 -0.999509
-0.027549 -0.014909 -0.999509
-0.021216 -0.023046 -0.999509
-0.012583 -0.028686 -0.999509
-0.002587 -0.031218 -0.999509
0.007690 -0.030366 -0.999509
0.017133 -0.026224 -0.999509
0.024720 -0.019240 -0.999509
0.029627 -0.010171 -0.999509
0.036919 0.028735 -0.998905
0.020969 0.000000 -0.999780
0.019833 0.006809 -0.999780
0.016548 0.012880 -0.999780
0.011469 0.017555 -0.999780
0.005148 0.020328 -0.999780
-0.001732 0.020898 -0.999780
-0.008423 0.019203 -0.999780
-0.014202 0.015428 -0.999780
-0.018442 0.009980 -0.999780
-0.020683 0.003451 -0.999780
-0.020683 -0.003451 -0.999780
-0.018442 -0.009980 -0.999780
-0.014202 -0.015428 -0.999780
-0.008423 -0.019203 -0.999780
-0.001732 -0.020898 -0.999780
0.005148 -0.020328 -0.999780
0.011469 -0.017555 -0.999780
0.016548 -0.012880 -0.999780
0.019833 -0.006809 -0.999780
0.024720 0.019240 -0.999509
0.014036 0.000000 -0.999901
0.013276 0.004557 -0.999901
0.011076 0.008621 -0.999901
0.007677 0.011750 -0.999901
0.003446 0.013607 -0.999901
-0.001159 0.013988 -0.999901
-0.005638 0.012854 -0.999901
-0.009506 0.010327 -0.999901
-0.012344 0.006680 -0.999901
-0.013845 0.002310 -0.999901
-0.013845 -0.002310 -0.999901
-0.012344 -0.006680 -0.999901
-0.009506 -0.010327 -0.999901
-0.005638 -0.012854 -0.999901
-0.001159 -0.013988 -0.999901
0.003446 -0.013607 -0.999901
0.007677 -0.011750 -0.999901
0.011076 -0.008621 -0.999901
0.013276 -0.004557 -0.999901
0.016548 0.012880 -0.999780
3 0 2 3
3 0 3 4
3 0 4 5
3 0 5 6
3 0 6 7
3 0 7 8
3 0 8 9
3 0 9 10
3 0 10 11
3 0 11 12
3 0 12 13
3 0 13 14
3 0 14 15
3 0 15 16
3 0 16 17
3 0 17 18
3 0 18 19
3 0 19 20
3 0 20 2
3 2 22 23
3 2 23 3
3 3 23 24
3 3 24 4
3 4 24 25
3 4 25 5
3 5 25 26
3 5 26 6
3 6 26 27
3 6 27 7
3 7 27 28
3 7 28 8
3 8 28 29
3 8 29 9
3 9 29 30
3 9 30 10
3 10 30 31
3 10 31 11
3 11 31 32
3 11 32 12
3 12 32 33
3 12 33 13
3 13 33 34
3 13 34 14
3 14 34 35
3 14 35 15
3 15 35 36
3 15 36 16
3 16 36 37
3 16 37 17
3 17 37 38
3 17 38 18
3 18 38 39
3 18 39 19
3 19 39 40
3 19 40 20
3 20 22 2
3 20 40 22
3 22 42 43
3 22 43 23
3 23 43 44
3 23 44 24
3 24 44 45
3 24 45 25
3 25 45 46
3 25 46 26
3 26 46 47
3 26 47 27
3 27 47 48
3 27 48 28
3 28 48 49
3 28 49 29
3 29 49 50
3 29 50 30
3 30 50 51
3 30 51 31
3 31 51 52
3 31 52 32
3 32 52 53
3 32 53 33
3 33 53 54
3 33 54 34
3 34 54 55
3 34 55 35
3 35 55 56
3 35 56 36
3 36 56 57
3 36 57 37
3 37 57 58
3 37 58 38
3 38 58 59
3 38 59 39
3 39 59 60
3 39 60 40
3 40 42 22
3 40 60 42
3 42 62 63
3 42 63 43
3 43 63 64
3 43 64 44
3 44 64 65
3 44 65 45
3 45 65 66
3 45 66 46
3 46 66 67
3 46 67 47
3 47 67 68
3 47 68 48
3 48 68 69
3 48 69 49
3 49 69 70
3 49 70 50
3 50 70 71
3 50 71 51
3 51 71 72
3 51 72 52
3 52 72 73
3 52 73 53
3 53 73 74
3 53 74 54
3 54 74 75
3 54 75 55
3 55 75 76
3 55 76 56
3 56 76 77
3 56 77 57
3 57 77 78
3 57 78 58
3 58 78 79
3 58 79 59
3 59 79 80
3 59 80 60
3 60 62 42
3 60 80 62
3 62 82 83
3 62 83 63
3 63 83 84
3 63 84 64
3 64 84 85
3 64 85 65
3 65 85 86
3 65 86 66
3 66 86 87
3 66 87 67
3 67 87 88
3 67 88 68
3 68 88 89
3 68 89 69
3 69 89 90
3 69 90 70
3 70 90 91
3 70 91 71
3 71 91 92
3 71 92 72
3 72 92 93
3 72 93 73
3 73 93 94
3 73 94 74
3 74 94 95
3 74 95 75
3 75 95 96
3 75 96 76
3 76 96 97
3 76 97 77
3 77 97 98
3 77 98 78
3 78 98 99
3 78 99 79
3 79 99 100
3 79 100 80
3 80 82 62
3 80 100 82
3 82 102 103
3 82 103 83
3 83 103 104
3 83 104 84
3 84 104 105
3 84 105 85
3 85 105 106
3 85 106 86
3 86 106 107
3 86 107 87
3 87 107 108
3 87 108 88
3 88 108 109
3 88 109 89
3 89 109 110
3 89 110 90
3 90 110 111
3 90 111 91
3 91 111 112
3 91 112 92
3 92 112 113
3 92 113 93
3 93 113 114
3 93 114 94
3 94 114 115
3 94 115 95
3 95 115 116
3 95 116 96
3 96 116 117
3 96 117 97
3 97 117 118
3 97 118 98
3 98 118 119
3 98 119 99
3 99 119 120
3 99 120 100
3 100 102 82
3 100 120 102
3 102 122 123
3 102 123 103
3 103 123 124
3 103 124 104
3 104 124 125
3 104 125 105
3 105 125 126
3 105 126 106
3 106 126 127
3 106 127 107
3 107 127 128
3 107 128 108
3 108 128 129
3 108 129 109
3 109 129 130
3 109 130 110
3 110 130 131
3 110 131 111
3 111 131 132
3 111 132 112
3 112 132 133
3 112 133 113
3 113 133 134
3 113 134 114
3 114 134 135
3 114 135 115
3 115 135 136
3 115 136 116
3 116 136 137
3 116 137 117
3 117 137 138
3 117 138 118
3 118 138 139
3 118 139 119
3 119 139 140
3 119 140 120
3 120 122 102
3 120 140 122
3 122 142 143
3 122 143 123
3 123 143 144
3 123 144 124
3 124 144 145
3 124 145 125
3 125 145 146
3 125 146 126
3 126 146 147
3 126 147 127
3 127 147 148
3 127 148 128
3 128 148 149
3 128 149 129
3 129 149 150
3 129 150 130
3 130 150 151
3 130 151 131
3 131 151 152
3 131 152 132
3 132 152 153
3 132 153 133
3 133 153 154
3 133 154 134
3 134 154 155
3 134 155 135
3 135 155 156
3 135 156 136
3 136 156 157
3 136 157 137
3 137 157 158
3 137 158 138
3 138 158 159
3 138 159 139
3 139 159 160
3 139 160 140
3 140 142 122
3 140 160 142
3 142 162 163
3 142 163 143
3 143 163 164
3 143 164 144
3 144 164 165
3 144 165 145
3 145 165 166
3 145 166 146
3 146 166 167
3 146 167 147
3 147 167 168
3 147 168 148
3 148 168 169
3 148 169 149
3 149 169 170
3 149 170 150
3 150 170 171
3 150 171 151
3 151 171 172
3 151 172 152
3 152 172 173
3 152 173 153
3 153 173 174
3 153 174 154
3 154 174 175
3 154 175 155
3 155 175 176
3 155 176 156
3 156 176 177
3 156 177 157
3 157 177 178
3 157 178 158
3 158 178 179
3 158 179 159
3 159 179 180
3 159 180 160
3 160 162 142
3 160 180 162
3 162 182 183
3 162 183 163
3 163 183 184
3 163 184 164
3 164 184 185
3 164 185 165
3 165 185 186
3 165 186 166
3 166 186 187
3 166 187 167
3 167 187 188
3 167 188 168
3 168 188 189
3 168 189 169
3 169 189 190
3 169 190 170
3 170 190 191
3 170 191 171
3 171 191 192
3 171 192 172
3 172 192 193
3 172 193 173
3 173 193 194
3 173 194 174
3 174 194 195
3 174 195 175
3 175 195 196
3 175 196 176
3 176 196 197
3 176 197 177
3 177 197 198
3 177 198 178
3 178 198 199
3 178 199 179
3 179 199 200
3 179 200 180
3 180 182 162
3 180 200 182
3 182 202 203
3 182 203 183
3 183 203 204
3 183 204 184
3 184 204 205
3 184 205 185
3 185 205 206
3 185 206 186
3 186 206 207
3 186 207 187
3 187 207 208
3 187 208 188
3 188 208 209
3 188 209 189
3 189 209 210
3 189 210 190
3 190 210 211
3 190 211 191
3 191 211 212
3 191 212 192
3 192 212 213
3 192 213 193
3 193 213 214
3 193 214 194
3 194 214 215
3 194 215 195
3 195 215 216
3 195 216 196
3 196 216 217
3 196 217 197
3 197 217 218
3 197 218 198
3 198 218 219
3 198 219 199
3 199 219 220
3 199 220 200
3 200 202 182
3 200 220 202
3 202 222 223
3 202 223 203
3 203 223 224
3 203 224 204
3 204 224 225
3 204 225 205
3 205 225 226
3 205 226 206
3 206 226 227
3 206 227 207
3 207 227 228
3 207 228 208
3 208 228 229
3 208 229 209
3 209 229 230
3 209 230 210
3 210 230 231
3 210 231 211
3 211 231 232
3 211 232 212
3 212 232 233
3 212 233 213
3 213 233 234
3 213 234 214
3 214 234 235
3 214 235 215
3 215 235 236
3 215 236 216
3 216 236 237
3 216 237 217
3 217 237 238
3 217 238 218
3 218 238 239
3 218 239 219
3 219 239 240
3 219 240 220
3 220 222 202
3 220 240 222
3 222 242 243
3 222 243 223
3 223 243 244
3 223 244 224
3 224 244 245
3 224 245 225
3 225 245 246
3 225 246 226
3 226 246 247
3 226 247 227
3 227 247 248
3 227 248 228
3 228 248 249
3 228 249 229
3 229 249 250
3 229 250 230
3 230 250 251
3 230 251 231
3 231 251 252
3 231 252 232
3 232 252 253
3 232 253 233
3 233 253 254
3 233 254 234
3 234 254 255
3 234 255 235
3 235 255 256
3 235 256 236
3 236 256 257
3 236 257 237
3 237 257 258
3 237 258 238
3 238 258 259
3 238 259 239
3 239 259 260
3 239 260 240
3 240 242 222
3 240 260 242
3 242 262 263
3 242 263 243
3 243 263 264
3 243 264 244
3 244 264 265
3 244 265 245
3 245 265 266
3 245 266 246
3 246 266 267
3 246 267 247
3 247 267 268
3 247 268 248
3 248 268 269
3 248 269 249
3 249 269 270
3 249 270 250
3 250 270 271
3 250 271 251
3 251 271 272
3 251 272 252
3 252 272 273
3 252 273 253
3 253 273 274
3 253 274 254
3 254 274 275
3 254 275 255
3 255 275 276
3 255 276 256
3 256 276 277
3 256 277 257
3 257 277 278
3 257 278 258
3 258 278 279
3 258 279 259
3 259 279 280
3 259 280 260
3 260 262 242
3 260 280 262
3 262 282 283
3 262 283 263
3 263 283 284
3 263 284 264
3 264 284 285
3 264 285 265
3 265 285 286
3 265 286 266
3 266 286 287
3 266 287 267
3 267 287 288
3 267 288 268
3 268 288 289
3 268 289 269
3 269 289 290
3 269 290 270
3 270 290 291
3 270 291 271
3 271 291 292
3 271 292 272
3 272 292 293
3 272 293 273
3 273 293 294
3 273 294 274
3 274 294 295
3 274 295 275
3 275 295 296
3 275 296 276
3 276 296 297
3 276 297 277
3 277 297 298
3 277 298 278
3 278 298 299
3 278 299 279
3 279 299 300
3 279 300 280
3 280 282 262
3 280 300 282
3 282 302 303
3 282 303 283
3 283 303 304
3 283 304 284
3 284 304 305
3 284 305 285
3 285 305 306
3 285 306 286
3 286 306 307
3 286 307 287
3 287 307 308
3 287 308 288
3 288 308 309
3 288 309 289
3 289 309 310
3 289 310 290
3 290 310 311
3 290 311 291
3 291 311 312
3 291 312 292
3 292 312 313
3 292 313 293
3 293 313 314
3 293 314 294
3 294 314 315
3 294 315 295
3 295 315 316
3 295 316 296
3 296 316 317
3 296 317 297
3 297 317 318
3 297 318 298
3 298 318 319
3 298 319 299
3 299 319 320
3 299 320 300
3 300 302 282
3 300 320 302
3 302 322 323
3 302 323 303
3 303 323 324
3 303 324 304
3 304 324 325
3 304 325 305
3 305 325 326
3 305 326 306
3 306 326 327
3 306 327 307
3 307 327 328
3 307 328 308
3 308 328 329
3 308 329 309
3 309 329 330
3 309 330 310
3 310 330 331
3 310 331 311
3 311 331 332
3 311 332 312
3 312 332 333
3 312 333 313
3 313 333 334
3 313 334 314
3 314 334 335
3 314 335 315
3 315 335 336
3 315 336 316
3 316 336 337
3 316 337 317
3 317 337 338
3 317 338 318
3 318 338 339
3 318 339 319
3 319 339 340
3 319 340 320
3 320 322 302
3 320 340 322
3 322 342 343
3 322 343 323
3 323 343 344
3 323 344 324
3 324 344 345
3 324 345 325
3 325 345 346
3 325 346 326
3 326 346 347
3 326 347 327
3 327 347 348
3 327 348 328
3 328 348 349
3 328 349 329
3 329 349 350
3 329 350 330
3 330 350 351
3 330 351 331
3 331 351 352
3 331 352 332
3 332 352 353
3 332 353 333
3 333 353 354
3 333 354 334
3 334 354 355
3 334 355 335
3 335 355 356
3 335 356 336
3 336 356 357
3 336 357 337
3 337 357 358
3 337 358 338
3 338 358 359
3 338 359 339
3 339 359 360
3 339 360 340
3 340 342 322
3 340 360 342
3 342 362 363
3 342 363 343
3 343 363 364
3 343 364 344
3 344 364 365
3 344 365 345
3 345 365 366
3 345 366 346
3 346 366 367
3 346 367 347
3 347 367 368
3 347 368 348
3 348 368 369
3 348 369 349
3 349 369 370
3 349 370 350
3 350 370 371
3 350 371 351
3 351 371 372
3 351 372 352
3 352 372 373
3 352 373 353
3 353 373 374
3 353 374 354
3 354 374 375
3 354 375 355
3 355 375 376
3 355 376 356
3 356 376 377
3 356 377 357
3 357 377 378
3 357 378 358
3 358 378 379
3 358 379 359
3 359 379 380
3 359 380 360
3 360 362 342
3 360 380 362
3 362 382 383
3 362 383 363
3 363 383 384
3 363 384 364
3 364 384 385
3 364 385 365
3 365 385 386
3 365 386 366
3 366 386 387
3 366 387 367
3 367 387 388
3 367 388 368
3 368 388 389
3 368 389 369
3 369 389 390
3 369 390 370
3 370 390 391
3 370 391 371
3 371 391 392
3 371 392 372
3 372 392 393
3 372 393 373
3 373 393 394
3 373 394 374
3 374 394 395
3 374 395 375
3 375 395 396
3 375 396 376
3 376 396 397
3 376 397 377
3 377 397 398
3 377 398 378
3 378 398 399
3 378 399 379
3 379 399 400
3 379 400 380
3 380 382 362
3 380 400 382
3 382 402 403
3 382 403 383
3 383 403 404
3 383 404 384
3 384 404 405
3 384 405 385
3 385 405 406
3 385 406 386
3 386 406 407
3 386 407 387
3 387 407 408
3 387 408 388
3 388 408 409
3 388 409 389
3 389 409 410
3 389 410 390
3 390 410 411
3 390 411 391
3 391 411 412
3 391 412 392
3 392 412 413
3 392 413 393
3 393 413 414
3 393 414 394
3 394 414 415
3 394 415 395
3 395 415 416
3 395 416 396
3 396 416 417
3 396 417 397
3 397 417 418
3 397 418 398
3 398 418 419
3 398 419 399
3 399 419 420
3 399 420 400
3 400 402 382
3 400 420 402
3 402 422 423
3 402 423 403
3 403 423 424
3 403 424 404
3 404 424 425
3 404 425 405
3 405 425 426
3 405 426 406
3 406 426 427
3 406 427 407
3 407 427 428
3 407 428 408
3 408 428 429
3 408 429 409
3 409 429 430
3 409 430 410
3 410 430 431
3 410 431 411
3 411 431 432
3 411 432 412
3 412 432 433
3 412 433 413
3 413 433 434
3 413 434 414
3 414 434 435
3 414 435 415
3 415 435 436
3 415 436 416
3 416 436 437
3 416 437 417
3 417 437 438
3 417 438 418
3 418 438 439
3 418 439 419
3 419 439 440
3 419 440 420
3 420 422 402
3 420 440 422
3 422 442 443
3 422 443 423
3 423 443 444
3 423 444 424
3 424 444 445
3 424 445 425
3 425 445 446
3 425 446 426
3 426 446 447
3 426 447 427
3 427 447 448
3 427 448 428
3 428 448 449
3 428 449 429
3 429 449 450
3 429 450 430
3 430 450 451
3 430 451 431
3 431 451 452
3 431 452 432
3 432 452 453
3 432 453 433
3 433 453 454
3 433 454 434
3 434 454 455
3 434 455 435
3 435 455 456
3 435 456 436
3 436 456 457
3 436 457 437
3 437 457 458
3 437 458 438
3 438 458 459
3 438 459 439
3 439 459 460
3 439 460 440
3 440 442 422
3 440 460 442
3 442 462 463
3 442 463 443
3 443 463 464
3 443 464 444
3 444 464 465
3 444 465 445
3 445 465 466
3 445 466 446
3 446 466 467
3 446 467 447
3 447 467 468
3 447 468 448
3 448 468 469
3 448 469 449
3 449 469 470
3 449 470 450
3 450 470 471
3 450 471 451
3 451 471 472
3 451 472 452
3 452 472 473
3 452 473 453
3 453 473 474
3 453 474 454
3 454 474 475
3 454 475 455
3 455 475 476
3 455 476 456
3 456 476 477
3 456 477 457
3 457 477 478
3 457 478 458
3 458 478 479
3 458 479 459
3 459 479 480
3 459 480 460
3 460 462 442
3 460 480 462
3 462 482 483
3 462 483 463
3 463 483 484
3 463 484 464
3 464 484 485
3 464 485 465
3 465 485 486
3 465 486 466
3 466 486 487
3 466 487 467
3 467 487 488
3 467 488 468
3 468 488 489
3 468 489 469
3 469 489 490
3 469 490 470
3 470 490 491
3 470 491 471
3 471 491 492
3 471 492 472
3 472 492 493
3 472 493 473
3 473 493 494
3 473 494 474
3 474 494 495
3 474 495 475
3 475 495 496
3 475 496 476
3 476 496 497
3 476 497 477
3 477 497 498
3 477 498 478
3 478 498 499
3 478 499 479
3 479 499 500
3 479 500 480
3 480 482 462
3 480 500 482
3 482 502 503
3 482 503 483
3 483 503 504
3 483 504 484
3 484 504 505
3 484 505 485
3 485 505 506
3 485 506 486
3 486 506 507
3 486 507 487
3 487 507 508
3 487 508 488
3 488 508 509
3 488 509 489
3 489 509 510
3 489 510 490
3 490 510 511
3 490 511 491
3 491 511 512
3 491 512 492
3 492 512 513
3 492 513 493
3 493 513 514
3 493 514 494
3 494 514 515
3 494 515 495
3 495 515 516
3 495 516 496
3 496 516 517
3 496 517 497
3 497 517 518
3 497 518 498
3 498 518 519
3 498 519 499
3 499 519 520
3 499 520 500
3 500 502 482
3 500 520 502
3 502 522 523
3 502 523 503
3 503 523 524
3 503 524 504
3 504 524 525
3 504 525 505
3 505 525 526
3 505 526 506
3 506 526 527
3 506 527 507
3 507 527 528
3 507 528 508
3 508 528 529
3 508 529 509
3 509 529 530
3 509 530 510
3 510 530 531
3 510 531 511
3 511 531 532
3 511 532 512
3 512 532 533
3 512 533 513
3 513 533 534
3 513 534 514
3 514 534 535
3 514 535 515
3 515 535 536
3 515 536 516
3 516 536 537
3 516 537 517
3 517 537 538
3 517 538 518
3 518 538 539
3 518 539 519
3 519 539 540
3 519 540 520
3 520 522 502
3 520 540 522
3 522 542 543
3 522 543 523
3 523 543 544
3 523 544 524
3 524 544 545
3 524 545 525
3 525 545 546
3 525 546 526
3 526 546 547
3 526 547 527
3 527 547 548
3 527 548 528
3 528 548 549
3 528 549 529
3 529 549 550
3 529 550 530
3 530 550 551
3 530 551 531
3 531 551 552
3 531 552 532
3 532 552 553
3 532 553 533
3 533 553 554
3 533 554 534
3 534 554 555
3 534 555 535
3 535 555 556
3 535 556 536
3 536 556 557
3 536 557 537
3 537 557 558
3 537 558 538
3 538 558 559
3 538 559 539
3 539 559 560
3 539 560 540
3 540 542 522
3 540 560 542
3 542 562 563
3 542 563 543
3 543 563 564
3 543 564 544
3 544 564 565
3 544 565 545
3 545 565 566
3 545 566 546
3 546 566 567
3 546 567 547
3 547 567 568
3 547 568 548
3 548 568 569
3 548 569 549
3 549 569 570
3 549 570 550
3 550 570 571
3 550 571 551
3 551 571 572
3 551 572 552
3 552 572 573
3 552 573 553
3 553 573 574
3 553 574 554
3 554 574 575
3 554 575 555
3 555 575 576
3 555 576 556
3 556 576 577
3 556 577 557
3 557 577 578
3 557 578 558
3 558 578 579
3 558 579 559
3 559 579 580
3 559 580 560
3 560 562 542
3 560 580 562
3 562 582 583
3 562 583 563
3 563 583 584
3 563 584 564
3 564 584 585
3 564 585 565
3 565 585 586
3 565 586 566
3 566 586 587
3 566 587 567
3 567 587 588
3 567 588 568
3 568 588 589
3 568 589 569
3 569 589 590
3 569 590 570
3 570 590 591
3 570 591 571
3 571 591 592
3 571 592 572
3 572 592 593
3 572 593 573
3 573 593 594
3 573 594 574
3 574 594 595
3 574 595 575
3 575 595 596
3 575 596 576
3 576 596 597
3 576 597 577
3 577 597 598
3 577 598 578
3 578 598 599
3 578 599 579
3 579 599 600
3 579 600 580
3 580 582 562
3 580 600 582
3 582 602 603
3 582 603 583
3 583 603 604
3 583 604 584
3 584 604 605
3 584 605 585
3 585 605 606
3 585 606 586
3 586 606 607
3 586 607 587
3 587 607 608
3 587 608 588
3 588 608 609
3 588 609 589
3 589 609 610
3 589 610 590
3 590 610 611
3 590 611 591
3 591 611 612
3 591 612 592
3 592 612 613
3 592 613 593
3 593 613 614
3 593 614 594
3 594 614 615
3 594 615 595
3 595 615 616
3 595 616 596
3 596 616 617
3 596 617 597
3 597 617 618
3 597 618 598
3 598 618 619
3 598 619 599
3 599 619 620
3 599 620 600
3 600 602 582
3 600 620 602
3 602 622 623
3 602 623 603
3 603 623 624
3 603 624 604
3 604 624 625
3 604 625 605
3 605 625 626
3 605 626 606
3 606 626 627
3 606 627 607
3 607 627 628
3 607 628 608
3 608 628 629
3 608 629 609
3 609 629 630
3 609 630 610
3 610 630 631
3 610 631 611
3 611 631 632
3 611 632 612
3 612 632 633
3 612 633 613
3 613 633 634
3 613 634 614
3 614 634 635
3 614 635 615
3 615 635 636
3 615 636 616
3 616 636 637
3 616 637 617
3 617 637 638
3 617 638 618
3 618 638 639
3 618 639 619
3 619 639 640
3 619 640 620
3 620 622 602
3 620 640 622
3 622 642 643
3 622 643 623
3 623 643 644
3 623 644 624
3 624 644 645
3 624 645 625
3 625 645 646
3 625 646 626
3 626 646 647
3 626 647 627
3 627 647 648
3 627 648 628
3 628 648 649
3 628 649 629
3 629 649 650
3 629 650 630
3 630 650 651
3 630 651 631
3 631 651 652
3 631 652 632
3 632 652 653
3 632 653 633
3 633 653 654
3 633 654 634
3 634 654 655
3 634 655 635
3 635 655 656
3 635 656 636
3 636 656 657
3 636 657 637
3 637 657 658
3 637 658 638
3 638 658 659
3 638 659 639
3 639 659 660
3 639 660 640
3 640 642 622
3 640 660 642
3 642 662 663
3 642 663 643
3 643 663 664
3 643 664 644
3 644 664 665
3 644 665 645
3 645 665 666
3 645 666 646
3 646 666 667
3 646 667 647
3 647 667 668
3 647 668 648
3 648 668 669
3 648 669 649
3 649 669 670
3 649 670 650
3 650 670 671
3 650 671 651
3 651 671 672
3 651 672 652
3 652 672 673
3 652 673 653
3 653 673 674
3 653 674 654
3 654 674 675
3 654 675 655
3 655 675 676
3 655 676 656
3 656 676 677
3 656 677 657
3 657 677 678
3 657 678 658
3 658 678 679
3 658 679 659
3 659 679 680
3 659 680 660
3 660 662 642
3 660 680 662
3 662 682 683
3 662 683 663
3 663 683 684
3 663 684 664
3 664 684 685
3 664 685 665
3 665 685 686
3 665 686 666
3 666 686 687
3 666 687 667
3 667 687 688
3 667 688 668
3 668 688 689
3 668 689 669
3 669 689 690
3 669 690 670
3 670 690 691
3 670 691 671
3 671 691 692
3 671 692 672
3 672 692 693
3 672 693 673
3 673 693 694
3 673 694 674
3 674 694 695
3 674 695 675
3 675 695 696
3 675 696 676
3 676 696 697
3 676 697 677
3 677 697 698
3 677 698 678
3 678 698 699
3 678 699 679
3 679 699 700
3 679 700 680
3 680 682 662
3 680 700 682
3 682 702 703
3 682 703 683
3 683 703 704
3 683 704 684
3 684 704 705
3 684 705 685
3 685 705 706
3 685 706 686
3 686 706 707
3 686 707 687
3 687 707 708
3 687 708 688
3 688 708 709
3 688 709 689
3 689 709 710
3 689 710 690
3 690 710 711
3 690 711 691
3 691 711 712
3 691 712 692
3 692 712 713
3 692 713 693
3 693 713 714
3 693 714 694
3 694 714 715
3 694 715 695
3 695 715 716
3 695 716 696
3 696 716 717
3 696 717 697
3 697 717 718
3 697 718 698
3 698 718 719
3 698 719 699
3 699 719 720
3 699 720 700
3 700 702 682
3 700 720 702
3 702 1 703
3 703 1 704
3 704 1 705
3 705 1 706
3 706 1 707
3 707 1 708
3 708 1 709
3 709 1 710
3 710 1 711
3 711 1 712
3 712 1 713
3 713 1 714
3 714 1 715
3 715 1 716
3 716 1 717
3 717 1 718
3 718 1 719
3 719 1 720
3 720 1 702
